<svg width="758" height="475" xmlns="http://www.w3.org/2000/svg" xmlns:xlink="http://www.w3.org/1999/xlink" overflow="hidden"><defs><clipPath id="clip0"><rect x="140" y="56" width="758" height="475"/></clipPath></defs><g clip-path="url(#clip0)" transform="translate(-140 -56)"><path d="M217.5 233.5C217.5 221.35 227.35 211.5 239.5 211.5 251.65 211.5 261.5 221.35 261.5 233.5 261.5 245.65 251.65 255.5 239.5 255.5 227.35 255.5 217.5 245.65 217.5 233.5Z" stroke="#0D0D0D" stroke-width="1.33333" stroke-miterlimit="8" fill="#D6DCE5" fill-rule="evenodd"/><path d="M233.5 307C233.5 305.619 234.619 304.5 236 304.5 237.381 304.5 238.5 305.619 238.5 307 238.5 308.381 237.381 309.5 236 309.5 234.619 309.5 233.5 308.381 233.5 307Z" stroke="#0D0D0D" stroke-width="1.33333" stroke-miterlimit="8" fill="#595959" fill-rule="evenodd"/><path d="M216.5 414.5C216.5 402.35 226.35 392.5 238.5 392.5 250.65 392.5 260.5 402.35 260.5 414.5 260.5 426.65 250.65 436.5 238.5 436.5 226.35 436.5 216.5 426.65 216.5 414.5Z" stroke="#0D0D0D" stroke-width="1.33333" stroke-miterlimit="8" fill="#D6DCE5" fill-rule="evenodd"/><path d="M233.5 341C233.5 339.619 234.619 338.5 236 338.5 237.381 338.5 238.5 339.619 238.5 341 238.5 342.381 237.381 343.5 236 343.5 234.619 343.5 233.5 342.381 233.5 341Z" stroke="#0D0D0D" stroke-width="1.33333" stroke-miterlimit="8" fill="#595959" fill-rule="evenodd"/><path d="M233.5 324C233.5 322.619 234.619 321.5 236 321.5 237.381 321.5 238.5 322.619 238.5 324 238.5 325.381 237.381 326.5 236 326.5 234.619 326.5 233.5 325.381 233.5 324Z" stroke="#0D0D0D" stroke-width="1.33333" stroke-miterlimit="8" fill="#595959" fill-rule="evenodd"/><path d="M757.5 142.5C757.5 130.35 767.35 120.5 779.5 120.5 791.65 120.5 801.5 130.35 801.5 142.5 801.5 154.65 791.65 164.5 779.5 164.5 767.35 164.5 757.5 154.65 757.5 142.5Z" stroke="#0D0D0D" stroke-width="1.33333" stroke-miterlimit="8" fill="#8497B0" fill-rule="evenodd"/><path d="M757.5 233.5C757.5 221.35 767.35 211.5 779.5 211.5 791.65 211.5 801.5 221.35 801.5 233.5 801.5 245.65 791.65 255.5 779.5 255.5 767.35 255.5 757.5 245.65 757.5 233.5Z" stroke="#0D0D0D" stroke-width="1.33333" stroke-miterlimit="8" fill="#8497B0" fill-rule="evenodd"/><path d="M773.5 307C773.5 305.619 774.619 304.5 776 304.5 777.381 304.5 778.5 305.619 778.5 307 778.5 308.381 777.381 309.5 776 309.5 774.619 309.5 773.5 308.381 773.5 307Z" stroke="#0D0D0D" stroke-width="1.33333" stroke-miterlimit="8" fill="#595959" fill-rule="evenodd"/><path d="M756.5 414.5C756.5 402.35 766.35 392.5 778.5 392.5 790.65 392.5 800.5 402.35 800.5 414.5 800.5 426.65 790.65 436.5 778.5 436.5 766.35 436.5 756.5 426.65 756.5 414.5Z" stroke="#0D0D0D" stroke-width="1.33333" stroke-miterlimit="8" fill="#8497B0" fill-rule="evenodd"/><path d="M756.5 504.5C756.5 492.35 766.35 482.5 778.5 482.5 790.65 482.5 800.5 492.35 800.5 504.5 800.5 516.65 790.65 526.5 778.5 526.5 766.35 526.5 756.5 516.65 756.5 504.5Z" stroke="#0D0D0D" stroke-width="1.33333" stroke-miterlimit="8" fill="#8497B0" fill-rule="evenodd"/><path d="M773.5 341C773.5 339.619 774.619 338.5 776 338.5 777.381 338.5 778.5 339.619 778.5 341 778.5 342.381 777.381 343.5 776 343.5 774.619 343.5 773.5 342.381 773.5 341Z" stroke="#0D0D0D" stroke-width="1.33333" stroke-miterlimit="8" fill="#595959" fill-rule="evenodd"/><path d="M773.5 324C773.5 322.619 774.619 321.5 776 321.5 777.381 321.5 778.5 322.619 778.5 324 778.5 325.381 777.381 326.5 776 326.5 774.619 326.5 773.5 325.381 773.5 324Z" stroke="#0D0D0D" stroke-width="1.33333" stroke-miterlimit="8" fill="#595959" fill-rule="evenodd"/><path d="M487.5 142.5C487.5 130.35 497.126 120.5 509 120.5 520.874 120.5 530.5 130.35 530.5 142.5 530.5 154.65 520.874 164.5 509 164.5 497.126 164.5 487.5 154.65 487.5 142.5Z" stroke="#0D0D0D" stroke-width="1.33333" stroke-miterlimit="8" fill="#ADB9CA" fill-rule="evenodd"/><path d="M487.5 233.5C487.5 221.35 497.126 211.5 509 211.5 520.874 211.5 530.5 221.35 530.5 233.5 530.5 245.65 520.874 255.5 509 255.5 497.126 255.5 487.5 245.65 487.5 233.5Z" stroke="#0D0D0D" stroke-width="1.33333" stroke-miterlimit="8" fill="#ADB9CA" fill-rule="evenodd"/><path d="M503.5 307C503.5 305.619 504.395 304.5 505.5 304.5 506.605 304.5 507.5 305.619 507.5 307 507.5 308.381 506.605 309.5 505.5 309.5 504.395 309.5 503.5 308.381 503.5 307Z" stroke="#0D0D0D" stroke-width="1.33333" stroke-miterlimit="8" fill="#595959" fill-rule="evenodd"/><path d="M486.5 414.5C486.5 402.35 496.126 392.5 508 392.5 519.874 392.5 529.5 402.35 529.5 414.5 529.5 426.65 519.874 436.5 508 436.5 496.126 436.5 486.5 426.65 486.5 414.5Z" stroke="#0D0D0D" stroke-width="1.33333" stroke-miterlimit="8" fill="#ADB9CA" fill-rule="evenodd"/><path d="M486.5 504.5C486.5 492.35 496.126 482.5 508 482.5 519.874 482.5 529.5 492.35 529.5 504.5 529.5 516.65 519.874 526.5 508 526.5 496.126 526.5 486.5 516.65 486.5 504.5Z" stroke="#0D0D0D" stroke-width="1.33333" stroke-miterlimit="8" fill="#ADB9CA" fill-rule="evenodd"/><path d="M503.5 341C503.5 339.619 504.619 338.5 506 338.5 507.381 338.5 508.5 339.619 508.5 341 508.5 342.381 507.381 343.5 506 343.5 504.619 343.5 503.5 342.381 503.5 341Z" stroke="#0D0D0D" stroke-width="1.33333" stroke-miterlimit="8" fill="#595959" fill-rule="evenodd"/><path d="M503.5 324C503.5 322.619 504.395 321.5 505.5 321.5 506.605 321.5 507.5 322.619 507.5 324 507.5 325.381 506.605 326.5 505.5 326.5 504.395 326.5 503.5 325.381 503.5 324Z" stroke="#0D0D0D" stroke-width="1.33333" stroke-miterlimit="8" fill="#595959" fill-rule="evenodd"/><text font-family="Times New Roman,Times New Roman_MSFontService,sans-serif" font-style="italic" font-weight="400" font-size="24" transform="translate(233.848 170)">S.V<tspan font-size="24" x="535.094" y="-83">P.V</tspan></text><path d="M0.124164-0.309345 219.568 87.7702 219.319 88.3889-0.124164 0.309345ZM219.697 83.871 225.631 90.563 216.717 91.2952Z" fill="#ADB9CA" transform="matrix(1 0 0 -1 261.5 233.063)"/><path d="M261.5 233.167 480.464 233.167 480.464 233.833 261.5 233.833ZM479.131 229.5 487.131 233.5 479.131 237.5Z" fill="#ADB9CA"/><path d="M261.709 233.241 481.218 410.183 480.799 410.702 261.291 233.76ZM482.481 406.491 486.199 414.626 477.46 412.72Z" fill="#ADB9CA"/><path d="M261.757 233.288 482.207 499.84 481.693 500.265 261.243 233.712ZM484.183 496.475 486.199 505.189 478.018 501.574Z" fill="#ADB9CA"/><path d="M261.591 233.179 480.809 295.458 480.626 296.1 261.409 233.821ZM480.529 291.567 487.131 297.601 478.342 299.263Z" fill="#ADB9CA"/><path d="M261.622 233.19 480.115 318.918 479.871 319.538 261.378 233.81ZM480.213 315.017 486.199 321.663 477.291 322.465Z" fill="#ADB9CA"/><path d="M261.647 233.201 480.357 340.167 480.064 340.766 261.354 233.799ZM480.77 336.287 486.199 343.395 477.255 343.473Z" fill="#ADB9CA"/><path d="M0.256002-0.213481 222.55 266.356 222.038 266.783-0.256002 0.213481ZM224.511 262.983 226.563 271.689 218.367 268.107Z" fill="#ADB9CA" transform="matrix(1 0 0 -1 260.5 414.189)"/><path d="M0.208145-0.260359 221.564 176.703 221.148 177.224-0.208145 0.260359ZM222.812 173.006 226.563 181.126 217.816 179.255Z" fill="#ADB9CA" transform="matrix(1 0 0 -1 260.5 414.626)"/><path d="M0.153471-0.295901 219.866 113.66 219.559 114.252-0.153471 0.295901ZM220.371 109.791 225.631 117.025 216.687 116.893Z" fill="#ADB9CA" transform="matrix(1 0 0 -1 260.5 414.525)"/><path d="M0.126983-0.308199 219.594 90.1154 219.34 90.7318-0.126983 0.308199ZM219.758 86.2173 225.631 92.9632 216.71 93.6141Z" fill="#ADB9CA" transform="matrix(1 0 0 -1 260.5 414.463)"/><path d="M0.100351-0.317869 219.374 68.9065 219.174 69.5422-0.100351 0.317869ZM219.206 65.0083 225.631 71.2312 216.798 72.6372Z" fill="#ADB9CA" transform="matrix(1 0 0 -1 260.5 414.731)"/><path d="M260.5 414.167 479.464 414.167 479.464 414.833 260.5 414.833ZM478.131 410.5 486.131 414.5 478.131 418.5Z" fill="#ADB9CA"/><path d="M260.624 414.191 480.069 502.271 479.82 502.889 260.376 414.809ZM480.197 498.371 486.131 505.063 477.217 505.795Z" fill="#ADB9CA"/><path d="M530.5 142.167 750.396 142.167 750.396 142.833 530.5 142.833ZM749.063 138.5 757.063 142.5 749.063 146.5Z" fill="#8497B0"/><path d="M530.624 142.191 750.997 230.279 750.749 230.898 530.376 142.81ZM751.119 226.379 757.063 233.063 748.15 233.808Z" fill="#8497B0"/><path d="M530.691 142.227 747.331 293.081 746.95 293.628 530.31 142.774ZM748.332 289.31 752.611 297.164 743.76 295.875Z" fill="#8497B0"/><path d="M530.705 142.237 747.557 311.204 747.148 311.73 530.295 142.763ZM748.759 307.492 752.611 315.564 743.842 313.802Z" fill="#8497B0"/><path d="M530.72 142.25 747.829 333.501 747.388 334.002 530.28 142.75ZM749.252 329.868 752.611 338.158 743.964 335.871Z" fill="#8497B0"/><path d="M530.756 142.287 752.129 408.848 751.616 409.274 530.244 142.713ZM754.097 405.479 756.131 414.189 747.943 410.59Z" fill="#8497B0"/><path d="M530.783 142.324 752.89 498.917 752.324 499.27 530.217 142.676ZM755.297 495.847 756.131 504.752 748.506 500.076Z" fill="#8497B0"/><path d="M529.5 504.167 749.396 504.167 749.396 504.833 529.5 504.833ZM748.063 500.5 756.063 504.5 748.063 508.5Z" fill="#8497B0"/><path d="M0.123724-0.309522 220.497 87.779 220.249 88.3981-0.123724 0.309522ZM220.62 83.8794 226.563 90.563 217.65 91.3079Z" fill="#8497B0" transform="matrix(1 0 0 -1 529.5 505.063)"/><path d="M0.199472-0.267062 217.901 162.338 217.502 162.872-0.199472 0.267062ZM219.027 158.602 223.043 166.594 214.24 165.012Z" fill="#8497B0" transform="matrix(1 0 0 -1 529.5 505.094)"/><path d="M0.215619-0.254204 218.174 184.621 217.743 185.13-0.215619 0.254204ZM219.53 180.963 223.043 189.188 214.355 187.064Z" fill="#8497B0" transform="matrix(1 0 0 -1 529.5 504.688)"/><path d="M0.227097-0.244004 218.39 202.802 217.936 203.29-0.227097 0.244004ZM219.912 199.21 223.043 207.588 214.462 205.066Z" fill="#8497B0" transform="matrix(1 0 0 -1 529.5 505.088)"/><path d="M0.25557-0.213998 223.471 266.364 222.96 266.792-0.25557 0.213998ZM225.426 262.987 227.495 271.689 219.292 268.123Z" fill="#8497B0" transform="matrix(1 0 0 -1 529.5 505.189)"/><path d="M0.282285-0.177275 224.232 356.429 223.668 356.784-0.282285 0.177275ZM226.628 353.35 227.495 362.252 219.853 357.605Z" fill="#8497B0" transform="matrix(1 0 0 -1 529.5 504.752)"/><path d="M529.624 414.191 749.997 502.279 749.749 502.898 529.376 414.81ZM750.119 498.379 756.063 505.063 747.15 505.808Z" fill="#8497B0"/><path d="M529.5 414.167 749.396 414.167 749.396 414.833 529.5 414.833ZM748.063 410.5 756.063 414.5 748.063 418.5Z" fill="#8497B0"/><path d="M0.10755-0.315506 216.841 73.5648 216.626 74.1958-0.10755 0.315506ZM216.761 69.6639 223.043 76.0312 214.18 77.236Z" fill="#8497B0" transform="matrix(1 0 0 -1 529.5 414.531)"/><path d="M0.134803-0.304859 217.081 95.6243 216.811 96.234-0.134803 0.304859ZM217.344 91.7315 223.043 98.6251 214.109 99.0481Z" fill="#8497B0" transform="matrix(1 0 0 -1 529.5 414.125)"/><path d="M0.154869-0.295172 217.295 113.633 216.986 114.223-0.154869 0.295172ZM217.817 109.766 223.043 117.025 214.1 116.85Z" fill="#8497B0" transform="matrix(1 0 0 -1 529.5 414.525)"/><path d="M0.25557-0.213998 223.471 266.364 222.96 266.792-0.25557 0.213998ZM225.426 262.987 227.495 271.689 219.292 268.123Z" fill="#8497B0" transform="matrix(1 0 0 -1 529.5 414.189)"/><path d="M0.123724-0.309521 220.497 87.7791 220.249 88.3982-0.123724 0.309521ZM220.619 83.8794 226.563 90.563 217.65 91.3079Z" fill="#8497B0" transform="matrix(1 0 0 -1 530.5 233.063)"/><path d="M530.5 233.167 750.396 233.167 750.396 233.833 530.5 233.833ZM749.063 229.5 757.063 233.5 749.063 237.5Z" fill="#8497B0"/><path d="M530.592 233.18 746.299 295.433 746.115 296.073 530.408 233.82ZM746.034 291.54 752.611 297.601 743.816 299.226Z" fill="#8497B0"/><path d="M530.616 233.188 746.478 313.367 746.246 313.992 530.384 233.813ZM746.505 309.466 752.611 316.001 743.719 316.965Z" fill="#8497B0"/><path d="M530.643 233.199 746.727 335.442 746.442 336.045 530.357 233.801ZM747.091 331.558 752.611 338.595 743.669 338.789Z" fill="#8497B0"/><path d="M530.709 233.24 751.141 410.192 750.723 410.712 530.291 233.76ZM752.397 406.499 756.131 414.626 747.389 412.737Z" fill="#8497B0"/><path d="M530.756 233.287 752.128 499.847 751.615 500.273 530.244 233.713ZM754.097 496.479 756.131 505.189 747.943 501.59Z" fill="#8497B0"/><text font-family="Times New Roman,Times New Roman_MSFontService,sans-serif" font-style="italic" font-weight="400" font-size="24" transform="translate(158.496 242)">s<tspan font-size="16" x="9.33334" y="-7">1</tspan><tspan font-size="24" x="17.3333" y="0">.v</tspan><tspan font-size="24" x="-3.53416" y="178">s</tspan><tspan font-size="16" x="5.79916" y="171">|S</tspan><tspan font-size="16" x="18.1325" y="171">|</tspan><tspan font-size="24" x="22.4658" y="178">.v</tspan><tspan font-size="24" x="664.22" y="-91">p</tspan><tspan font-size="16" x="676.22" y="-98">1</tspan><tspan font-size="24" x="684.22" y="-91">.v</tspan><tspan font-size="24" x="664.22" y="-5">p</tspan><tspan font-size="16" x="676.22" y="-12">2</tspan><tspan font-size="24" x="684.22" y="-5">.v</tspan><tspan font-size="24" x="664.22" y="180">p</tspan><tspan font-size="16" x="676.22" y="173">|P</tspan><tspan font-size="16" x="690.387" y="173">|</tspan><tspan font-size="16" x="694.72" y="173">-</tspan><tspan font-size="16" x="700.054" y="173">1</tspan><tspan font-size="24" x="708.054" y="180">.v</tspan><tspan font-size="24" x="664.22" y="268">p</tspan><tspan font-size="16" x="676.22" y="261">|P</tspan><tspan font-size="16" x="690.387" y="261">|</tspan><tspan font-size="24" x="694.72" y="268">.v</tspan></text></g></svg>