<svg width="1531" height="1248" xmlns="http://www.w3.org/2000/svg" xmlns:xlink="http://www.w3.org/1999/xlink" overflow="hidden"><defs><clipPath id="clip0"><rect x="563" y="434" width="1531" height="1248"/></clipPath><radialGradient cx="828502" cy="-0.0625" r="1.23391e+06" fx="828502" fy="0" gradientUnits="userSpaceOnUse" spreadMethod="pad" id="fill1" gradientTransform="scale(0.000360892 0.000360892)"><stop offset="0" stop-color="#2C5981" stop-opacity="0.909804"/><stop offset="0.39" stop-color="#DEEBF7"/><stop offset="1" stop-color="#C00000"/></radialGradient><radialGradient cx="828502" cy="-0.0625" r="1.23391e+06" fx="828502" fy="0" gradientUnits="userSpaceOnUse" spreadMethod="pad" id="fill2" gradientTransform="scale(0.000360892 0.000360892)"><stop offset="0" stop-color="#234868" stop-opacity="0.909804"/><stop offset="0.39" stop-color="#B2BDC7"/><stop offset="1" stop-color="#9A0000"/></radialGradient><radialGradient cx="828502" cy="-0.0625" r="1.23391e+06" fx="828502" fy="0" gradientUnits="userSpaceOnUse" spreadMethod="pad" id="fill3" gradientTransform="scale(0.000360892 0.000360892)"><stop offset="0" stop-color="#557A9A" stop-opacity="0.909804"/><stop offset="0.39" stop-color="#E4EFF9"/><stop offset="1" stop-color="#CC3232"/></radialGradient></defs><g clip-path="url(#clip0)" transform="translate(-563 -434)"><rect x="952" y="460" width="297" height="168" fill="#333F50"/><text fill="#FFFFFF" font-family="Times New Roman,Times New Roman_MSFontService,sans-serif" font-weight="400" font-size="55" transform="matrix(1 0 0 1 1056.01 531)">Soil<tspan font-size="55" x="-59.8583" y="66">simulator</tspan></text><path d="M1301 1005C1301 913.873 1374.87 840 1466 840 1557.13 840 1631 913.873 1631 1005 1631 1096.13 1557.13 1170 1466 1170 1374.87 1170 1301 1096.13 1301 1005Z" fill="#333F50" fill-rule="evenodd"/><text fill="#FFFFFF" font-family="Times New Roman,Times New Roman_MSFontService,sans-serif" font-weight="400" font-size="55" transform="matrix(1 0 0 1 1367.56 992)">Profiling <tspan font-size="55" x="6.0271" y="66">function</tspan></text><path d="M0 10.1541 288.846 10.1541 288.846 330 0 330Z" fill="url(#fill1)" fill-rule="evenodd" transform="matrix(-1 0 0 1 1060 1049)"/><path d="M288.846 10.1541 299 0 299 319.846 288.846 330Z" fill="url(#fill2)" fill-rule="evenodd" transform="matrix(-1 0 0 1 1060 1049)"/><path d="M0 10.1541 10.1541 0 299 0 288.846 10.1541Z" fill="url(#fill3)" fill-rule="evenodd" transform="matrix(-1 0 0 1 1060 1049)"/><path d="M790.5 1118.5C790.5 1111.32 796.32 1105.5 803.5 1105.5 810.68 1105.5 816.5 1111.32 816.5 1118.5 816.5 1125.68 810.68 1131.5 803.5 1131.5 796.32 1131.5 790.5 1125.68 790.5 1118.5Z" stroke="#000000" stroke-width="4.58333" stroke-miterlimit="8" fill-rule="evenodd"/><path d="M789.5 1305.5C789.5 1298.32 795.32 1292.5 802.5 1292.5 809.68 1292.5 815.5 1298.32 815.5 1305.5 815.5 1312.68 809.68 1318.5 802.5 1318.5 795.32 1318.5 789.5 1312.68 789.5 1305.5Z" stroke="#000000" stroke-width="4.58333" stroke-miterlimit="8" fill-rule="evenodd"/><path d="M892.5 1120.5C892.5 1113.32 898.544 1107.5 906 1107.5 913.456 1107.5 919.5 1113.32 919.5 1120.5 919.5 1127.68 913.456 1133.5 906 1133.5 898.544 1133.5 892.5 1127.68 892.5 1120.5Z" stroke="#000000" stroke-width="4.58333" stroke-miterlimit="8" fill-rule="evenodd"/><path d="M891.5 1308C891.5 1300.54 897.544 1294.5 905 1294.5 912.456 1294.5 918.5 1300.54 918.5 1308 918.5 1315.46 912.456 1321.5 905 1321.5 897.544 1321.5 891.5 1315.46 891.5 1308Z" stroke="#000000" stroke-width="4.58333" stroke-miterlimit="8" fill-rule="evenodd"/><path d="M995.5 1122.5C995.5 1115.32 1001.32 1109.5 1008.5 1109.5 1015.68 1109.5 1021.5 1115.32 1021.5 1122.5 1021.5 1129.68 1015.68 1135.5 1008.5 1135.5 1001.32 1135.5 995.5 1129.68 995.5 1122.5Z" stroke="#000000" stroke-width="4.58333" stroke-miterlimit="8" fill-rule="evenodd"/><path d="M994.5 1310C994.5 1302.54 1000.32 1296.5 1007.5 1296.5 1014.68 1296.5 1020.5 1302.54 1020.5 1310 1020.5 1317.46 1014.68 1323.5 1007.5 1323.5 1000.32 1323.5 994.5 1317.46 994.5 1310Z" stroke="#000000" stroke-width="4.58333" stroke-miterlimit="8" fill-rule="evenodd"/><path d="M789.5 1212.5C789.5 1205.32 795.32 1199.5 802.5 1199.5 809.68 1199.5 815.5 1205.32 815.5 1212.5 815.5 1219.68 809.68 1225.5 802.5 1225.5 795.32 1225.5 789.5 1219.68 789.5 1212.5Z" stroke="#000000" stroke-width="4.58333" stroke-miterlimit="8" fill-rule="evenodd"/><path d="M891.5 1214.5C891.5 1207.32 897.544 1201.5 905 1201.5 912.456 1201.5 918.5 1207.32 918.5 1214.5 918.5 1221.68 912.456 1227.5 905 1227.5 897.544 1227.5 891.5 1221.68 891.5 1214.5Z" stroke="#000000" stroke-width="4.58333" stroke-miterlimit="8" fill-rule="evenodd"/><path d="M994.5 1216.5C994.5 1209.32 1000.32 1203.5 1007.5 1203.5 1014.68 1203.5 1020.5 1209.32 1020.5 1216.5 1020.5 1223.68 1014.68 1229.5 1007.5 1229.5 1000.32 1229.5 994.5 1223.68 994.5 1216.5Z" stroke="#000000" stroke-width="4.58333" stroke-miterlimit="8" fill-rule="evenodd"/><text font-family="Times New Roman,Times New Roman_MSFontService,sans-serif" font-weight="400" font-size="55" transform="matrix(1 0 0 1 797.667 1451)">Real<tspan font-size="55" x="101.406" y="0">-</tspan><tspan font-size="55" x="119.74" y="0">time </tspan><tspan font-size="55" x="-14.025" y="66">sensor</tspan><tspan font-size="55" x="140.09" y="66">data</tspan><tspan font-size="55" x="967.038" y="-248">Soil</tspan><tspan font-size="55" x="1069.59" y="-248">profile</tspan></text><rect x="1738.5" y="857.5" width="60.0001" height="59.9998" stroke="#181717" stroke-width="4.58333" stroke-miterlimit="8" fill="#567B9B"/><rect x="1856.5" y="857.5" width="59.9998" height="59.9998" stroke="#181717" stroke-width="4.58333" stroke-miterlimit="8" fill="#DCDAE5"/><rect x="1975.5" y="857.5" width="59.9998" height="59.9998" stroke="#181717" stroke-width="4.58333" stroke-miterlimit="8" fill="#CF747A"/><rect x="1738.5" y="1094.5" width="60.0001" height="60.0001" stroke="#181717" stroke-width="4.58333" stroke-miterlimit="8" fill="#CF747A"/><rect x="1856.5" y="1094.5" width="59.9998" height="60.0001" stroke="#181717" stroke-width="4.58333" stroke-miterlimit="8" fill="#CC5C61"/><rect x="1975.5" y="1094.5" width="59.9998" height="60.0001" stroke="#181717" stroke-width="4.58333" stroke-miterlimit="8" fill="#C5282A"/><rect x="1738.5" y="975.5" width="60.0001" height="59.9998" stroke="#181717" stroke-width="4.58333" stroke-miterlimit="8" fill="#DCDAE5"/><rect x="1856.5" y="975.5" width="59.9998" height="59.9998" stroke="#181717" stroke-width="4.58333" stroke-miterlimit="8" fill="#CF747A"/><rect x="1975.5" y="975.5" width="59.9998" height="59.9998" stroke="#181717" stroke-width="4.58333" stroke-miterlimit="8" fill="#CC5C61"/><rect x="1797.5" y="857.5" width="60.0001" height="59.9998" stroke="#181717" stroke-width="4.58333" stroke-miterlimit="8" fill="#90ABC3"/><rect x="1915.5" y="857.5" width="60.0001" height="59.9998" stroke="#181717" stroke-width="4.58333" stroke-miterlimit="8" fill="#D49DA5"/><rect x="1797.5" y="1094.5" width="60.0001" height="60.0001" stroke="#181717" stroke-width="4.58333" stroke-miterlimit="8" fill="#CF7278"/><rect x="1915.5" y="1094.5" width="60.0001" height="60.0001" stroke="#181717" stroke-width="4.58333" stroke-miterlimit="8" fill="#CB5357"/><rect x="1797.5" y="975.5" width="60.0001" height="59.9998" stroke="#181717" stroke-width="4.58333" stroke-miterlimit="8" fill="#D49DA5"/><rect x="1915.5" y="975.5" width="60.0001" height="59.9998" stroke="#181717" stroke-width="4.58333" stroke-miterlimit="8" fill="#CF7278"/><rect x="1738.5" y="917.5" width="60.0001" height="60.0002" stroke="#181717" stroke-width="4.58333" stroke-miterlimit="8" fill="#90ABC3"/><rect x="1856.5" y="917.5" width="59.9998" height="60.0002" stroke="#181717" stroke-width="4.58333" stroke-miterlimit="8" fill="#D49DA5"/><rect x="1975.5" y="917.5" width="59.9998" height="60.0002" stroke="#181717" stroke-width="4.58333" stroke-miterlimit="8" fill="#CF7278"/><rect x="1797.5" y="917.5" width="60.0001" height="60.0002" stroke="#181717" stroke-width="4.58333" stroke-miterlimit="8" fill="#DCDAE5"/><rect x="1915.5" y="917.5" width="60.0001" height="60.0002" stroke="#181717" stroke-width="4.58333" stroke-miterlimit="8" fill="#CF747A"/><rect x="1738.5" y="1034.5" width="60.0001" height="60.0001" stroke="#181717" stroke-width="4.58333" stroke-miterlimit="8" fill="#D49DA5"/><rect x="1856.5" y="1034.5" width="59.9998" height="60.0001" stroke="#181717" stroke-width="4.58333" stroke-miterlimit="8" fill="#CF7278"/><rect x="1975.5" y="1034.5" width="59.9998" height="60.0001" stroke="#181717" stroke-width="4.58333" stroke-miterlimit="8" fill="#C9474B"/><rect x="1797.5" y="1034.5" width="60.0001" height="60.0001" stroke="#181717" stroke-width="4.58333" stroke-miterlimit="8" fill="#CF747A"/><rect x="1915.5" y="1034.5" width="60.0001" height="60.0001" stroke="#181717" stroke-width="4.58333" stroke-miterlimit="8" fill="#CC5C61"/><path d="M0.762064-0.855683 223.692 197.684 222.168 199.395-0.762064 0.855683ZM228.652 185.223 240.044 213.781 210.363 205.76Z" transform="matrix(1 0 0 -1 1060 1218.78)"/><path d="M1631 1003.85 1715.44 1004.03 1715.44 1006.32 1631 1006.15ZM1710.89 991.416 1738.36 1005.22 1710.83 1018.92Z"/><path d="M644.5 648.5 762.5 439.5 880.5 648.5Z" stroke="#787878" stroke-width="4.58333" stroke-miterlimit="8" fill="#A5A5A5" fill-rule="evenodd"/><path d="M821 542.854 928.859 542.855 928.859 545.146 821 545.146ZM924.276 530.25 951.776 544.001 924.276 557.75Z"/><path d="M1467.15 628 1467.15 637.167 1464.85 637.167 1464.85 628ZM1467.15 644.042 1467.15 653.208 1464.85 653.208 1464.85 644.042ZM1467.15 660.083 1467.15 669.25 1464.85 669.25 1464.85 660.083ZM1467.15 676.125 1467.15 685.292 1464.85 685.292 1464.85 676.125ZM1467.15 692.167 1467.15 701.333 1464.85 701.333 1464.85 692.167ZM1467.15 708.208 1467.15 717.375 1464.85 717.375 1464.85 708.208ZM1467.15 724.25 1467.15 733.417 1464.85 733.417 1464.85 724.25ZM1467.15 740.292 1467.15 749.458 1464.85 749.458 1464.85 740.292ZM1467.15 756.333 1467.15 765.5 1464.85 765.5 1464.85 756.333ZM1467.15 772.375 1467.15 781.542 1464.85 781.542 1464.85 772.375ZM1467.15 788.417 1467.15 797.583 1464.85 797.583 1464.85 788.417ZM1467.15 804.458 1467.15 813.625 1464.85 813.625 1464.85 804.458ZM1479.75 812.366 1466 839.866 1452.25 812.366Z"/><path d="M597 768 2092.79 768" stroke="#5B9BD5" stroke-width="2.29167" stroke-miterlimit="8" fill="none" fill-rule="evenodd"/><text font-family="Times New Roman,Times New Roman_MSFontService,sans-serif" font-weight="400" font-size="55" transform="matrix(1 0 0 1 596.123 737)">Offline (on cloud)<tspan font-size="55" x="0" y="103">Online (on field)</tspan></text><rect x="1334" y="460" width="264" height="168" fill="#333F50"/><text fill="#FFFFFF" font-family="Times New Roman,Times New Roman_MSFontService,sans-serif" font-weight="400" font-size="55" transform="matrix(1 0 0 1 1368.99 531)">Machine <tspan font-size="55" x="6.0271" y="66">learning</tspan></text><path d="M1249 542.854 1310.69 542.855 1310.69 545.146 1249 545.146ZM1306.11 530.25 1333.61 544.001 1306.11 557.75Z"/><text font-family="Times New Roman,Times New Roman_MSFontService,sans-serif" font-weight="400" font-size="55" transform="matrix(1 0 0 1 1504.24 698)">learns<tspan font-size="55" x="-783.788" y="-183">Soil</tspan><tspan font-size="55" x="-816.146" y="-117">texture</tspan></text><path d="M1301 1438C1301 1346.87 1374.87 1273 1466 1273 1557.13 1273 1631 1346.87 1631 1438 1631 1529.13 1557.13 1603 1466 1603 1374.87 1603 1301 1529.13 1301 1438Z" fill="#333F50" fill-rule="evenodd"/><text fill="#FFFFFF" font-family="Times New Roman,Times New Roman_MSFontService,sans-serif" font-weight="400" font-size="55" transform="matrix(1 0 0 1 1356.39 1392)">Statistical<tspan font-size="55" x="12.6042" y="66">profiling </tspan><tspan font-size="55" x="17.1875" y="132">function</tspan><tspan fill="#000000" font-size="55" x="411.654" y="243">Soil</tspan><tspan fill="#000000" font-size="55" x="514.207" y="243">profile</tspan></text><rect x="1741.5" y="1289.5" width="60.0001" height="60.0001" stroke="#181717" stroke-width="4.58333" stroke-miterlimit="8" fill="#567B9B"/><rect x="1859.5" y="1289.5" width="60.0001" height="60.0001" stroke="#181717" stroke-width="4.58333" stroke-miterlimit="8" fill="#DCDAE5"/><rect x="1978.5" y="1289.5" width="59.9998" height="60.0001" stroke="#181717" stroke-width="4.58333" stroke-miterlimit="8" fill="#CF747A"/><rect x="1741.5" y="1526.5" width="60.0001" height="59.9998" stroke="#181717" stroke-width="4.58333" stroke-miterlimit="8" fill="#CF747A"/><rect x="1859.5" y="1526.5" width="60.0001" height="59.9998" stroke="#181717" stroke-width="4.58333" stroke-miterlimit="8" fill="#CC5C61"/><rect x="1978.5" y="1526.5" width="59.9998" height="59.9998" stroke="#181717" stroke-width="4.58333" stroke-miterlimit="8" fill="#C5282A"/><rect x="1741.5" y="1407.5" width="60.0001" height="59.9998" stroke="#181717" stroke-width="4.58333" stroke-miterlimit="8" fill="#DCDAE5"/><rect x="1859.5" y="1407.5" width="60.0001" height="59.9998" stroke="#181717" stroke-width="4.58333" stroke-miterlimit="8" fill="#CF747A"/><rect x="1978.5" y="1407.5" width="59.9998" height="59.9998" stroke="#181717" stroke-width="4.58333" stroke-miterlimit="8" fill="#CC5C61"/><rect x="1800.5" y="1289.5" width="59.9998" height="60.0001" stroke="#181717" stroke-width="4.58333" stroke-miterlimit="8" fill="#90ABC3"/><rect x="1919.5" y="1289.5" width="60.0001" height="60.0001" stroke="#181717" stroke-width="4.58333" stroke-miterlimit="8" fill="#D9C1CB"/><rect x="1800.5" y="1526.5" width="59.9998" height="59.9998" stroke="#181717" stroke-width="4.58333" stroke-miterlimit="8" fill="#CF7278"/><rect x="1919.5" y="1526.5" width="60.0001" height="59.9998" stroke="#181717" stroke-width="4.58333" stroke-miterlimit="8" fill="#CB5357"/><rect x="1800.5" y="1407.5" width="59.9998" height="59.9998" stroke="#181717" stroke-width="4.58333" stroke-miterlimit="8" fill="#D9C1CB"/><rect x="1919.5" y="1407.5" width="60.0001" height="59.9998" stroke="#181717" stroke-width="4.58333" stroke-miterlimit="8" fill="#CF7278"/><rect x="1741.5" y="1349.5" width="60.0001" height="60.9999" stroke="#181717" stroke-width="4.58333" stroke-miterlimit="8" fill="#90ABC3"/><rect x="1859.5" y="1349.5" width="60.0001" height="60.9999" stroke="#181717" stroke-width="4.58333" stroke-miterlimit="8" fill="#D9C1CB"/><rect x="1978.5" y="1349.5" width="59.9998" height="60.9999" stroke="#181717" stroke-width="4.58333" stroke-miterlimit="8" fill="#CF7278"/><rect x="1800.5" y="1349.5" width="59.9998" height="60.9999" stroke="#181717" stroke-width="4.58333" stroke-miterlimit="8" fill="#DCDAE5"/><rect x="1919.5" y="1349.5" width="60.0001" height="60.9999" stroke="#181717" stroke-width="4.58333" stroke-miterlimit="8" fill="#CF747A"/><rect x="1741.5" y="1467.5" width="60.0001" height="60.0001" stroke="#181717" stroke-width="4.58333" stroke-miterlimit="8" fill="#D9C1CB"/><rect x="1859.5" y="1467.5" width="60.0001" height="60.0001" stroke="#181717" stroke-width="4.58333" stroke-miterlimit="8" fill="#CF7278"/><rect x="1978.5" y="1467.5" width="59.9998" height="60.0001" stroke="#181717" stroke-width="4.58333" stroke-miterlimit="8" fill="#C9474B"/><rect x="1800.5" y="1467.5" width="59.9998" height="60.0001" stroke="#181717" stroke-width="4.58333" stroke-miterlimit="8" fill="#CF747A"/><rect x="1919.5" y="1467.5" width="60.0001" height="60.0001" stroke="#181717" stroke-width="4.58333" stroke-miterlimit="8" fill="#CC5C61"/><path d="M0.00229164-1.14583 87.7003-0.970437 87.6957 1.32123-0.00229164 1.14583ZM83.1422-13.5837 110.615 0.221227 83.0872 13.9162Z" transform="matrix(1 0 0 -1 1631 1437.22)"/><path d="M1060.77 1218.15 1283.88 1421.58 1282.34 1423.27 1059.23 1219.85ZM1288.99 1409.18 1300.04 1437.87 1270.46 1429.5Z"/><path d="M1115 1091 1115 1355" stroke="#000000" stroke-width="2.29167" stroke-miterlimit="8" stroke-dasharray="9.16667 6.875" fill="none" fill-rule="evenodd"/><text font-family="Times New Roman,Times New Roman_MSFontService,sans-serif" font-weight="400" font-size="55" transform="matrix(1 0 0 1 1118.54 1242)">{or}</text></g></svg>