<?xml version="1.0" encoding="utf-8" standalone="no"?>
<!DOCTYPE svg PUBLIC "-//W3C//DTD SVG 1.1//EN"
  "http://www.w3.org/Graphics/SVG/1.1/DTD/svg11.dtd">
<!-- Created with matplotlib (https://matplotlib.org/) -->
<svg height="396pt" version="1.1" viewBox="0 0 1584 396" width="1584pt" xmlns="http://www.w3.org/2000/svg" xmlns:xlink="http://www.w3.org/1999/xlink">
 <metadata>
  <rdf:RDF xmlns:cc="http://creativecommons.org/ns#" xmlns:dc="http://purl.org/dc/elements/1.1/" xmlns:rdf="http://www.w3.org/1999/02/22-rdf-syntax-ns#">
   <cc:Work>
    <dc:type rdf:resource="http://purl.org/dc/dcmitype/StillImage"/>
    <dc:date>2021-10-13T17:08:28.304071</dc:date>
    <dc:format>image/svg+xml</dc:format>
    <dc:creator>
     <cc:Agent>
      <dc:title>Matplotlib v3.3.3, https://matplotlib.org/</dc:title>
     </cc:Agent>
    </dc:creator>
   </cc:Work>
  </rdf:RDF>
 </metadata>
 <defs>
  <style type="text/css">*{stroke-linecap:butt;stroke-linejoin:round;}</style>
 </defs>
 <g id="figure_1">
  <g id="patch_1">
   <path d="M 0 396 
L 1584 396 
L 1584 0 
L 0 0 
z
" style="fill:#ffffff;"/>
  </g>
  <g id="axes_1">
   <g id="patch_2">
    <path d="M 198 352.44 
L 644.4 352.44 
L 644.4 47.52 
L 198 47.52 
z
" style="fill:#ffffff;"/>
   </g>
   <g id="PathCollection_1">
    <path clip-path="url(#pe237a22968)" d="M 644.4 196.515 
L 644.4 199.98 
L 644.4 238.095 
L 644.4 276.21 
L 644.4 314.325 
L 644.4 352.44 
L 619.6 352.44 
L 594.8 352.44 
L 570 352.44 
L 545.2 352.44 
L 520.4 352.44 
L 495.6 352.44 
L 470.8 352.44 
L 446 352.44 
L 421.2 352.44 
L 414.537313 352.44 
L 421.2 347.608521 
L 446 333.820603 
L 470.8 324.501335 
L 495.6 317.702278 
L 520.4 315.054474 
L 527.013333 314.325 
L 545.2 311.915431 
L 570 306.984333 
L 594.8 298.34129 
L 619.6 276.21 
L 635.134066 238.095 
L 643.593496 199.98 
z
" style="fill:#31688e;"/>
   </g>
   <g id="PathCollection_2">
    <path clip-path="url(#pe237a22968)" d="M 470.8 47.52 
L 495.6 47.52 
L 520.4 47.52 
L 545.2 47.52 
L 555.8 47.52 
L 570 62.069274 
L 594.8 79.109475 
L 606.533333 85.635 
L 619.6 92.353112 
L 644.4 102.999713 
L 644.4 123.75 
L 644.4 161.865 
L 644.4 196.515 
L 643.593496 199.98 
L 635.134066 238.095 
L 619.6 276.21 
L 594.8 298.34129 
L 570 306.984333 
L 545.2 311.915431 
L 527.013333 314.325 
L 520.4 315.054474 
L 495.6 317.702278 
L 470.8 324.501335 
L 446 333.820603 
L 421.2 347.608521 
L 414.537313 352.44 
L 396.4 352.44 
L 371.6 352.44 
L 346.8 352.44 
L 322 352.44 
L 304.770526 352.44 
L 322 336.815217 
L 332.265795 314.325 
L 339.366757 276.21 
L 342.576634 238.095 
L 344.426148 199.98 
L 346.8 183.869536 
L 371.6 188.057773 
L 396.4 199.100423 
L 397.510448 199.98 
L 421.2 216.462162 
L 446 227.94481 
L 470.8 236.18925 
L 477.794872 238.095 
L 495.6 242.280176 
L 502.909474 238.095 
L 520.4 226.272292 
L 545.2 203.011875 
L 547.791045 199.98 
L 545.2 195.997836 
L 520.4 163.1025 
L 519.366667 161.865 
L 495.6 132.248615 
L 479.861538 123.75 
L 470.8 114.22125 
L 460.328889 85.635 
L 455.789474 47.52 
z
" style="fill:#26828e;"/>
   </g>
   <g id="PathCollection_3">
    <path clip-path="url(#pe237a22968)" d="M 346.8 67.934872 
L 362.238411 47.52 
L 371.6 47.52 
L 396.4 47.52 
L 421.2 47.52 
L 446 47.52 
L 455.789474 47.52 
L 460.328889 85.635 
L 470.8 114.22125 
L 479.861538 123.75 
L 495.6 132.248615 
L 519.366667 161.865 
L 520.4 163.1025 
L 545.2 195.997836 
L 547.791045 199.98 
L 545.2 203.011875 
L 520.4 226.272292 
L 502.909474 238.095 
L 495.6 242.280176 
L 477.794872 238.095 
L 470.8 236.18925 
L 446 227.94481 
L 421.2 216.462162 
L 397.510448 199.98 
L 396.4 199.100423 
L 371.6 188.057773 
L 346.8 183.869536 
L 344.426148 199.98 
L 342.576634 238.095 
L 339.366757 276.21 
L 332.265795 314.325 
L 322 336.815217 
L 304.770526 352.44 
L 297.2 352.44 
L 272.4 352.44 
L 247.6 352.44 
L 222.8 352.44 
L 198 352.44 
L 198 348.721463 
L 222.8 342.708511 
L 247.6 333.850579 
L 272.4 319.54443 
L 278.746667 314.325 
L 297.2 292.308656 
L 305.690392 276.21 
L 318.03787 238.095 
L 322 219.0375 
L 325.126537 199.98 
L 326.57098 161.865 
L 329.703542 123.75 
L 337.7566 85.635 
z
" style="fill:#1f9e89;"/>
    <path clip-path="url(#pe237a22968)" d="M 570 47.52 
L 594.8 47.52 
L 619.6 47.52 
L 644.4 47.52 
L 644.4 85.635 
L 644.4 102.999713 
L 619.6 92.353112 
L 606.533333 85.635 
L 594.8 79.109475 
L 570 62.069274 
L 555.8 47.52 
z
" style="fill:#1f9e89;"/>
   </g>
   <g id="PathCollection_4">
    <path clip-path="url(#pe237a22968)" d="M 297.2 47.52 
L 322 47.52 
L 346.8 47.52 
L 362.238411 47.52 
L 346.8 67.934872 
L 337.7566 85.635 
L 329.703542 123.75 
L 326.57098 161.865 
L 325.126537 199.98 
L 322 219.0375 
L 318.03787 238.095 
L 305.690392 276.21 
L 297.2 292.308656 
L 278.746667 314.325 
L 272.4 319.54443 
L 247.6 333.850579 
L 222.8 342.708511 
L 198 348.721463 
L 198 326.04746 
L 222.8 315.676596 
L 225.460944 314.325 
L 247.6 300.525313 
L 272.132254 276.21 
L 272.4 275.861918 
L 293.587402 238.095 
L 297.2 228.708943 
L 305.902091 199.98 
L 302.636923 161.865 
L 297.734347 123.75 
L 297.2 120.39272 
L 289.802034 85.635 
L 275.406061 47.52 
z
" style="fill:#35b779;"/>
   </g>
   <g id="PathCollection_5">
    <path clip-path="url(#pe237a22968)" d="M 222.8 47.52 
L 247.6 47.52 
L 272.4 47.52 
L 275.406061 47.52 
L 289.802034 85.635 
L 297.2 120.39272 
L 297.734347 123.75 
L 302.636923 161.865 
L 305.902091 199.98 
L 297.2 228.708943 
L 293.587402 238.095 
L 272.4 275.861918 
L 272.132254 276.21 
L 247.6 300.525313 
L 225.460944 314.325 
L 222.8 315.676596 
L 198 326.04746 
L 198 314.325 
L 198 281.016488 
L 205.162213 276.21 
L 222.8 262.133893 
L 244.768504 238.095 
L 247.6 234.257031 
L 267.486068 199.98 
L 255.219847 161.865 
L 247.6 143.682733 
L 236.988606 123.75 
L 222.8 101.429553 
L 209.937888 85.635 
L 198 70.389 
L 198 47.52 
z
" style="fill:#6ece58;"/>
   </g>
   <g id="PathCollection_6">
    <path clip-path="url(#pe237a22968)" d="M 209.937888 85.635 
L 222.8 101.429553 
L 236.988606 123.75 
L 247.6 143.682733 
L 255.219847 161.865 
L 267.486068 199.98 
L 247.6 234.257031 
L 244.768504 238.095 
L 222.8 262.133893 
L 205.162213 276.21 
L 198 281.016488 
L 198 276.21 
L 198 238.095 
L 198 236.214988 
L 222.8 208.714131 
L 229.081642 199.98 
L 222.8 186.942756 
L 207.943619 161.865 
L 198 147.537844 
L 198 123.75 
L 198 85.635 
L 198 70.389 
z
" style="fill:#b5de2b;"/>
   </g>
   <g id="PathCollection_7">
    <path clip-path="url(#pe237a22968)" d="M 207.943619 161.865 
L 222.8 186.942756 
L 229.081642 199.98 
L 222.8 208.714131 
L 198 236.214988 
L 198 199.98 
L 198 161.865 
L 198 147.537844 
z
" style="fill:#fde725;"/>
   </g>
   <g id="matplotlib.axis_1">
    <g id="xtick_1">
     <g id="line2d_1">
      <defs>
       <path d="M 0 0 
L 0 3.5 
" id="m2a7aded0f6" style="stroke:#000000;stroke-width:0.8;"/>
      </defs>
      <g>
       <use style="stroke:#000000;stroke-width:0.8;" x="198" xlink:href="#m2a7aded0f6" y="352.44"/>
      </g>
     </g>
     <g id="text_1">
      <!-- 0 -->
      <g transform="translate(192.27375 373.117188)scale(0.18 -0.18)">
       <defs>
        <path d="M 31.78125 66.40625 
Q 24.171875 66.40625 20.328125 58.90625 
Q 16.5 51.421875 16.5 36.375 
Q 16.5 21.390625 20.328125 13.890625 
Q 24.171875 6.390625 31.78125 6.390625 
Q 39.453125 6.390625 43.28125 13.890625 
Q 47.125 21.390625 47.125 36.375 
Q 47.125 51.421875 43.28125 58.90625 
Q 39.453125 66.40625 31.78125 66.40625 
z
M 31.78125 74.21875 
Q 44.046875 74.21875 50.515625 64.515625 
Q 56.984375 54.828125 56.984375 36.375 
Q 56.984375 17.96875 50.515625 8.265625 
Q 44.046875 -1.421875 31.78125 -1.421875 
Q 19.53125 -1.421875 13.0625 8.265625 
Q 6.59375 17.96875 6.59375 36.375 
Q 6.59375 54.828125 13.0625 64.515625 
Q 19.53125 74.21875 31.78125 74.21875 
z
" id="DejaVuSans-48"/>
       </defs>
       <use xlink:href="#DejaVuSans-48"/>
      </g>
     </g>
    </g>
    <g id="xtick_2">
     <g id="line2d_2">
      <g>
       <use style="stroke:#000000;stroke-width:0.8;" x="247.6" xlink:href="#m2a7aded0f6" y="352.44"/>
      </g>
     </g>
     <g id="text_2">
      <!-- 10 -->
      <g transform="translate(236.1475 373.117188)scale(0.18 -0.18)">
       <defs>
        <path d="M 12.40625 8.296875 
L 28.515625 8.296875 
L 28.515625 63.921875 
L 10.984375 60.40625 
L 10.984375 69.390625 
L 28.421875 72.90625 
L 38.28125 72.90625 
L 38.28125 8.296875 
L 54.390625 8.296875 
L 54.390625 0 
L 12.40625 0 
z
" id="DejaVuSans-49"/>
       </defs>
       <use xlink:href="#DejaVuSans-49"/>
       <use x="63.623047" xlink:href="#DejaVuSans-48"/>
      </g>
     </g>
    </g>
    <g id="xtick_3">
     <g id="line2d_3">
      <g>
       <use style="stroke:#000000;stroke-width:0.8;" x="297.2" xlink:href="#m2a7aded0f6" y="352.44"/>
      </g>
     </g>
     <g id="text_3">
      <!-- 20 -->
      <g transform="translate(285.7475 373.117188)scale(0.18 -0.18)">
       <defs>
        <path d="M 19.1875 8.296875 
L 53.609375 8.296875 
L 53.609375 0 
L 7.328125 0 
L 7.328125 8.296875 
Q 12.9375 14.109375 22.625 23.890625 
Q 32.328125 33.6875 34.8125 36.53125 
Q 39.546875 41.84375 41.421875 45.53125 
Q 43.3125 49.21875 43.3125 52.78125 
Q 43.3125 58.59375 39.234375 62.25 
Q 35.15625 65.921875 28.609375 65.921875 
Q 23.96875 65.921875 18.8125 64.3125 
Q 13.671875 62.703125 7.8125 59.421875 
L 7.8125 69.390625 
Q 13.765625 71.78125 18.9375 73 
Q 24.125 74.21875 28.421875 74.21875 
Q 39.75 74.21875 46.484375 68.546875 
Q 53.21875 62.890625 53.21875 53.421875 
Q 53.21875 48.921875 51.53125 44.890625 
Q 49.859375 40.875 45.40625 35.40625 
Q 44.1875 33.984375 37.640625 27.21875 
Q 31.109375 20.453125 19.1875 8.296875 
z
" id="DejaVuSans-50"/>
       </defs>
       <use xlink:href="#DejaVuSans-50"/>
       <use x="63.623047" xlink:href="#DejaVuSans-48"/>
      </g>
     </g>
    </g>
    <g id="xtick_4">
     <g id="line2d_4">
      <g>
       <use style="stroke:#000000;stroke-width:0.8;" x="346.8" xlink:href="#m2a7aded0f6" y="352.44"/>
      </g>
     </g>
     <g id="text_4">
      <!-- 30 -->
      <g transform="translate(335.3475 373.117188)scale(0.18 -0.18)">
       <defs>
        <path d="M 40.578125 39.3125 
Q 47.65625 37.796875 51.625 33 
Q 55.609375 28.21875 55.609375 21.1875 
Q 55.609375 10.40625 48.1875 4.484375 
Q 40.765625 -1.421875 27.09375 -1.421875 
Q 22.515625 -1.421875 17.65625 -0.515625 
Q 12.796875 0.390625 7.625 2.203125 
L 7.625 11.71875 
Q 11.71875 9.328125 16.59375 8.109375 
Q 21.484375 6.890625 26.8125 6.890625 
Q 36.078125 6.890625 40.9375 10.546875 
Q 45.796875 14.203125 45.796875 21.1875 
Q 45.796875 27.640625 41.28125 31.265625 
Q 36.765625 34.90625 28.71875 34.90625 
L 20.21875 34.90625 
L 20.21875 43.015625 
L 29.109375 43.015625 
Q 36.375 43.015625 40.234375 45.921875 
Q 44.09375 48.828125 44.09375 54.296875 
Q 44.09375 59.90625 40.109375 62.90625 
Q 36.140625 65.921875 28.71875 65.921875 
Q 24.65625 65.921875 20.015625 65.03125 
Q 15.375 64.15625 9.8125 62.3125 
L 9.8125 71.09375 
Q 15.4375 72.65625 20.34375 73.4375 
Q 25.25 74.21875 29.59375 74.21875 
Q 40.828125 74.21875 47.359375 69.109375 
Q 53.90625 64.015625 53.90625 55.328125 
Q 53.90625 49.265625 50.4375 45.09375 
Q 46.96875 40.921875 40.578125 39.3125 
z
" id="DejaVuSans-51"/>
       </defs>
       <use xlink:href="#DejaVuSans-51"/>
       <use x="63.623047" xlink:href="#DejaVuSans-48"/>
      </g>
     </g>
    </g>
    <g id="xtick_5">
     <g id="line2d_5">
      <g>
       <use style="stroke:#000000;stroke-width:0.8;" x="396.4" xlink:href="#m2a7aded0f6" y="352.44"/>
      </g>
     </g>
     <g id="text_5">
      <!-- 40 -->
      <g transform="translate(384.9475 373.117188)scale(0.18 -0.18)">
       <defs>
        <path d="M 37.796875 64.3125 
L 12.890625 25.390625 
L 37.796875 25.390625 
z
M 35.203125 72.90625 
L 47.609375 72.90625 
L 47.609375 25.390625 
L 58.015625 25.390625 
L 58.015625 17.1875 
L 47.609375 17.1875 
L 47.609375 0 
L 37.796875 0 
L 37.796875 17.1875 
L 4.890625 17.1875 
L 4.890625 26.703125 
z
" id="DejaVuSans-52"/>
       </defs>
       <use xlink:href="#DejaVuSans-52"/>
       <use x="63.623047" xlink:href="#DejaVuSans-48"/>
      </g>
     </g>
    </g>
    <g id="xtick_6">
     <g id="line2d_6">
      <g>
       <use style="stroke:#000000;stroke-width:0.8;" x="446" xlink:href="#m2a7aded0f6" y="352.44"/>
      </g>
     </g>
     <g id="text_6">
      <!-- 50 -->
      <g transform="translate(434.5475 373.117188)scale(0.18 -0.18)">
       <defs>
        <path d="M 10.796875 72.90625 
L 49.515625 72.90625 
L 49.515625 64.59375 
L 19.828125 64.59375 
L 19.828125 46.734375 
Q 21.96875 47.46875 24.109375 47.828125 
Q 26.265625 48.1875 28.421875 48.1875 
Q 40.625 48.1875 47.75 41.5 
Q 54.890625 34.8125 54.890625 23.390625 
Q 54.890625 11.625 47.5625 5.09375 
Q 40.234375 -1.421875 26.90625 -1.421875 
Q 22.3125 -1.421875 17.546875 -0.640625 
Q 12.796875 0.140625 7.71875 1.703125 
L 7.71875 11.625 
Q 12.109375 9.234375 16.796875 8.0625 
Q 21.484375 6.890625 26.703125 6.890625 
Q 35.15625 6.890625 40.078125 11.328125 
Q 45.015625 15.765625 45.015625 23.390625 
Q 45.015625 31 40.078125 35.4375 
Q 35.15625 39.890625 26.703125 39.890625 
Q 22.75 39.890625 18.8125 39.015625 
Q 14.890625 38.140625 10.796875 36.28125 
z
" id="DejaVuSans-53"/>
       </defs>
       <use xlink:href="#DejaVuSans-53"/>
       <use x="63.623047" xlink:href="#DejaVuSans-48"/>
      </g>
     </g>
    </g>
    <g id="xtick_7">
     <g id="line2d_7">
      <g>
       <use style="stroke:#000000;stroke-width:0.8;" x="495.6" xlink:href="#m2a7aded0f6" y="352.44"/>
      </g>
     </g>
     <g id="text_7">
      <!-- 60 -->
      <g transform="translate(484.1475 373.117188)scale(0.18 -0.18)">
       <defs>
        <path d="M 33.015625 40.375 
Q 26.375 40.375 22.484375 35.828125 
Q 18.609375 31.296875 18.609375 23.390625 
Q 18.609375 15.53125 22.484375 10.953125 
Q 26.375 6.390625 33.015625 6.390625 
Q 39.65625 6.390625 43.53125 10.953125 
Q 47.40625 15.53125 47.40625 23.390625 
Q 47.40625 31.296875 43.53125 35.828125 
Q 39.65625 40.375 33.015625 40.375 
z
M 52.59375 71.296875 
L 52.59375 62.3125 
Q 48.875 64.0625 45.09375 64.984375 
Q 41.3125 65.921875 37.59375 65.921875 
Q 27.828125 65.921875 22.671875 59.328125 
Q 17.53125 52.734375 16.796875 39.40625 
Q 19.671875 43.65625 24.015625 45.921875 
Q 28.375 48.1875 33.59375 48.1875 
Q 44.578125 48.1875 50.953125 41.515625 
Q 57.328125 34.859375 57.328125 23.390625 
Q 57.328125 12.15625 50.6875 5.359375 
Q 44.046875 -1.421875 33.015625 -1.421875 
Q 20.359375 -1.421875 13.671875 8.265625 
Q 6.984375 17.96875 6.984375 36.375 
Q 6.984375 53.65625 15.1875 63.9375 
Q 23.390625 74.21875 37.203125 74.21875 
Q 40.921875 74.21875 44.703125 73.484375 
Q 48.484375 72.75 52.59375 71.296875 
z
" id="DejaVuSans-54"/>
       </defs>
       <use xlink:href="#DejaVuSans-54"/>
       <use x="63.623047" xlink:href="#DejaVuSans-48"/>
      </g>
     </g>
    </g>
    <g id="xtick_8">
     <g id="line2d_8">
      <g>
       <use style="stroke:#000000;stroke-width:0.8;" x="545.2" xlink:href="#m2a7aded0f6" y="352.44"/>
      </g>
     </g>
     <g id="text_8">
      <!-- 70 -->
      <g transform="translate(533.7475 373.117188)scale(0.18 -0.18)">
       <defs>
        <path d="M 8.203125 72.90625 
L 55.078125 72.90625 
L 55.078125 68.703125 
L 28.609375 0 
L 18.3125 0 
L 43.21875 64.59375 
L 8.203125 64.59375 
z
" id="DejaVuSans-55"/>
       </defs>
       <use xlink:href="#DejaVuSans-55"/>
       <use x="63.623047" xlink:href="#DejaVuSans-48"/>
      </g>
     </g>
    </g>
    <g id="xtick_9">
     <g id="line2d_9">
      <g>
       <use style="stroke:#000000;stroke-width:0.8;" x="594.8" xlink:href="#m2a7aded0f6" y="352.44"/>
      </g>
     </g>
     <g id="text_9">
      <!-- 80 -->
      <g transform="translate(583.3475 373.117188)scale(0.18 -0.18)">
       <defs>
        <path d="M 31.78125 34.625 
Q 24.75 34.625 20.71875 30.859375 
Q 16.703125 27.09375 16.703125 20.515625 
Q 16.703125 13.921875 20.71875 10.15625 
Q 24.75 6.390625 31.78125 6.390625 
Q 38.8125 6.390625 42.859375 10.171875 
Q 46.921875 13.96875 46.921875 20.515625 
Q 46.921875 27.09375 42.890625 30.859375 
Q 38.875 34.625 31.78125 34.625 
z
M 21.921875 38.8125 
Q 15.578125 40.375 12.03125 44.71875 
Q 8.5 49.078125 8.5 55.328125 
Q 8.5 64.0625 14.71875 69.140625 
Q 20.953125 74.21875 31.78125 74.21875 
Q 42.671875 74.21875 48.875 69.140625 
Q 55.078125 64.0625 55.078125 55.328125 
Q 55.078125 49.078125 51.53125 44.71875 
Q 48 40.375 41.703125 38.8125 
Q 48.828125 37.15625 52.796875 32.3125 
Q 56.78125 27.484375 56.78125 20.515625 
Q 56.78125 9.90625 50.3125 4.234375 
Q 43.84375 -1.421875 31.78125 -1.421875 
Q 19.734375 -1.421875 13.25 4.234375 
Q 6.78125 9.90625 6.78125 20.515625 
Q 6.78125 27.484375 10.78125 32.3125 
Q 14.796875 37.15625 21.921875 38.8125 
z
M 18.3125 54.390625 
Q 18.3125 48.734375 21.84375 45.5625 
Q 25.390625 42.390625 31.78125 42.390625 
Q 38.140625 42.390625 41.71875 45.5625 
Q 45.3125 48.734375 45.3125 54.390625 
Q 45.3125 60.0625 41.71875 63.234375 
Q 38.140625 66.40625 31.78125 66.40625 
Q 25.390625 66.40625 21.84375 63.234375 
Q 18.3125 60.0625 18.3125 54.390625 
z
" id="DejaVuSans-56"/>
       </defs>
       <use xlink:href="#DejaVuSans-56"/>
       <use x="63.623047" xlink:href="#DejaVuSans-48"/>
      </g>
     </g>
    </g>
    <g id="xtick_10">
     <g id="line2d_10">
      <g>
       <use style="stroke:#000000;stroke-width:0.8;" x="644.4" xlink:href="#m2a7aded0f6" y="352.44"/>
      </g>
     </g>
     <g id="text_10">
      <!-- 90 -->
      <g transform="translate(632.9475 373.117188)scale(0.18 -0.18)">
       <defs>
        <path d="M 10.984375 1.515625 
L 10.984375 10.5 
Q 14.703125 8.734375 18.5 7.8125 
Q 22.3125 6.890625 25.984375 6.890625 
Q 35.75 6.890625 40.890625 13.453125 
Q 46.046875 20.015625 46.78125 33.40625 
Q 43.953125 29.203125 39.59375 26.953125 
Q 35.25 24.703125 29.984375 24.703125 
Q 19.046875 24.703125 12.671875 31.3125 
Q 6.296875 37.9375 6.296875 49.421875 
Q 6.296875 60.640625 12.9375 67.421875 
Q 19.578125 74.21875 30.609375 74.21875 
Q 43.265625 74.21875 49.921875 64.515625 
Q 56.59375 54.828125 56.59375 36.375 
Q 56.59375 19.140625 48.40625 8.859375 
Q 40.234375 -1.421875 26.421875 -1.421875 
Q 22.703125 -1.421875 18.890625 -0.6875 
Q 15.09375 0.046875 10.984375 1.515625 
z
M 30.609375 32.421875 
Q 37.25 32.421875 41.125 36.953125 
Q 45.015625 41.5 45.015625 49.421875 
Q 45.015625 57.28125 41.125 61.84375 
Q 37.25 66.40625 30.609375 66.40625 
Q 23.96875 66.40625 20.09375 61.84375 
Q 16.21875 57.28125 16.21875 49.421875 
Q 16.21875 41.5 20.09375 36.953125 
Q 23.96875 32.421875 30.609375 32.421875 
z
" id="DejaVuSans-57"/>
       </defs>
       <use xlink:href="#DejaVuSans-57"/>
       <use x="63.623047" xlink:href="#DejaVuSans-48"/>
      </g>
     </g>
    </g>
    <g id="text_11">
     <!-- Across the rows -->
     <g transform="translate(350.327812 400.537812)scale(0.18 -0.18)">
      <defs>
       <path d="M 34.1875 63.1875 
L 20.796875 26.90625 
L 47.609375 26.90625 
z
M 28.609375 72.90625 
L 39.796875 72.90625 
L 67.578125 0 
L 57.328125 0 
L 50.6875 18.703125 
L 17.828125 18.703125 
L 11.1875 0 
L 0.78125 0 
z
" id="DejaVuSans-65"/>
       <path d="M 48.78125 52.59375 
L 48.78125 44.1875 
Q 44.96875 46.296875 41.140625 47.34375 
Q 37.3125 48.390625 33.40625 48.390625 
Q 24.65625 48.390625 19.8125 42.84375 
Q 14.984375 37.3125 14.984375 27.296875 
Q 14.984375 17.28125 19.8125 11.734375 
Q 24.65625 6.203125 33.40625 6.203125 
Q 37.3125 6.203125 41.140625 7.25 
Q 44.96875 8.296875 48.78125 10.40625 
L 48.78125 2.09375 
Q 45.015625 0.34375 40.984375 -0.53125 
Q 36.96875 -1.421875 32.421875 -1.421875 
Q 20.0625 -1.421875 12.78125 6.34375 
Q 5.515625 14.109375 5.515625 27.296875 
Q 5.515625 40.671875 12.859375 48.328125 
Q 20.21875 56 33.015625 56 
Q 37.15625 56 41.109375 55.140625 
Q 45.0625 54.296875 48.78125 52.59375 
z
" id="DejaVuSans-99"/>
       <path d="M 41.109375 46.296875 
Q 39.59375 47.171875 37.8125 47.578125 
Q 36.03125 48 33.890625 48 
Q 26.265625 48 22.1875 43.046875 
Q 18.109375 38.09375 18.109375 28.8125 
L 18.109375 0 
L 9.078125 0 
L 9.078125 54.6875 
L 18.109375 54.6875 
L 18.109375 46.1875 
Q 20.953125 51.171875 25.484375 53.578125 
Q 30.03125 56 36.53125 56 
Q 37.453125 56 38.578125 55.875 
Q 39.703125 55.765625 41.0625 55.515625 
z
" id="DejaVuSans-114"/>
       <path d="M 30.609375 48.390625 
Q 23.390625 48.390625 19.1875 42.75 
Q 14.984375 37.109375 14.984375 27.296875 
Q 14.984375 17.484375 19.15625 11.84375 
Q 23.34375 6.203125 30.609375 6.203125 
Q 37.796875 6.203125 41.984375 11.859375 
Q 46.1875 17.53125 46.1875 27.296875 
Q 46.1875 37.015625 41.984375 42.703125 
Q 37.796875 48.390625 30.609375 48.390625 
z
M 30.609375 56 
Q 42.328125 56 49.015625 48.375 
Q 55.71875 40.765625 55.71875 27.296875 
Q 55.71875 13.875 49.015625 6.21875 
Q 42.328125 -1.421875 30.609375 -1.421875 
Q 18.84375 -1.421875 12.171875 6.21875 
Q 5.515625 13.875 5.515625 27.296875 
Q 5.515625 40.765625 12.171875 48.375 
Q 18.84375 56 30.609375 56 
z
" id="DejaVuSans-111"/>
       <path d="M 44.28125 53.078125 
L 44.28125 44.578125 
Q 40.484375 46.53125 36.375 47.5 
Q 32.28125 48.484375 27.875 48.484375 
Q 21.1875 48.484375 17.84375 46.4375 
Q 14.5 44.390625 14.5 40.28125 
Q 14.5 37.15625 16.890625 35.375 
Q 19.28125 33.59375 26.515625 31.984375 
L 29.59375 31.296875 
Q 39.15625 29.25 43.1875 25.515625 
Q 47.21875 21.78125 47.21875 15.09375 
Q 47.21875 7.46875 41.1875 3.015625 
Q 35.15625 -1.421875 24.609375 -1.421875 
Q 20.21875 -1.421875 15.453125 -0.5625 
Q 10.6875 0.296875 5.421875 2 
L 5.421875 11.28125 
Q 10.40625 8.6875 15.234375 7.390625 
Q 20.0625 6.109375 24.8125 6.109375 
Q 31.15625 6.109375 34.5625 8.28125 
Q 37.984375 10.453125 37.984375 14.40625 
Q 37.984375 18.0625 35.515625 20.015625 
Q 33.0625 21.96875 24.703125 23.78125 
L 21.578125 24.515625 
Q 13.234375 26.265625 9.515625 29.90625 
Q 5.8125 33.546875 5.8125 39.890625 
Q 5.8125 47.609375 11.28125 51.796875 
Q 16.75 56 26.8125 56 
Q 31.78125 56 36.171875 55.265625 
Q 40.578125 54.546875 44.28125 53.078125 
z
" id="DejaVuSans-115"/>
       <path id="DejaVuSans-32"/>
       <path d="M 18.3125 70.21875 
L 18.3125 54.6875 
L 36.8125 54.6875 
L 36.8125 47.703125 
L 18.3125 47.703125 
L 18.3125 18.015625 
Q 18.3125 11.328125 20.140625 9.421875 
Q 21.96875 7.515625 27.59375 7.515625 
L 36.8125 7.515625 
L 36.8125 0 
L 27.59375 0 
Q 17.1875 0 13.234375 3.875 
Q 9.28125 7.765625 9.28125 18.015625 
L 9.28125 47.703125 
L 2.6875 47.703125 
L 2.6875 54.6875 
L 9.28125 54.6875 
L 9.28125 70.21875 
z
" id="DejaVuSans-116"/>
       <path d="M 54.890625 33.015625 
L 54.890625 0 
L 45.90625 0 
L 45.90625 32.71875 
Q 45.90625 40.484375 42.875 44.328125 
Q 39.84375 48.1875 33.796875 48.1875 
Q 26.515625 48.1875 22.3125 43.546875 
Q 18.109375 38.921875 18.109375 30.90625 
L 18.109375 0 
L 9.078125 0 
L 9.078125 75.984375 
L 18.109375 75.984375 
L 18.109375 46.1875 
Q 21.34375 51.125 25.703125 53.5625 
Q 30.078125 56 35.796875 56 
Q 45.21875 56 50.046875 50.171875 
Q 54.890625 44.34375 54.890625 33.015625 
z
" id="DejaVuSans-104"/>
       <path d="M 56.203125 29.59375 
L 56.203125 25.203125 
L 14.890625 25.203125 
Q 15.484375 15.921875 20.484375 11.0625 
Q 25.484375 6.203125 34.421875 6.203125 
Q 39.59375 6.203125 44.453125 7.46875 
Q 49.3125 8.734375 54.109375 11.28125 
L 54.109375 2.78125 
Q 49.265625 0.734375 44.1875 -0.34375 
Q 39.109375 -1.421875 33.890625 -1.421875 
Q 20.796875 -1.421875 13.15625 6.1875 
Q 5.515625 13.8125 5.515625 26.8125 
Q 5.515625 40.234375 12.765625 48.109375 
Q 20.015625 56 32.328125 56 
Q 43.359375 56 49.78125 48.890625 
Q 56.203125 41.796875 56.203125 29.59375 
z
M 47.21875 32.234375 
Q 47.125 39.59375 43.09375 43.984375 
Q 39.0625 48.390625 32.421875 48.390625 
Q 24.90625 48.390625 20.390625 44.140625 
Q 15.875 39.890625 15.1875 32.171875 
z
" id="DejaVuSans-101"/>
       <path d="M 4.203125 54.6875 
L 13.1875 54.6875 
L 24.421875 12.015625 
L 35.59375 54.6875 
L 46.1875 54.6875 
L 57.421875 12.015625 
L 68.609375 54.6875 
L 77.59375 54.6875 
L 63.28125 0 
L 52.6875 0 
L 40.921875 44.828125 
L 29.109375 0 
L 18.5 0 
z
" id="DejaVuSans-119"/>
      </defs>
      <use xlink:href="#DejaVuSans-65"/>
      <use x="66.658203" xlink:href="#DejaVuSans-99"/>
      <use x="121.638672" xlink:href="#DejaVuSans-114"/>
      <use x="160.501953" xlink:href="#DejaVuSans-111"/>
      <use x="221.683594" xlink:href="#DejaVuSans-115"/>
      <use x="273.783203" xlink:href="#DejaVuSans-115"/>
      <use x="325.882812" xlink:href="#DejaVuSans-32"/>
      <use x="357.669922" xlink:href="#DejaVuSans-116"/>
      <use x="396.878906" xlink:href="#DejaVuSans-104"/>
      <use x="460.257812" xlink:href="#DejaVuSans-101"/>
      <use x="521.78125" xlink:href="#DejaVuSans-32"/>
      <use x="553.568359" xlink:href="#DejaVuSans-114"/>
      <use x="592.431641" xlink:href="#DejaVuSans-111"/>
      <use x="653.613281" xlink:href="#DejaVuSans-119"/>
      <use x="735.400391" xlink:href="#DejaVuSans-115"/>
     </g>
    </g>
   </g>
   <g id="matplotlib.axis_2">
    <g id="ytick_1">
     <g id="line2d_11">
      <defs>
       <path d="M 0 0 
L -3.5 0 
" id="m2075d5e3a6" style="stroke:#000000;stroke-width:0.8;"/>
      </defs>
      <g>
       <use style="stroke:#000000;stroke-width:0.8;" x="198" xlink:href="#m2075d5e3a6" y="352.44"/>
      </g>
     </g>
     <g id="text_12">
      <!-- −60 -->
      <g transform="translate(153.011562 359.278594)scale(0.18 -0.18)">
       <defs>
        <path d="M 10.59375 35.5 
L 73.1875 35.5 
L 73.1875 27.203125 
L 10.59375 27.203125 
z
" id="DejaVuSans-8722"/>
       </defs>
       <use xlink:href="#DejaVuSans-8722"/>
       <use x="83.789062" xlink:href="#DejaVuSans-54"/>
       <use x="147.412109" xlink:href="#DejaVuSans-48"/>
      </g>
     </g>
    </g>
    <g id="ytick_2">
     <g id="line2d_12">
      <g>
       <use style="stroke:#000000;stroke-width:0.8;" x="198" xlink:href="#m2075d5e3a6" y="314.325"/>
      </g>
     </g>
     <g id="text_13">
      <!-- −55 -->
      <g transform="translate(153.011562 321.163594)scale(0.18 -0.18)">
       <use xlink:href="#DejaVuSans-8722"/>
       <use x="83.789062" xlink:href="#DejaVuSans-53"/>
       <use x="147.412109" xlink:href="#DejaVuSans-53"/>
      </g>
     </g>
    </g>
    <g id="ytick_3">
     <g id="line2d_13">
      <g>
       <use style="stroke:#000000;stroke-width:0.8;" x="198" xlink:href="#m2075d5e3a6" y="276.21"/>
      </g>
     </g>
     <g id="text_14">
      <!-- −50 -->
      <g transform="translate(153.011562 283.048594)scale(0.18 -0.18)">
       <use xlink:href="#DejaVuSans-8722"/>
       <use x="83.789062" xlink:href="#DejaVuSans-53"/>
       <use x="147.412109" xlink:href="#DejaVuSans-48"/>
      </g>
     </g>
    </g>
    <g id="ytick_4">
     <g id="line2d_14">
      <g>
       <use style="stroke:#000000;stroke-width:0.8;" x="198" xlink:href="#m2075d5e3a6" y="238.095"/>
      </g>
     </g>
     <g id="text_15">
      <!-- −45 -->
      <g transform="translate(153.011562 244.933594)scale(0.18 -0.18)">
       <use xlink:href="#DejaVuSans-8722"/>
       <use x="83.789062" xlink:href="#DejaVuSans-52"/>
       <use x="147.412109" xlink:href="#DejaVuSans-53"/>
      </g>
     </g>
    </g>
    <g id="ytick_5">
     <g id="line2d_15">
      <g>
       <use style="stroke:#000000;stroke-width:0.8;" x="198" xlink:href="#m2075d5e3a6" y="199.98"/>
      </g>
     </g>
     <g id="text_16">
      <!-- −40 -->
      <g transform="translate(153.011562 206.818594)scale(0.18 -0.18)">
       <use xlink:href="#DejaVuSans-8722"/>
       <use x="83.789062" xlink:href="#DejaVuSans-52"/>
       <use x="147.412109" xlink:href="#DejaVuSans-48"/>
      </g>
     </g>
    </g>
    <g id="ytick_6">
     <g id="line2d_16">
      <g>
       <use style="stroke:#000000;stroke-width:0.8;" x="198" xlink:href="#m2075d5e3a6" y="161.865"/>
      </g>
     </g>
     <g id="text_17">
      <!-- −35 -->
      <g transform="translate(153.011562 168.703594)scale(0.18 -0.18)">
       <use xlink:href="#DejaVuSans-8722"/>
       <use x="83.789062" xlink:href="#DejaVuSans-51"/>
       <use x="147.412109" xlink:href="#DejaVuSans-53"/>
      </g>
     </g>
    </g>
    <g id="ytick_7">
     <g id="line2d_17">
      <g>
       <use style="stroke:#000000;stroke-width:0.8;" x="198" xlink:href="#m2075d5e3a6" y="123.75"/>
      </g>
     </g>
     <g id="text_18">
      <!-- −30 -->
      <g transform="translate(153.011562 130.588594)scale(0.18 -0.18)">
       <use xlink:href="#DejaVuSans-8722"/>
       <use x="83.789062" xlink:href="#DejaVuSans-51"/>
       <use x="147.412109" xlink:href="#DejaVuSans-48"/>
      </g>
     </g>
    </g>
    <g id="ytick_8">
     <g id="line2d_18">
      <g>
       <use style="stroke:#000000;stroke-width:0.8;" x="198" xlink:href="#m2075d5e3a6" y="85.635"/>
      </g>
     </g>
     <g id="text_19">
      <!-- −25 -->
      <g transform="translate(153.011562 92.473594)scale(0.18 -0.18)">
       <use xlink:href="#DejaVuSans-8722"/>
       <use x="83.789062" xlink:href="#DejaVuSans-50"/>
       <use x="147.412109" xlink:href="#DejaVuSans-53"/>
      </g>
     </g>
    </g>
    <g id="ytick_9">
     <g id="line2d_19">
      <g>
       <use style="stroke:#000000;stroke-width:0.8;" x="198" xlink:href="#m2075d5e3a6" y="47.52"/>
      </g>
     </g>
     <g id="text_20">
      <!-- −20 -->
      <g transform="translate(153.011562 54.358594)scale(0.18 -0.18)">
       <use xlink:href="#DejaVuSans-8722"/>
       <use x="83.789062" xlink:href="#DejaVuSans-50"/>
       <use x="147.412109" xlink:href="#DejaVuSans-48"/>
      </g>
     </g>
    </g>
    <g id="text_21">
     <!-- Depth -->
     <g transform="translate(139.268125 227.393438)rotate(-90)scale(0.18 -0.18)">
      <defs>
       <path d="M 19.671875 64.796875 
L 19.671875 8.109375 
L 31.59375 8.109375 
Q 46.6875 8.109375 53.6875 14.9375 
Q 60.6875 21.78125 60.6875 36.53125 
Q 60.6875 51.171875 53.6875 57.984375 
Q 46.6875 64.796875 31.59375 64.796875 
z
M 9.8125 72.90625 
L 30.078125 72.90625 
Q 51.265625 72.90625 61.171875 64.09375 
Q 71.09375 55.28125 71.09375 36.53125 
Q 71.09375 17.671875 61.125 8.828125 
Q 51.171875 0 30.078125 0 
L 9.8125 0 
z
" id="DejaVuSans-68"/>
       <path d="M 18.109375 8.203125 
L 18.109375 -20.796875 
L 9.078125 -20.796875 
L 9.078125 54.6875 
L 18.109375 54.6875 
L 18.109375 46.390625 
Q 20.953125 51.265625 25.265625 53.625 
Q 29.59375 56 35.59375 56 
Q 45.5625 56 51.78125 48.09375 
Q 58.015625 40.1875 58.015625 27.296875 
Q 58.015625 14.40625 51.78125 6.484375 
Q 45.5625 -1.421875 35.59375 -1.421875 
Q 29.59375 -1.421875 25.265625 0.953125 
Q 20.953125 3.328125 18.109375 8.203125 
z
M 48.6875 27.296875 
Q 48.6875 37.203125 44.609375 42.84375 
Q 40.53125 48.484375 33.40625 48.484375 
Q 26.265625 48.484375 22.1875 42.84375 
Q 18.109375 37.203125 18.109375 27.296875 
Q 18.109375 17.390625 22.1875 11.75 
Q 26.265625 6.109375 33.40625 6.109375 
Q 40.53125 6.109375 44.609375 11.75 
Q 48.6875 17.390625 48.6875 27.296875 
z
" id="DejaVuSans-112"/>
      </defs>
      <use xlink:href="#DejaVuSans-68"/>
      <use x="77.001953" xlink:href="#DejaVuSans-101"/>
      <use x="138.525391" xlink:href="#DejaVuSans-112"/>
      <use x="202.001953" xlink:href="#DejaVuSans-116"/>
      <use x="241.210938" xlink:href="#DejaVuSans-104"/>
     </g>
    </g>
   </g>
   <g id="patch_3">
    <path d="M 198 352.44 
L 198 47.52 
" style="fill:none;stroke:#000000;stroke-linecap:square;stroke-linejoin:miter;stroke-width:0.8;"/>
   </g>
   <g id="patch_4">
    <path d="M 644.4 352.44 
L 644.4 47.52 
" style="fill:none;stroke:#000000;stroke-linecap:square;stroke-linejoin:miter;stroke-width:0.8;"/>
   </g>
   <g id="patch_5">
    <path d="M 198 352.44 
L 644.4 352.44 
" style="fill:none;stroke:#000000;stroke-linecap:square;stroke-linejoin:miter;stroke-width:0.8;"/>
   </g>
   <g id="patch_6">
    <path d="M 198 47.52 
L 644.4 47.52 
" style="fill:none;stroke:#000000;stroke-linecap:square;stroke-linejoin:miter;stroke-width:0.8;"/>
   </g>
   <g id="text_22">
    <!-- Variance -->
    <g transform="translate(382.32 22.52)scale(0.18 -0.18)">
     <defs>
      <path d="M 28.609375 0 
L 0.78125 72.90625 
L 11.078125 72.90625 
L 34.1875 11.53125 
L 57.328125 72.90625 
L 67.578125 72.90625 
L 39.796875 0 
z
" id="DejaVuSans-86"/>
      <path d="M 34.28125 27.484375 
Q 23.390625 27.484375 19.1875 25 
Q 14.984375 22.515625 14.984375 16.5 
Q 14.984375 11.71875 18.140625 8.90625 
Q 21.296875 6.109375 26.703125 6.109375 
Q 34.1875 6.109375 38.703125 11.40625 
Q 43.21875 16.703125 43.21875 25.484375 
L 43.21875 27.484375 
z
M 52.203125 31.203125 
L 52.203125 0 
L 43.21875 0 
L 43.21875 8.296875 
Q 40.140625 3.328125 35.546875 0.953125 
Q 30.953125 -1.421875 24.3125 -1.421875 
Q 15.921875 -1.421875 10.953125 3.296875 
Q 6 8.015625 6 15.921875 
Q 6 25.140625 12.171875 29.828125 
Q 18.359375 34.515625 30.609375 34.515625 
L 43.21875 34.515625 
L 43.21875 35.40625 
Q 43.21875 41.609375 39.140625 45 
Q 35.0625 48.390625 27.6875 48.390625 
Q 23 48.390625 18.546875 47.265625 
Q 14.109375 46.140625 10.015625 43.890625 
L 10.015625 52.203125 
Q 14.9375 54.109375 19.578125 55.046875 
Q 24.21875 56 28.609375 56 
Q 40.484375 56 46.34375 49.84375 
Q 52.203125 43.703125 52.203125 31.203125 
z
" id="DejaVuSans-97"/>
      <path d="M 9.421875 54.6875 
L 18.40625 54.6875 
L 18.40625 0 
L 9.421875 0 
z
M 9.421875 75.984375 
L 18.40625 75.984375 
L 18.40625 64.59375 
L 9.421875 64.59375 
z
" id="DejaVuSans-105"/>
      <path d="M 54.890625 33.015625 
L 54.890625 0 
L 45.90625 0 
L 45.90625 32.71875 
Q 45.90625 40.484375 42.875 44.328125 
Q 39.84375 48.1875 33.796875 48.1875 
Q 26.515625 48.1875 22.3125 43.546875 
Q 18.109375 38.921875 18.109375 30.90625 
L 18.109375 0 
L 9.078125 0 
L 9.078125 54.6875 
L 18.109375 54.6875 
L 18.109375 46.1875 
Q 21.34375 51.125 25.703125 53.5625 
Q 30.078125 56 35.796875 56 
Q 45.21875 56 50.046875 50.171875 
Q 54.890625 44.34375 54.890625 33.015625 
z
" id="DejaVuSans-110"/>
     </defs>
     <use xlink:href="#DejaVuSans-86"/>
     <use x="60.658203" xlink:href="#DejaVuSans-97"/>
     <use x="121.9375" xlink:href="#DejaVuSans-114"/>
     <use x="163.050781" xlink:href="#DejaVuSans-105"/>
     <use x="190.833984" xlink:href="#DejaVuSans-97"/>
     <use x="252.113281" xlink:href="#DejaVuSans-110"/>
     <use x="315.492188" xlink:href="#DejaVuSans-99"/>
     <use x="370.472656" xlink:href="#DejaVuSans-101"/>
    </g>
   </g>
  </g>
  <g id="axes_2">
   <g id="patch_7">
    <path d="M 867.6 352.44 
L 1314 352.44 
L 1314 47.52 
L 867.6 47.52 
z
" style="fill:#ffffff;"/>
   </g>
   <g id="PathCollection_8"/>
   <g id="PathCollection_9">
    <path clip-path="url(#pe1d31b00c4)" d="M 1314 47.52 
L 1314 59.518706 
L 1298.606622 47.52 
z
" style="fill:#800000;"/>
   </g>
   <g id="PathCollection_10">
    <path clip-path="url(#pe1d31b00c4)" d="M 1264.4 47.52 
L 1289.2 47.52 
L 1298.606622 47.52 
L 1314 59.518706 
L 1314 85.635 
L 1314 90.58734 
L 1305.461944 85.635 
L 1289.2 74.796002 
L 1264.4 53.478091 
L 1258.738264 47.52 
z
" style="fill:#a00000;"/>
   </g>
   <g id="PathCollection_11">
    <path clip-path="url(#pe1d31b00c4)" d="M 1190 47.52 
L 1214.8 47.52 
L 1239.6 47.52 
L 1258.738264 47.52 
L 1264.4 53.478091 
L 1289.2 74.796002 
L 1305.461944 85.635 
L 1314 90.58734 
L 1314 123.75 
L 1314 152.724608 
L 1289.2 146.199149 
L 1264.4 137.391864 
L 1239.6 124.838709 
L 1237.85191 123.75 
L 1214.8 105.519402 
L 1198.305964 85.635 
L 1190 71.921386 
L 1179.003473 47.52 
z
" style="fill:#ff7d63;"/>
   </g>
   <g id="PathCollection_12">
    <path clip-path="url(#pe1d31b00c4)" d="M 1115.6 47.52 
L 1140.4 47.52 
L 1165.2 47.52 
L 1179.003473 47.52 
L 1190 71.921386 
L 1198.305964 85.635 
L 1214.8 105.519402 
L 1237.85191 123.75 
L 1239.6 124.838709 
L 1264.4 137.391864 
L 1289.2 146.199149 
L 1314 152.724608 
L 1314 161.865 
L 1314 183.793242 
L 1289.2 181.900723 
L 1264.4 179.344865 
L 1239.6 175.709279 
L 1214.8 170.108176 
L 1192.885319 161.865 
L 1190 160.378621 
L 1165.2 139.231589 
L 1154.429268 123.75 
L 1140.4 100.988634 
L 1131.959298 85.635 
L 1115.6 51.447882 
L 1113.90481 47.52 
z
" style="fill:#ffa997;"/>
   </g>
   <g id="PathCollection_13">
    <path clip-path="url(#pe1d31b00c4)" d="M 1041.2 47.52 
L 1066 47.52 
L 1090.8 47.52 
L 1113.90481 47.52 
L 1115.6 51.447882 
L 1131.959298 85.635 
L 1140.4 100.988634 
L 1154.429268 123.75 
L 1165.2 139.231589 
L 1190 160.378621 
L 1192.885319 161.865 
L 1214.8 170.108176 
L 1239.6 175.709279 
L 1264.4 179.344865 
L 1289.2 181.900723 
L 1314 183.793242 
L 1314 199.98 
L 1314 226.891977 
L 1289.2 228.034823 
L 1264.4 229.204567 
L 1239.6 230.402171 
L 1214.8 231.630639 
L 1190 232.876379 
L 1165.2 234.162883 
L 1140.4 225.489825 
L 1115.6 214.251655 
L 1092.012903 199.98 
L 1090.8 197.976191 
L 1071.960897 161.865 
L 1066 148.02378 
L 1056.822047 123.75 
L 1044.973913 85.635 
L 1041.2 71.472406 
L 1035.439494 47.52 
z
" style="fill:#ffc5ba;"/>
    <path clip-path="url(#pe1d31b00c4)" d="M 889.24271 161.865 
L 892.4 162.695334 
L 917.2 171.432891 
L 942 187.597588 
L 952.836427 199.98 
L 942 212.787667 
L 917.2 237.979219 
L 917.073598 238.095 
L 892.4 258.670354 
L 867.6 275.95848 
L 867.6 238.095 
L 867.6 199.98 
L 867.6 161.865 
L 867.6 157.238072 
z
" style="fill:#ffc5ba;"/>
   </g>
   <g id="PathCollection_14">
    <path clip-path="url(#pe1d31b00c4)" d="M 917.2 84.452061 
L 942 63.539707 
L 952.839513 47.52 
L 966.8 47.52 
L 991.6 47.52 
L 1016.4 47.52 
L 1035.439494 47.52 
L 1041.2 71.472406 
L 1044.973913 85.635 
L 1056.822047 123.75 
L 1066 148.02378 
L 1071.960897 161.865 
L 1090.8 197.976191 
L 1092.012903 199.98 
L 1115.6 214.251655 
L 1140.4 225.489825 
L 1165.2 234.162883 
L 1190 232.876379 
L 1214.8 231.630639 
L 1239.6 230.402171 
L 1264.4 229.204567 
L 1289.2 228.034823 
L 1314 226.891977 
L 1314 238.095 
L 1314 276.21 
L 1314 283.088909 
L 1289.2 284.874567 
L 1264.4 286.710602 
L 1239.6 288.577596 
L 1214.8 290.492822 
L 1190 292.461597 
L 1165.2 294.471427 
L 1140.4 293.538713 
L 1115.6 292.339781 
L 1090.8 290.723019 
L 1066 288.420096 
L 1041.2 284.9196 
L 1016.4 278.875385 
L 991.6 305.377971 
L 981.310638 314.325 
L 966.8 325.416667 
L 942 341.102968 
L 919.944467 352.44 
L 917.2 352.44 
L 892.4 352.44 
L 867.6 352.44 
L 867.6 314.325 
L 867.6 276.21 
L 867.6 275.95848 
L 892.4 258.670354 
L 917.073598 238.095 
L 917.2 237.979219 
L 942 212.787667 
L 952.836427 199.98 
L 942 187.597588 
L 917.2 171.432891 
L 892.4 162.695334 
L 889.24271 161.865 
L 867.6 157.238072 
L 867.6 123.75 
L 867.6 102.803625 
L 892.4 95.73293 
L 915.148418 85.635 
z
" style="fill:#ffe2dc;"/>
   </g>
   <g id="PathCollection_15">
    <path clip-path="url(#pe1d31b00c4)" d="M 892.4 47.52 
L 917.2 47.52 
L 942 47.52 
L 952.839513 47.52 
L 942 63.539707 
L 917.2 84.452061 
L 915.148418 85.635 
L 892.4 95.73293 
L 867.6 102.803625 
L 867.6 85.635 
L 867.6 48.369177 
L 868.908796 47.52 
z
" style="fill:#4fc3f7;"/>
    <path clip-path="url(#pe1d31b00c4)" d="M 991.6 305.377971 
L 1016.4 278.875385 
L 1041.2 284.9196 
L 1066 288.420096 
L 1090.8 290.723019 
L 1115.6 292.339781 
L 1140.4 293.538713 
L 1165.2 294.471427 
L 1190 292.461597 
L 1214.8 290.492822 
L 1239.6 288.577596 
L 1264.4 286.710602 
L 1289.2 284.874567 
L 1314 283.088909 
L 1314 314.325 
L 1314 339.289145 
L 1289.2 341.720511 
L 1264.4 344.20762 
L 1239.6 346.760574 
L 1214.8 349.366779 
L 1190 352.046693 
L 1186.394714 352.44 
L 1165.2 352.44 
L 1140.4 352.44 
L 1115.6 352.44 
L 1090.8 352.44 
L 1066 352.44 
L 1041.2 352.44 
L 1016.4 352.44 
L 991.6 352.44 
L 966.8 352.44 
L 942 352.44 
L 919.944467 352.44 
L 942 341.102968 
L 966.8 325.416667 
L 981.310638 314.325 
z
" style="fill:#4fc3f7;"/>
   </g>
   <g id="PathCollection_16">
    <path clip-path="url(#pe1d31b00c4)" d="M 867.6 48.369177 
L 867.6 47.52 
L 868.908796 47.52 
z
" style="fill:#0288d1;"/>
    <path clip-path="url(#pe1d31b00c4)" d="M 1190 352.046693 
L 1214.8 349.366779 
L 1239.6 346.760574 
L 1264.4 344.20762 
L 1289.2 341.720511 
L 1314 339.289145 
L 1314 352.44 
L 1289.2 352.44 
L 1264.4 352.44 
L 1239.6 352.44 
L 1214.8 352.44 
L 1190 352.44 
L 1186.394714 352.44 
z
" style="fill:#0288d1;"/>
   </g>
   <g id="PathCollection_17"/>
   <g id="matplotlib.axis_3">
    <g id="xtick_11">
     <g id="line2d_20">
      <g>
       <use style="stroke:#000000;stroke-width:0.8;" x="867.6" xlink:href="#m2a7aded0f6" y="352.44"/>
      </g>
     </g>
     <g id="text_23">
      <!-- 0 -->
      <g transform="translate(861.87375 373.117188)scale(0.18 -0.18)">
       <use xlink:href="#DejaVuSans-48"/>
      </g>
     </g>
    </g>
    <g id="xtick_12">
     <g id="line2d_21">
      <g>
       <use style="stroke:#000000;stroke-width:0.8;" x="917.2" xlink:href="#m2a7aded0f6" y="352.44"/>
      </g>
     </g>
     <g id="text_24">
      <!-- 10 -->
      <g transform="translate(905.7475 373.117188)scale(0.18 -0.18)">
       <use xlink:href="#DejaVuSans-49"/>
       <use x="63.623047" xlink:href="#DejaVuSans-48"/>
      </g>
     </g>
    </g>
    <g id="xtick_13">
     <g id="line2d_22">
      <g>
       <use style="stroke:#000000;stroke-width:0.8;" x="966.8" xlink:href="#m2a7aded0f6" y="352.44"/>
      </g>
     </g>
     <g id="text_25">
      <!-- 20 -->
      <g transform="translate(955.3475 373.117188)scale(0.18 -0.18)">
       <use xlink:href="#DejaVuSans-50"/>
       <use x="63.623047" xlink:href="#DejaVuSans-48"/>
      </g>
     </g>
    </g>
    <g id="xtick_14">
     <g id="line2d_23">
      <g>
       <use style="stroke:#000000;stroke-width:0.8;" x="1016.4" xlink:href="#m2a7aded0f6" y="352.44"/>
      </g>
     </g>
     <g id="text_26">
      <!-- 30 -->
      <g transform="translate(1004.9475 373.117188)scale(0.18 -0.18)">
       <use xlink:href="#DejaVuSans-51"/>
       <use x="63.623047" xlink:href="#DejaVuSans-48"/>
      </g>
     </g>
    </g>
    <g id="xtick_15">
     <g id="line2d_24">
      <g>
       <use style="stroke:#000000;stroke-width:0.8;" x="1066" xlink:href="#m2a7aded0f6" y="352.44"/>
      </g>
     </g>
     <g id="text_27">
      <!-- 40 -->
      <g transform="translate(1054.5475 373.117188)scale(0.18 -0.18)">
       <use xlink:href="#DejaVuSans-52"/>
       <use x="63.623047" xlink:href="#DejaVuSans-48"/>
      </g>
     </g>
    </g>
    <g id="xtick_16">
     <g id="line2d_25">
      <g>
       <use style="stroke:#000000;stroke-width:0.8;" x="1115.6" xlink:href="#m2a7aded0f6" y="352.44"/>
      </g>
     </g>
     <g id="text_28">
      <!-- 50 -->
      <g transform="translate(1104.1475 373.117188)scale(0.18 -0.18)">
       <use xlink:href="#DejaVuSans-53"/>
       <use x="63.623047" xlink:href="#DejaVuSans-48"/>
      </g>
     </g>
    </g>
    <g id="xtick_17">
     <g id="line2d_26">
      <g>
       <use style="stroke:#000000;stroke-width:0.8;" x="1165.2" xlink:href="#m2a7aded0f6" y="352.44"/>
      </g>
     </g>
     <g id="text_29">
      <!-- 60 -->
      <g transform="translate(1153.7475 373.117188)scale(0.18 -0.18)">
       <use xlink:href="#DejaVuSans-54"/>
       <use x="63.623047" xlink:href="#DejaVuSans-48"/>
      </g>
     </g>
    </g>
    <g id="xtick_18">
     <g id="line2d_27">
      <g>
       <use style="stroke:#000000;stroke-width:0.8;" x="1214.8" xlink:href="#m2a7aded0f6" y="352.44"/>
      </g>
     </g>
     <g id="text_30">
      <!-- 70 -->
      <g transform="translate(1203.3475 373.117188)scale(0.18 -0.18)">
       <use xlink:href="#DejaVuSans-55"/>
       <use x="63.623047" xlink:href="#DejaVuSans-48"/>
      </g>
     </g>
    </g>
    <g id="xtick_19">
     <g id="line2d_28">
      <g>
       <use style="stroke:#000000;stroke-width:0.8;" x="1264.4" xlink:href="#m2a7aded0f6" y="352.44"/>
      </g>
     </g>
     <g id="text_31">
      <!-- 80 -->
      <g transform="translate(1252.9475 373.117188)scale(0.18 -0.18)">
       <use xlink:href="#DejaVuSans-56"/>
       <use x="63.623047" xlink:href="#DejaVuSans-48"/>
      </g>
     </g>
    </g>
    <g id="xtick_20">
     <g id="line2d_29">
      <g>
       <use style="stroke:#000000;stroke-width:0.8;" x="1314" xlink:href="#m2a7aded0f6" y="352.44"/>
      </g>
     </g>
     <g id="text_32">
      <!-- 90 -->
      <g transform="translate(1302.5475 373.117188)scale(0.18 -0.18)">
       <use xlink:href="#DejaVuSans-57"/>
       <use x="63.623047" xlink:href="#DejaVuSans-48"/>
      </g>
     </g>
    </g>
    <g id="text_33">
     <!-- Across the rows -->
     <g transform="translate(1019.927812 400.537812)scale(0.18 -0.18)">
      <use xlink:href="#DejaVuSans-65"/>
      <use x="66.658203" xlink:href="#DejaVuSans-99"/>
      <use x="121.638672" xlink:href="#DejaVuSans-114"/>
      <use x="160.501953" xlink:href="#DejaVuSans-111"/>
      <use x="221.683594" xlink:href="#DejaVuSans-115"/>
      <use x="273.783203" xlink:href="#DejaVuSans-115"/>
      <use x="325.882812" xlink:href="#DejaVuSans-32"/>
      <use x="357.669922" xlink:href="#DejaVuSans-116"/>
      <use x="396.878906" xlink:href="#DejaVuSans-104"/>
      <use x="460.257812" xlink:href="#DejaVuSans-101"/>
      <use x="521.78125" xlink:href="#DejaVuSans-32"/>
      <use x="553.568359" xlink:href="#DejaVuSans-114"/>
      <use x="592.431641" xlink:href="#DejaVuSans-111"/>
      <use x="653.613281" xlink:href="#DejaVuSans-119"/>
      <use x="735.400391" xlink:href="#DejaVuSans-115"/>
     </g>
    </g>
   </g>
   <g id="matplotlib.axis_4">
    <g id="ytick_10">
     <g id="line2d_30">
      <g>
       <use style="stroke:#000000;stroke-width:0.8;" x="867.6" xlink:href="#m2075d5e3a6" y="352.44"/>
      </g>
     </g>
     <g id="text_34">
      <!-- −60 -->
      <g transform="translate(822.611562 359.278594)scale(0.18 -0.18)">
       <use xlink:href="#DejaVuSans-8722"/>
       <use x="83.789062" xlink:href="#DejaVuSans-54"/>
       <use x="147.412109" xlink:href="#DejaVuSans-48"/>
      </g>
     </g>
    </g>
    <g id="ytick_11">
     <g id="line2d_31">
      <g>
       <use style="stroke:#000000;stroke-width:0.8;" x="867.6" xlink:href="#m2075d5e3a6" y="314.325"/>
      </g>
     </g>
     <g id="text_35">
      <!-- −55 -->
      <g transform="translate(822.611562 321.163594)scale(0.18 -0.18)">
       <use xlink:href="#DejaVuSans-8722"/>
       <use x="83.789062" xlink:href="#DejaVuSans-53"/>
       <use x="147.412109" xlink:href="#DejaVuSans-53"/>
      </g>
     </g>
    </g>
    <g id="ytick_12">
     <g id="line2d_32">
      <g>
       <use style="stroke:#000000;stroke-width:0.8;" x="867.6" xlink:href="#m2075d5e3a6" y="276.21"/>
      </g>
     </g>
     <g id="text_36">
      <!-- −50 -->
      <g transform="translate(822.611562 283.048594)scale(0.18 -0.18)">
       <use xlink:href="#DejaVuSans-8722"/>
       <use x="83.789062" xlink:href="#DejaVuSans-53"/>
       <use x="147.412109" xlink:href="#DejaVuSans-48"/>
      </g>
     </g>
    </g>
    <g id="ytick_13">
     <g id="line2d_33">
      <g>
       <use style="stroke:#000000;stroke-width:0.8;" x="867.6" xlink:href="#m2075d5e3a6" y="238.095"/>
      </g>
     </g>
     <g id="text_37">
      <!-- −45 -->
      <g transform="translate(822.611562 244.933594)scale(0.18 -0.18)">
       <use xlink:href="#DejaVuSans-8722"/>
       <use x="83.789062" xlink:href="#DejaVuSans-52"/>
       <use x="147.412109" xlink:href="#DejaVuSans-53"/>
      </g>
     </g>
    </g>
    <g id="ytick_14">
     <g id="line2d_34">
      <g>
       <use style="stroke:#000000;stroke-width:0.8;" x="867.6" xlink:href="#m2075d5e3a6" y="199.98"/>
      </g>
     </g>
     <g id="text_38">
      <!-- −40 -->
      <g transform="translate(822.611562 206.818594)scale(0.18 -0.18)">
       <use xlink:href="#DejaVuSans-8722"/>
       <use x="83.789062" xlink:href="#DejaVuSans-52"/>
       <use x="147.412109" xlink:href="#DejaVuSans-48"/>
      </g>
     </g>
    </g>
    <g id="ytick_15">
     <g id="line2d_35">
      <g>
       <use style="stroke:#000000;stroke-width:0.8;" x="867.6" xlink:href="#m2075d5e3a6" y="161.865"/>
      </g>
     </g>
     <g id="text_39">
      <!-- −35 -->
      <g transform="translate(822.611562 168.703594)scale(0.18 -0.18)">
       <use xlink:href="#DejaVuSans-8722"/>
       <use x="83.789062" xlink:href="#DejaVuSans-51"/>
       <use x="147.412109" xlink:href="#DejaVuSans-53"/>
      </g>
     </g>
    </g>
    <g id="ytick_16">
     <g id="line2d_36">
      <g>
       <use style="stroke:#000000;stroke-width:0.8;" x="867.6" xlink:href="#m2075d5e3a6" y="123.75"/>
      </g>
     </g>
     <g id="text_40">
      <!-- −30 -->
      <g transform="translate(822.611562 130.588594)scale(0.18 -0.18)">
       <use xlink:href="#DejaVuSans-8722"/>
       <use x="83.789062" xlink:href="#DejaVuSans-51"/>
       <use x="147.412109" xlink:href="#DejaVuSans-48"/>
      </g>
     </g>
    </g>
    <g id="ytick_17">
     <g id="line2d_37">
      <g>
       <use style="stroke:#000000;stroke-width:0.8;" x="867.6" xlink:href="#m2075d5e3a6" y="85.635"/>
      </g>
     </g>
     <g id="text_41">
      <!-- −25 -->
      <g transform="translate(822.611562 92.473594)scale(0.18 -0.18)">
       <use xlink:href="#DejaVuSans-8722"/>
       <use x="83.789062" xlink:href="#DejaVuSans-50"/>
       <use x="147.412109" xlink:href="#DejaVuSans-53"/>
      </g>
     </g>
    </g>
    <g id="ytick_18">
     <g id="line2d_38">
      <g>
       <use style="stroke:#000000;stroke-width:0.8;" x="867.6" xlink:href="#m2075d5e3a6" y="47.52"/>
      </g>
     </g>
     <g id="text_42">
      <!-- −20 -->
      <g transform="translate(822.611562 54.358594)scale(0.18 -0.18)">
       <use xlink:href="#DejaVuSans-8722"/>
       <use x="83.789062" xlink:href="#DejaVuSans-50"/>
       <use x="147.412109" xlink:href="#DejaVuSans-48"/>
      </g>
     </g>
    </g>
    <g id="text_43">
     <!-- Depth -->
     <g transform="translate(808.868125 227.393438)rotate(-90)scale(0.18 -0.18)">
      <use xlink:href="#DejaVuSans-68"/>
      <use x="77.001953" xlink:href="#DejaVuSans-101"/>
      <use x="138.525391" xlink:href="#DejaVuSans-112"/>
      <use x="202.001953" xlink:href="#DejaVuSans-116"/>
      <use x="241.210938" xlink:href="#DejaVuSans-104"/>
     </g>
    </g>
   </g>
   <g id="patch_8">
    <path d="M 867.6 352.44 
L 867.6 47.52 
" style="fill:none;stroke:#000000;stroke-linecap:square;stroke-linejoin:miter;stroke-width:0.8;"/>
   </g>
   <g id="patch_9">
    <path d="M 1314 352.44 
L 1314 47.52 
" style="fill:none;stroke:#000000;stroke-linecap:square;stroke-linejoin:miter;stroke-width:0.8;"/>
   </g>
   <g id="patch_10">
    <path d="M 867.6 352.44 
L 1314 352.44 
" style="fill:none;stroke:#000000;stroke-linecap:square;stroke-linejoin:miter;stroke-width:0.8;"/>
   </g>
   <g id="patch_11">
    <path d="M 867.6 47.52 
L 1314 47.52 
" style="fill:none;stroke:#000000;stroke-linecap:square;stroke-linejoin:miter;stroke-width:0.8;"/>
   </g>
   <g id="text_44">
    <!-- Average -->
    <g transform="translate(1053.840937 22.52)scale(0.18 -0.18)">
     <defs>
      <path d="M 2.984375 54.6875 
L 12.5 54.6875 
L 29.59375 8.796875 
L 46.6875 54.6875 
L 56.203125 54.6875 
L 35.6875 0 
L 23.484375 0 
z
" id="DejaVuSans-118"/>
      <path d="M 45.40625 27.984375 
Q 45.40625 37.75 41.375 43.109375 
Q 37.359375 48.484375 30.078125 48.484375 
Q 22.859375 48.484375 18.828125 43.109375 
Q 14.796875 37.75 14.796875 27.984375 
Q 14.796875 18.265625 18.828125 12.890625 
Q 22.859375 7.515625 30.078125 7.515625 
Q 37.359375 7.515625 41.375 12.890625 
Q 45.40625 18.265625 45.40625 27.984375 
z
M 54.390625 6.78125 
Q 54.390625 -7.171875 48.1875 -13.984375 
Q 42 -20.796875 29.203125 -20.796875 
Q 24.46875 -20.796875 20.265625 -20.09375 
Q 16.0625 -19.390625 12.109375 -17.921875 
L 12.109375 -9.1875 
Q 16.0625 -11.328125 19.921875 -12.34375 
Q 23.78125 -13.375 27.78125 -13.375 
Q 36.625 -13.375 41.015625 -8.765625 
Q 45.40625 -4.15625 45.40625 5.171875 
L 45.40625 9.625 
Q 42.625 4.78125 38.28125 2.390625 
Q 33.9375 0 27.875 0 
Q 17.828125 0 11.671875 7.65625 
Q 5.515625 15.328125 5.515625 27.984375 
Q 5.515625 40.671875 11.671875 48.328125 
Q 17.828125 56 27.875 56 
Q 33.9375 56 38.28125 53.609375 
Q 42.625 51.21875 45.40625 46.390625 
L 45.40625 54.6875 
L 54.390625 54.6875 
z
" id="DejaVuSans-103"/>
     </defs>
     <use xlink:href="#DejaVuSans-65"/>
     <use x="62.533203" xlink:href="#DejaVuSans-118"/>
     <use x="121.712891" xlink:href="#DejaVuSans-101"/>
     <use x="183.236328" xlink:href="#DejaVuSans-114"/>
     <use x="224.349609" xlink:href="#DejaVuSans-97"/>
     <use x="285.628906" xlink:href="#DejaVuSans-103"/>
     <use x="349.105469" xlink:href="#DejaVuSans-101"/>
    </g>
   </g>
  </g>
  <g id="axes_3">
   <g id="patch_12">
    <path clip-path="url(#pa674a1ea4b)" d="M 1341.9 352.44 
L 1341.9 321.948 
L 1341.9 78.012 
L 1341.9 47.52 
L 1357.146 47.52 
L 1357.146 78.012 
L 1357.146 321.948 
L 1357.146 352.44 
z
" style="fill:#ffffff;stroke:#ffffff;stroke-linejoin:miter;stroke-width:0.01;"/>
   </g>
   <g id="QuadMesh_1">
    <path clip-path="url(#pa674a1ea4b)" d="M 1341.9 352.44 
L 1357.146 352.44 
L 1357.146 321.948 
L 1341.9 321.948 
L 1341.9 352.44 
" style="fill:#600000;"/>
    <path clip-path="url(#pa674a1ea4b)" d="M 1341.9 321.948 
L 1357.146 321.948 
L 1357.146 291.456 
L 1341.9 291.456 
L 1341.9 321.948 
" style="fill:#800000;"/>
    <path clip-path="url(#pa674a1ea4b)" d="M 1341.9 291.456 
L 1357.146 291.456 
L 1357.146 260.964 
L 1341.9 260.964 
L 1341.9 291.456 
" style="fill:#a00000;"/>
    <path clip-path="url(#pa674a1ea4b)" d="M 1341.9 260.964 
L 1357.146 260.964 
L 1357.146 230.472 
L 1341.9 230.472 
L 1341.9 260.964 
" style="fill:#ff7d63;"/>
    <path clip-path="url(#pa674a1ea4b)" d="M 1341.9 230.472 
L 1357.146 230.472 
L 1357.146 199.98 
L 1341.9 199.98 
L 1341.9 230.472 
" style="fill:#ffa997;"/>
    <path clip-path="url(#pa674a1ea4b)" d="M 1341.9 199.98 
L 1357.146 199.98 
L 1357.146 169.488 
L 1341.9 169.488 
L 1341.9 199.98 
" style="fill:#ffc5ba;"/>
    <path clip-path="url(#pa674a1ea4b)" d="M 1341.9 169.488 
L 1357.146 169.488 
L 1357.146 138.996 
L 1341.9 138.996 
L 1341.9 169.488 
" style="fill:#ffe2dc;"/>
    <path clip-path="url(#pa674a1ea4b)" d="M 1341.9 138.996 
L 1357.146 138.996 
L 1357.146 108.504 
L 1341.9 108.504 
L 1341.9 138.996 
" style="fill:#4fc3f7;"/>
    <path clip-path="url(#pa674a1ea4b)" d="M 1341.9 108.504 
L 1357.146 108.504 
L 1357.146 78.012 
L 1341.9 78.012 
L 1341.9 108.504 
" style="fill:#0288d1;"/>
    <path clip-path="url(#pa674a1ea4b)" d="M 1341.9 78.012 
L 1357.146 78.012 
L 1357.146 47.52 
L 1341.9 47.52 
L 1341.9 78.012 
" style="fill:#01579b;"/>
   </g>
   <g id="matplotlib.axis_5"/>
   <g id="matplotlib.axis_6">
    <g id="ytick_19">
     <g id="line2d_39">
      <defs>
       <path d="M 0 0 
L 3.5 0 
" id="mec2b2bda36" style="stroke:#000000;stroke-width:0.8;"/>
      </defs>
      <g>
       <use style="stroke:#000000;stroke-width:0.8;" x="1357.146" xlink:href="#mec2b2bda36" y="352.44"/>
      </g>
     </g>
     <g id="text_45">
      <!-- −800 -->
      <g transform="translate(1364.146 359.278594)scale(0.18 -0.18)">
       <use xlink:href="#DejaVuSans-8722"/>
       <use x="83.789062" xlink:href="#DejaVuSans-56"/>
       <use x="147.412109" xlink:href="#DejaVuSans-48"/>
       <use x="211.035156" xlink:href="#DejaVuSans-48"/>
      </g>
     </g>
    </g>
    <g id="ytick_20">
     <g id="line2d_40">
      <g>
       <use style="stroke:#000000;stroke-width:0.8;" x="1357.146" xlink:href="#mec2b2bda36" y="291.456"/>
      </g>
     </g>
     <g id="text_46">
      <!-- −400 -->
      <g transform="translate(1364.146 298.294594)scale(0.18 -0.18)">
       <use xlink:href="#DejaVuSans-8722"/>
       <use x="83.789062" xlink:href="#DejaVuSans-52"/>
       <use x="147.412109" xlink:href="#DejaVuSans-48"/>
       <use x="211.035156" xlink:href="#DejaVuSans-48"/>
      </g>
     </g>
    </g>
    <g id="ytick_21">
     <g id="line2d_41">
      <g>
       <use style="stroke:#000000;stroke-width:0.8;" x="1357.146" xlink:href="#mec2b2bda36" y="230.472"/>
      </g>
     </g>
     <g id="text_47">
      <!-- −250 -->
      <g transform="translate(1364.146 237.310594)scale(0.18 -0.18)">
       <use xlink:href="#DejaVuSans-8722"/>
       <use x="83.789062" xlink:href="#DejaVuSans-50"/>
       <use x="147.412109" xlink:href="#DejaVuSans-53"/>
       <use x="211.035156" xlink:href="#DejaVuSans-48"/>
      </g>
     </g>
    </g>
    <g id="ytick_22">
     <g id="line2d_42">
      <g>
       <use style="stroke:#000000;stroke-width:0.8;" x="1357.146" xlink:href="#mec2b2bda36" y="169.488"/>
      </g>
     </g>
     <g id="text_48">
      <!-- −150 -->
      <g transform="translate(1364.146 176.326594)scale(0.18 -0.18)">
       <use xlink:href="#DejaVuSans-8722"/>
       <use x="83.789062" xlink:href="#DejaVuSans-49"/>
       <use x="147.412109" xlink:href="#DejaVuSans-53"/>
       <use x="211.035156" xlink:href="#DejaVuSans-48"/>
      </g>
     </g>
    </g>
    <g id="ytick_23">
     <g id="line2d_43">
      <g>
       <use style="stroke:#000000;stroke-width:0.8;" x="1357.146" xlink:href="#mec2b2bda36" y="108.504"/>
      </g>
     </g>
     <g id="text_49">
      <!-- −50 -->
      <g transform="translate(1364.146 115.342594)scale(0.18 -0.18)">
       <use xlink:href="#DejaVuSans-8722"/>
       <use x="83.789062" xlink:href="#DejaVuSans-53"/>
       <use x="147.412109" xlink:href="#DejaVuSans-48"/>
      </g>
     </g>
    </g>
    <g id="ytick_24">
     <g id="line2d_44">
      <g>
       <use style="stroke:#000000;stroke-width:0.8;" x="1357.146" xlink:href="#mec2b2bda36" y="47.52"/>
      </g>
     </g>
     <g id="text_50">
      <!-- 0 -->
      <g transform="translate(1364.146 54.358594)scale(0.18 -0.18)">
       <use xlink:href="#DejaVuSans-48"/>
      </g>
     </g>
    </g>
   </g>
   <g id="patch_13">
    <path d="M 1341.9 352.44 
L 1341.9 321.948 
L 1341.9 78.012 
L 1341.9 47.52 
L 1357.146 47.52 
L 1357.146 78.012 
L 1357.146 321.948 
L 1357.146 352.44 
z
" style="fill:none;stroke:#000000;stroke-linejoin:miter;stroke-width:0.8;"/>
   </g>
  </g>
  <g id="axes_4">
   <g id="patch_14">
    <path clip-path="url(#padbce00bc7)" d="M 672.3 352.44 
L 672.3 308.88 
L 672.3 91.08 
L 672.3 47.52 
L 687.546 47.52 
L 687.546 91.08 
L 687.546 308.88 
L 687.546 352.44 
z
" style="fill:#ffffff;stroke:#ffffff;stroke-linejoin:miter;stroke-width:0.01;"/>
   </g>
   <g id="QuadMesh_2">
    <path clip-path="url(#padbce00bc7)" d="M 672.3 352.44 
L 687.546 352.44 
L 687.546 308.88 
L 672.3 308.88 
L 672.3 352.44 
" style="fill:#31688e;"/>
    <path clip-path="url(#padbce00bc7)" d="M 672.3 308.88 
L 687.546 308.88 
L 687.546 265.32 
L 672.3 265.32 
L 672.3 308.88 
" style="fill:#26828e;"/>
    <path clip-path="url(#padbce00bc7)" d="M 672.3 265.32 
L 687.546 265.32 
L 687.546 221.76 
L 672.3 221.76 
L 672.3 265.32 
" style="fill:#1f9e89;"/>
    <path clip-path="url(#padbce00bc7)" d="M 672.3 221.76 
L 687.546 221.76 
L 687.546 178.2 
L 672.3 178.2 
L 672.3 221.76 
" style="fill:#35b779;"/>
    <path clip-path="url(#padbce00bc7)" d="M 672.3 178.2 
L 687.546 178.2 
L 687.546 134.64 
L 672.3 134.64 
L 672.3 178.2 
" style="fill:#6ece58;"/>
    <path clip-path="url(#padbce00bc7)" d="M 672.3 134.64 
L 687.546 134.64 
L 687.546 91.08 
L 672.3 91.08 
L 672.3 134.64 
" style="fill:#b5de2b;"/>
    <path clip-path="url(#padbce00bc7)" d="M 672.3 91.08 
L 687.546 91.08 
L 687.546 47.52 
L 672.3 47.52 
L 672.3 91.08 
" style="fill:#fde725;"/>
   </g>
   <g id="matplotlib.axis_7"/>
   <g id="matplotlib.axis_8">
    <g id="ytick_25">
     <g id="line2d_45">
      <g>
       <use style="stroke:#000000;stroke-width:0.8;" x="687.546" xlink:href="#mec2b2bda36" y="352.44"/>
      </g>
     </g>
     <g id="text_51">
      <!-- 0 -->
      <g transform="translate(694.546 359.278594)scale(0.18 -0.18)">
       <use xlink:href="#DejaVuSans-48"/>
      </g>
     </g>
    </g>
    <g id="ytick_26">
     <g id="line2d_46">
      <g>
       <use style="stroke:#000000;stroke-width:0.8;" x="687.546" xlink:href="#mec2b2bda36" y="308.88"/>
      </g>
     </g>
     <g id="text_52">
      <!-- 5 -->
      <g transform="translate(694.546 315.718594)scale(0.18 -0.18)">
       <use xlink:href="#DejaVuSans-53"/>
      </g>
     </g>
    </g>
    <g id="ytick_27">
     <g id="line2d_47">
      <g>
       <use style="stroke:#000000;stroke-width:0.8;" x="687.546" xlink:href="#mec2b2bda36" y="265.32"/>
      </g>
     </g>
     <g id="text_53">
      <!-- 10 -->
      <g transform="translate(694.546 272.158594)scale(0.18 -0.18)">
       <use xlink:href="#DejaVuSans-49"/>
       <use x="63.623047" xlink:href="#DejaVuSans-48"/>
      </g>
     </g>
    </g>
    <g id="ytick_28">
     <g id="line2d_48">
      <g>
       <use style="stroke:#000000;stroke-width:0.8;" x="687.546" xlink:href="#mec2b2bda36" y="221.76"/>
      </g>
     </g>
     <g id="text_54">
      <!-- 20 -->
      <g transform="translate(694.546 228.598594)scale(0.18 -0.18)">
       <use xlink:href="#DejaVuSans-50"/>
       <use x="63.623047" xlink:href="#DejaVuSans-48"/>
      </g>
     </g>
    </g>
    <g id="ytick_29">
     <g id="line2d_49">
      <g>
       <use style="stroke:#000000;stroke-width:0.8;" x="687.546" xlink:href="#mec2b2bda36" y="178.2"/>
      </g>
     </g>
     <g id="text_55">
      <!-- 30 -->
      <g transform="translate(694.546 185.038594)scale(0.18 -0.18)">
       <use xlink:href="#DejaVuSans-51"/>
       <use x="63.623047" xlink:href="#DejaVuSans-48"/>
      </g>
     </g>
    </g>
    <g id="ytick_30">
     <g id="line2d_50">
      <g>
       <use style="stroke:#000000;stroke-width:0.8;" x="687.546" xlink:href="#mec2b2bda36" y="134.64"/>
      </g>
     </g>
     <g id="text_56">
      <!-- 50 -->
      <g transform="translate(694.546 141.478594)scale(0.18 -0.18)">
       <use xlink:href="#DejaVuSans-53"/>
       <use x="63.623047" xlink:href="#DejaVuSans-48"/>
      </g>
     </g>
    </g>
    <g id="ytick_31">
     <g id="line2d_51">
      <g>
       <use style="stroke:#000000;stroke-width:0.8;" x="687.546" xlink:href="#mec2b2bda36" y="91.08"/>
      </g>
     </g>
     <g id="text_57">
      <!-- 70 -->
      <g transform="translate(694.546 97.918594)scale(0.18 -0.18)">
       <use xlink:href="#DejaVuSans-55"/>
       <use x="63.623047" xlink:href="#DejaVuSans-48"/>
      </g>
     </g>
    </g>
    <g id="ytick_32">
     <g id="line2d_52">
      <g>
       <use style="stroke:#000000;stroke-width:0.8;" x="687.546" xlink:href="#mec2b2bda36" y="47.52"/>
      </g>
     </g>
     <g id="text_58">
      <!-- 90 -->
      <g transform="translate(694.546 54.358594)scale(0.18 -0.18)">
       <use xlink:href="#DejaVuSans-57"/>
       <use x="63.623047" xlink:href="#DejaVuSans-48"/>
      </g>
     </g>
    </g>
   </g>
   <g id="patch_15">
    <path d="M 672.3 352.44 
L 672.3 308.88 
L 672.3 91.08 
L 672.3 47.52 
L 687.546 47.52 
L 687.546 91.08 
L 687.546 308.88 
L 687.546 352.44 
z
" style="fill:none;stroke:#000000;stroke-linejoin:miter;stroke-width:0.8;"/>
   </g>
  </g>
 </g>
 <defs>
  <clipPath id="pe237a22968">
   <rect height="304.92" width="446.4" x="198" y="47.52"/>
  </clipPath>
  <clipPath id="pe1d31b00c4">
   <rect height="304.92" width="446.4" x="867.6" y="47.52"/>
  </clipPath>
  <clipPath id="pa674a1ea4b">
   <rect height="304.92" width="15.246" x="1341.9" y="47.52"/>
  </clipPath>
  <clipPath id="padbce00bc7">
   <rect height="304.92" width="15.246" x="672.3" y="47.52"/>
  </clipPath>
 </defs>
</svg>
