<?xml version="1.0" encoding="utf-8" standalone="no"?>
<!DOCTYPE svg PUBLIC "-//W3C//DTD SVG 1.1//EN"
  "http://www.w3.org/Graphics/SVG/1.1/DTD/svg11.dtd">
<!-- Created with matplotlib (https://matplotlib.org/) -->
<svg height="396pt" version="1.1" viewBox="0 0 1584 396" width="1584pt" xmlns="http://www.w3.org/2000/svg" xmlns:xlink="http://www.w3.org/1999/xlink">
 <metadata>
  <rdf:RDF xmlns:cc="http://creativecommons.org/ns#" xmlns:dc="http://purl.org/dc/elements/1.1/" xmlns:rdf="http://www.w3.org/1999/02/22-rdf-syntax-ns#">
   <cc:Work>
    <dc:type rdf:resource="http://purl.org/dc/dcmitype/StillImage"/>
    <dc:date>2022-02-14T15:55:10.625057</dc:date>
    <dc:format>image/svg+xml</dc:format>
    <dc:creator>
     <cc:Agent>
      <dc:title>Matplotlib v3.3.3, https://matplotlib.org/</dc:title>
     </cc:Agent>
    </dc:creator>
   </cc:Work>
  </rdf:RDF>
 </metadata>
 <defs>
  <style type="text/css">*{stroke-linecap:butt;stroke-linejoin:round;}</style>
 </defs>
 <g id="figure_1">
  <g id="patch_1">
   <path d="M 0 396 
L 1584 396 
L 1584 0 
L 0 0 
z
" style="fill:#ffffff;"/>
  </g>
  <g id="axes_1">
   <g id="patch_2">
    <path d="M 198 352.44 
L 644.4 352.44 
L 644.4 47.52 
L 198 47.52 
z
" style="fill:#ffffff;"/>
   </g>
   <g id="PathCollection_1"/>
   <g id="PathCollection_2">
    <path clip-path="url(#pd5a37fbeae)" d="M 570 47.52 
L 594.8 47.52 
L 619.6 47.52 
L 644.4 47.52 
L 644.4 85.635 
L 644.4 123.75 
L 644.4 161.865 
L 644.4 199.98 
L 644.4 238.095 
L 644.4 276.21 
L 644.4 314.325 
L 644.4 352.44 
L 619.6 352.44 
L 594.8 352.44 
L 570 352.44 
L 545.2 352.44 
L 520.4 352.44 
L 495.6 352.44 
L 470.8 352.44 
L 446 352.44 
L 421.2 352.44 
L 446 332.378714 
L 464.036364 314.325 
L 470.8 306.587275 
L 493.078838 276.21 
L 495.6 272.199162 
L 514.063149 238.095 
L 520.4 224.051719 
L 529.938638 199.98 
L 542.365539 161.865 
L 545.2 151.834357 
L 552.359086 123.75 
L 560.569227 85.635 
L 567.433952 47.52 
z
" style="fill:#ff7d63;"/>
   </g>
   <g id="PathCollection_3">
    <path clip-path="url(#pd5a37fbeae)" d="M 495.6 47.52 
L 520.4 47.52 
L 545.2 47.52 
L 567.433952 47.52 
L 560.569227 85.635 
L 552.359086 123.75 
L 545.2 151.834357 
L 542.365539 161.865 
L 529.938638 199.98 
L 520.4 224.051719 
L 514.063149 238.095 
L 495.6 272.199162 
L 493.078838 276.21 
L 470.8 306.587275 
L 464.036364 314.325 
L 446 332.378714 
L 421.2 352.44 
L 396.4 352.44 
L 371.6 352.44 
L 346.8 352.44 
L 322 352.44 
L 297.2 352.44 
L 272.4 352.44 
L 247.6 352.44 
L 222.8 352.44 
L 198 352.44 
L 222.8 342.999184 
L 247.6 332.379569 
L 272.4 320.343057 
L 283.672727 314.325 
L 297.2 306.587275 
L 322 290.71561 
L 341.755265 276.21 
L 346.8 272.197261 
L 371.6 250.314174 
L 383.728905 238.095 
L 396.4 224.05248 
L 415.476747 199.98 
L 421.2 191.955789 
L 440.331079 161.865 
L 446 151.834357 
L 460.318171 123.75 
L 470.8 100.252078 
L 476.738453 85.635 
L 490.469443 47.52 
z
" style="fill:#ffa997;"/>
   </g>
   <g id="PathCollection_4">
    <path clip-path="url(#pd5a37fbeae)" d="M 396.4 79.617602 
L 413.503395 47.52 
L 421.2 47.52 
L 446 47.52 
L 470.8 47.52 
L 490.469443 47.52 
L 476.738453 85.635 
L 470.8 100.252078 
L 460.318171 123.75 
L 446 151.834357 
L 440.331079 161.865 
L 421.2 191.955789 
L 415.476747 199.98 
L 396.4 224.05248 
L 383.728905 238.095 
L 371.6 250.314174 
L 346.8 272.197261 
L 341.755265 276.21 
L 322 290.71561 
L 297.2 306.587275 
L 283.672727 314.325 
L 272.4 320.343057 
L 247.6 332.379569 
L 222.8 342.999184 
L 198 352.44 
L 198 314.325 
L 198 276.21 
L 198 272.197895 
L 222.8 258.037828 
L 247.6 242.106725 
L 253.392054 238.095 
L 272.4 224.052226 
L 297.2 203.41949 
L 301.015913 199.98 
L 322 179.610373 
L 338.296618 161.865 
L 346.8 151.834357 
L 368.275662 123.75 
L 371.6 119.00729 
L 392.907444 85.635 
z
" style="fill:#ffc5ba;"/>
   </g>
   <g id="PathCollection_5">
    <path clip-path="url(#pd5a37fbeae)" d="M 322 68.506361 
L 336.537347 47.52 
L 346.8 47.52 
L 371.6 47.52 
L 396.4 47.52 
L 413.503395 47.52 
L 396.4 79.617602 
L 392.907444 85.635 
L 371.6 119.00729 
L 368.275662 123.75 
L 346.8 151.834357 
L 338.296618 161.865 
L 322 179.610373 
L 301.015913 199.98 
L 297.2 203.41949 
L 272.4 224.052226 
L 253.392054 238.095 
L 247.6 242.106725 
L 222.8 258.037828 
L 198 272.197895 
L 198 238.095 
L 198 199.98 
L 198 191.955789 
L 222.8 173.075194 
L 236.262157 161.865 
L 247.6 151.834357 
L 272.4 127.761598 
L 276.234501 123.75 
L 297.2 100.250014 
L 309.076033 85.635 
z
" style="fill:#ffe2dc;"/>
   </g>
   <g id="PathCollection_6">
    <path clip-path="url(#pd5a37fbeae)" d="M 247.6 61.562844 
L 259.572838 47.52 
L 272.4 47.52 
L 297.2 47.52 
L 322 47.52 
L 336.537347 47.52 
L 322 68.506361 
L 309.076033 85.635 
L 297.2 100.250014 
L 276.234501 123.75 
L 272.4 127.761598 
L 247.6 151.834357 
L 236.262157 161.865 
L 222.8 173.075194 
L 198 191.955789 
L 198 161.865 
L 198 123.75 
L 198 111.713684 
L 222.8 88.11256 
L 225.244622 85.635 
z
" style="fill:#4fc3f7;"/>
   </g>
   <g id="PathCollection_7">
    <path clip-path="url(#pd5a37fbeae)" d="M 222.8 54.128231 
L 228.786419 47.52 
L 247.6 47.52 
L 259.572838 47.52 
L 247.6 61.562844 
L 225.244622 85.635 
L 222.8 88.11256 
L 198 111.713684 
L 198 85.635 
L 198 79.616842 
z
" style="fill:#0288d1;"/>
   </g>
   <g id="PathCollection_8">
    <path clip-path="url(#pd5a37fbeae)" d="M 222.8 47.52 
L 228.786419 47.52 
L 222.8 54.128231 
L 198 79.616842 
L 198 47.52 
z
" style="fill:#01579b;"/>
   </g>
   <g id="matplotlib.axis_1">
    <g id="xtick_1">
     <g id="line2d_1">
      <defs>
       <path d="M 0 0 
L 0 3.5 
" id="mdb362e6b2d" style="stroke:#000000;stroke-width:0.8;"/>
      </defs>
      <g>
       <use style="stroke:#000000;stroke-width:0.8;" x="198" xlink:href="#mdb362e6b2d" y="352.44"/>
      </g>
     </g>
     <g id="text_1">
      <!-- 0 -->
      <g transform="translate(192.27375 373.117188)scale(0.18 -0.18)">
       <defs>
        <path d="M 31.78125 66.40625 
Q 24.171875 66.40625 20.328125 58.90625 
Q 16.5 51.421875 16.5 36.375 
Q 16.5 21.390625 20.328125 13.890625 
Q 24.171875 6.390625 31.78125 6.390625 
Q 39.453125 6.390625 43.28125 13.890625 
Q 47.125 21.390625 47.125 36.375 
Q 47.125 51.421875 43.28125 58.90625 
Q 39.453125 66.40625 31.78125 66.40625 
z
M 31.78125 74.21875 
Q 44.046875 74.21875 50.515625 64.515625 
Q 56.984375 54.828125 56.984375 36.375 
Q 56.984375 17.96875 50.515625 8.265625 
Q 44.046875 -1.421875 31.78125 -1.421875 
Q 19.53125 -1.421875 13.0625 8.265625 
Q 6.59375 17.96875 6.59375 36.375 
Q 6.59375 54.828125 13.0625 64.515625 
Q 19.53125 74.21875 31.78125 74.21875 
z
" id="DejaVuSans-48"/>
       </defs>
       <use xlink:href="#DejaVuSans-48"/>
      </g>
     </g>
    </g>
    <g id="xtick_2">
     <g id="line2d_2">
      <g>
       <use style="stroke:#000000;stroke-width:0.8;" x="247.6" xlink:href="#mdb362e6b2d" y="352.44"/>
      </g>
     </g>
     <g id="text_2">
      <!-- 10 -->
      <g transform="translate(236.1475 373.117188)scale(0.18 -0.18)">
       <defs>
        <path d="M 12.40625 8.296875 
L 28.515625 8.296875 
L 28.515625 63.921875 
L 10.984375 60.40625 
L 10.984375 69.390625 
L 28.421875 72.90625 
L 38.28125 72.90625 
L 38.28125 8.296875 
L 54.390625 8.296875 
L 54.390625 0 
L 12.40625 0 
z
" id="DejaVuSans-49"/>
       </defs>
       <use xlink:href="#DejaVuSans-49"/>
       <use x="63.623047" xlink:href="#DejaVuSans-48"/>
      </g>
     </g>
    </g>
    <g id="xtick_3">
     <g id="line2d_3">
      <g>
       <use style="stroke:#000000;stroke-width:0.8;" x="297.2" xlink:href="#mdb362e6b2d" y="352.44"/>
      </g>
     </g>
     <g id="text_3">
      <!-- 20 -->
      <g transform="translate(285.7475 373.117188)scale(0.18 -0.18)">
       <defs>
        <path d="M 19.1875 8.296875 
L 53.609375 8.296875 
L 53.609375 0 
L 7.328125 0 
L 7.328125 8.296875 
Q 12.9375 14.109375 22.625 23.890625 
Q 32.328125 33.6875 34.8125 36.53125 
Q 39.546875 41.84375 41.421875 45.53125 
Q 43.3125 49.21875 43.3125 52.78125 
Q 43.3125 58.59375 39.234375 62.25 
Q 35.15625 65.921875 28.609375 65.921875 
Q 23.96875 65.921875 18.8125 64.3125 
Q 13.671875 62.703125 7.8125 59.421875 
L 7.8125 69.390625 
Q 13.765625 71.78125 18.9375 73 
Q 24.125 74.21875 28.421875 74.21875 
Q 39.75 74.21875 46.484375 68.546875 
Q 53.21875 62.890625 53.21875 53.421875 
Q 53.21875 48.921875 51.53125 44.890625 
Q 49.859375 40.875 45.40625 35.40625 
Q 44.1875 33.984375 37.640625 27.21875 
Q 31.109375 20.453125 19.1875 8.296875 
z
" id="DejaVuSans-50"/>
       </defs>
       <use xlink:href="#DejaVuSans-50"/>
       <use x="63.623047" xlink:href="#DejaVuSans-48"/>
      </g>
     </g>
    </g>
    <g id="xtick_4">
     <g id="line2d_4">
      <g>
       <use style="stroke:#000000;stroke-width:0.8;" x="346.8" xlink:href="#mdb362e6b2d" y="352.44"/>
      </g>
     </g>
     <g id="text_4">
      <!-- 30 -->
      <g transform="translate(335.3475 373.117188)scale(0.18 -0.18)">
       <defs>
        <path d="M 40.578125 39.3125 
Q 47.65625 37.796875 51.625 33 
Q 55.609375 28.21875 55.609375 21.1875 
Q 55.609375 10.40625 48.1875 4.484375 
Q 40.765625 -1.421875 27.09375 -1.421875 
Q 22.515625 -1.421875 17.65625 -0.515625 
Q 12.796875 0.390625 7.625 2.203125 
L 7.625 11.71875 
Q 11.71875 9.328125 16.59375 8.109375 
Q 21.484375 6.890625 26.8125 6.890625 
Q 36.078125 6.890625 40.9375 10.546875 
Q 45.796875 14.203125 45.796875 21.1875 
Q 45.796875 27.640625 41.28125 31.265625 
Q 36.765625 34.90625 28.71875 34.90625 
L 20.21875 34.90625 
L 20.21875 43.015625 
L 29.109375 43.015625 
Q 36.375 43.015625 40.234375 45.921875 
Q 44.09375 48.828125 44.09375 54.296875 
Q 44.09375 59.90625 40.109375 62.90625 
Q 36.140625 65.921875 28.71875 65.921875 
Q 24.65625 65.921875 20.015625 65.03125 
Q 15.375 64.15625 9.8125 62.3125 
L 9.8125 71.09375 
Q 15.4375 72.65625 20.34375 73.4375 
Q 25.25 74.21875 29.59375 74.21875 
Q 40.828125 74.21875 47.359375 69.109375 
Q 53.90625 64.015625 53.90625 55.328125 
Q 53.90625 49.265625 50.4375 45.09375 
Q 46.96875 40.921875 40.578125 39.3125 
z
" id="DejaVuSans-51"/>
       </defs>
       <use xlink:href="#DejaVuSans-51"/>
       <use x="63.623047" xlink:href="#DejaVuSans-48"/>
      </g>
     </g>
    </g>
    <g id="xtick_5">
     <g id="line2d_5">
      <g>
       <use style="stroke:#000000;stroke-width:0.8;" x="396.4" xlink:href="#mdb362e6b2d" y="352.44"/>
      </g>
     </g>
     <g id="text_5">
      <!-- 40 -->
      <g transform="translate(384.9475 373.117188)scale(0.18 -0.18)">
       <defs>
        <path d="M 37.796875 64.3125 
L 12.890625 25.390625 
L 37.796875 25.390625 
z
M 35.203125 72.90625 
L 47.609375 72.90625 
L 47.609375 25.390625 
L 58.015625 25.390625 
L 58.015625 17.1875 
L 47.609375 17.1875 
L 47.609375 0 
L 37.796875 0 
L 37.796875 17.1875 
L 4.890625 17.1875 
L 4.890625 26.703125 
z
" id="DejaVuSans-52"/>
       </defs>
       <use xlink:href="#DejaVuSans-52"/>
       <use x="63.623047" xlink:href="#DejaVuSans-48"/>
      </g>
     </g>
    </g>
    <g id="xtick_6">
     <g id="line2d_6">
      <g>
       <use style="stroke:#000000;stroke-width:0.8;" x="446" xlink:href="#mdb362e6b2d" y="352.44"/>
      </g>
     </g>
     <g id="text_6">
      <!-- 50 -->
      <g transform="translate(434.5475 373.117188)scale(0.18 -0.18)">
       <defs>
        <path d="M 10.796875 72.90625 
L 49.515625 72.90625 
L 49.515625 64.59375 
L 19.828125 64.59375 
L 19.828125 46.734375 
Q 21.96875 47.46875 24.109375 47.828125 
Q 26.265625 48.1875 28.421875 48.1875 
Q 40.625 48.1875 47.75 41.5 
Q 54.890625 34.8125 54.890625 23.390625 
Q 54.890625 11.625 47.5625 5.09375 
Q 40.234375 -1.421875 26.90625 -1.421875 
Q 22.3125 -1.421875 17.546875 -0.640625 
Q 12.796875 0.140625 7.71875 1.703125 
L 7.71875 11.625 
Q 12.109375 9.234375 16.796875 8.0625 
Q 21.484375 6.890625 26.703125 6.890625 
Q 35.15625 6.890625 40.078125 11.328125 
Q 45.015625 15.765625 45.015625 23.390625 
Q 45.015625 31 40.078125 35.4375 
Q 35.15625 39.890625 26.703125 39.890625 
Q 22.75 39.890625 18.8125 39.015625 
Q 14.890625 38.140625 10.796875 36.28125 
z
" id="DejaVuSans-53"/>
       </defs>
       <use xlink:href="#DejaVuSans-53"/>
       <use x="63.623047" xlink:href="#DejaVuSans-48"/>
      </g>
     </g>
    </g>
    <g id="xtick_7">
     <g id="line2d_7">
      <g>
       <use style="stroke:#000000;stroke-width:0.8;" x="495.6" xlink:href="#mdb362e6b2d" y="352.44"/>
      </g>
     </g>
     <g id="text_7">
      <!-- 60 -->
      <g transform="translate(484.1475 373.117188)scale(0.18 -0.18)">
       <defs>
        <path d="M 33.015625 40.375 
Q 26.375 40.375 22.484375 35.828125 
Q 18.609375 31.296875 18.609375 23.390625 
Q 18.609375 15.53125 22.484375 10.953125 
Q 26.375 6.390625 33.015625 6.390625 
Q 39.65625 6.390625 43.53125 10.953125 
Q 47.40625 15.53125 47.40625 23.390625 
Q 47.40625 31.296875 43.53125 35.828125 
Q 39.65625 40.375 33.015625 40.375 
z
M 52.59375 71.296875 
L 52.59375 62.3125 
Q 48.875 64.0625 45.09375 64.984375 
Q 41.3125 65.921875 37.59375 65.921875 
Q 27.828125 65.921875 22.671875 59.328125 
Q 17.53125 52.734375 16.796875 39.40625 
Q 19.671875 43.65625 24.015625 45.921875 
Q 28.375 48.1875 33.59375 48.1875 
Q 44.578125 48.1875 50.953125 41.515625 
Q 57.328125 34.859375 57.328125 23.390625 
Q 57.328125 12.15625 50.6875 5.359375 
Q 44.046875 -1.421875 33.015625 -1.421875 
Q 20.359375 -1.421875 13.671875 8.265625 
Q 6.984375 17.96875 6.984375 36.375 
Q 6.984375 53.65625 15.1875 63.9375 
Q 23.390625 74.21875 37.203125 74.21875 
Q 40.921875 74.21875 44.703125 73.484375 
Q 48.484375 72.75 52.59375 71.296875 
z
" id="DejaVuSans-54"/>
       </defs>
       <use xlink:href="#DejaVuSans-54"/>
       <use x="63.623047" xlink:href="#DejaVuSans-48"/>
      </g>
     </g>
    </g>
    <g id="xtick_8">
     <g id="line2d_8">
      <g>
       <use style="stroke:#000000;stroke-width:0.8;" x="545.2" xlink:href="#mdb362e6b2d" y="352.44"/>
      </g>
     </g>
     <g id="text_8">
      <!-- 70 -->
      <g transform="translate(533.7475 373.117188)scale(0.18 -0.18)">
       <defs>
        <path d="M 8.203125 72.90625 
L 55.078125 72.90625 
L 55.078125 68.703125 
L 28.609375 0 
L 18.3125 0 
L 43.21875 64.59375 
L 8.203125 64.59375 
z
" id="DejaVuSans-55"/>
       </defs>
       <use xlink:href="#DejaVuSans-55"/>
       <use x="63.623047" xlink:href="#DejaVuSans-48"/>
      </g>
     </g>
    </g>
    <g id="xtick_9">
     <g id="line2d_9">
      <g>
       <use style="stroke:#000000;stroke-width:0.8;" x="594.8" xlink:href="#mdb362e6b2d" y="352.44"/>
      </g>
     </g>
     <g id="text_9">
      <!-- 80 -->
      <g transform="translate(583.3475 373.117188)scale(0.18 -0.18)">
       <defs>
        <path d="M 31.78125 34.625 
Q 24.75 34.625 20.71875 30.859375 
Q 16.703125 27.09375 16.703125 20.515625 
Q 16.703125 13.921875 20.71875 10.15625 
Q 24.75 6.390625 31.78125 6.390625 
Q 38.8125 6.390625 42.859375 10.171875 
Q 46.921875 13.96875 46.921875 20.515625 
Q 46.921875 27.09375 42.890625 30.859375 
Q 38.875 34.625 31.78125 34.625 
z
M 21.921875 38.8125 
Q 15.578125 40.375 12.03125 44.71875 
Q 8.5 49.078125 8.5 55.328125 
Q 8.5 64.0625 14.71875 69.140625 
Q 20.953125 74.21875 31.78125 74.21875 
Q 42.671875 74.21875 48.875 69.140625 
Q 55.078125 64.0625 55.078125 55.328125 
Q 55.078125 49.078125 51.53125 44.71875 
Q 48 40.375 41.703125 38.8125 
Q 48.828125 37.15625 52.796875 32.3125 
Q 56.78125 27.484375 56.78125 20.515625 
Q 56.78125 9.90625 50.3125 4.234375 
Q 43.84375 -1.421875 31.78125 -1.421875 
Q 19.734375 -1.421875 13.25 4.234375 
Q 6.78125 9.90625 6.78125 20.515625 
Q 6.78125 27.484375 10.78125 32.3125 
Q 14.796875 37.15625 21.921875 38.8125 
z
M 18.3125 54.390625 
Q 18.3125 48.734375 21.84375 45.5625 
Q 25.390625 42.390625 31.78125 42.390625 
Q 38.140625 42.390625 41.71875 45.5625 
Q 45.3125 48.734375 45.3125 54.390625 
Q 45.3125 60.0625 41.71875 63.234375 
Q 38.140625 66.40625 31.78125 66.40625 
Q 25.390625 66.40625 21.84375 63.234375 
Q 18.3125 60.0625 18.3125 54.390625 
z
" id="DejaVuSans-56"/>
       </defs>
       <use xlink:href="#DejaVuSans-56"/>
       <use x="63.623047" xlink:href="#DejaVuSans-48"/>
      </g>
     </g>
    </g>
    <g id="xtick_10">
     <g id="line2d_10">
      <g>
       <use style="stroke:#000000;stroke-width:0.8;" x="644.4" xlink:href="#mdb362e6b2d" y="352.44"/>
      </g>
     </g>
     <g id="text_10">
      <!-- 90 -->
      <g transform="translate(632.9475 373.117188)scale(0.18 -0.18)">
       <defs>
        <path d="M 10.984375 1.515625 
L 10.984375 10.5 
Q 14.703125 8.734375 18.5 7.8125 
Q 22.3125 6.890625 25.984375 6.890625 
Q 35.75 6.890625 40.890625 13.453125 
Q 46.046875 20.015625 46.78125 33.40625 
Q 43.953125 29.203125 39.59375 26.953125 
Q 35.25 24.703125 29.984375 24.703125 
Q 19.046875 24.703125 12.671875 31.3125 
Q 6.296875 37.9375 6.296875 49.421875 
Q 6.296875 60.640625 12.9375 67.421875 
Q 19.578125 74.21875 30.609375 74.21875 
Q 43.265625 74.21875 49.921875 64.515625 
Q 56.59375 54.828125 56.59375 36.375 
Q 56.59375 19.140625 48.40625 8.859375 
Q 40.234375 -1.421875 26.421875 -1.421875 
Q 22.703125 -1.421875 18.890625 -0.6875 
Q 15.09375 0.046875 10.984375 1.515625 
z
M 30.609375 32.421875 
Q 37.25 32.421875 41.125 36.953125 
Q 45.015625 41.5 45.015625 49.421875 
Q 45.015625 57.28125 41.125 61.84375 
Q 37.25 66.40625 30.609375 66.40625 
Q 23.96875 66.40625 20.09375 61.84375 
Q 16.21875 57.28125 16.21875 49.421875 
Q 16.21875 41.5 20.09375 36.953125 
Q 23.96875 32.421875 30.609375 32.421875 
z
" id="DejaVuSans-57"/>
       </defs>
       <use xlink:href="#DejaVuSans-57"/>
       <use x="63.623047" xlink:href="#DejaVuSans-48"/>
      </g>
     </g>
    </g>
    <g id="text_11">
     <!-- Across the rows -->
     <g transform="translate(350.327812 395.537812)scale(0.18 -0.18)">
      <defs>
       <path d="M 34.1875 63.1875 
L 20.796875 26.90625 
L 47.609375 26.90625 
z
M 28.609375 72.90625 
L 39.796875 72.90625 
L 67.578125 0 
L 57.328125 0 
L 50.6875 18.703125 
L 17.828125 18.703125 
L 11.1875 0 
L 0.78125 0 
z
" id="DejaVuSans-65"/>
       <path d="M 48.78125 52.59375 
L 48.78125 44.1875 
Q 44.96875 46.296875 41.140625 47.34375 
Q 37.3125 48.390625 33.40625 48.390625 
Q 24.65625 48.390625 19.8125 42.84375 
Q 14.984375 37.3125 14.984375 27.296875 
Q 14.984375 17.28125 19.8125 11.734375 
Q 24.65625 6.203125 33.40625 6.203125 
Q 37.3125 6.203125 41.140625 7.25 
Q 44.96875 8.296875 48.78125 10.40625 
L 48.78125 2.09375 
Q 45.015625 0.34375 40.984375 -0.53125 
Q 36.96875 -1.421875 32.421875 -1.421875 
Q 20.0625 -1.421875 12.78125 6.34375 
Q 5.515625 14.109375 5.515625 27.296875 
Q 5.515625 40.671875 12.859375 48.328125 
Q 20.21875 56 33.015625 56 
Q 37.15625 56 41.109375 55.140625 
Q 45.0625 54.296875 48.78125 52.59375 
z
" id="DejaVuSans-99"/>
       <path d="M 41.109375 46.296875 
Q 39.59375 47.171875 37.8125 47.578125 
Q 36.03125 48 33.890625 48 
Q 26.265625 48 22.1875 43.046875 
Q 18.109375 38.09375 18.109375 28.8125 
L 18.109375 0 
L 9.078125 0 
L 9.078125 54.6875 
L 18.109375 54.6875 
L 18.109375 46.1875 
Q 20.953125 51.171875 25.484375 53.578125 
Q 30.03125 56 36.53125 56 
Q 37.453125 56 38.578125 55.875 
Q 39.703125 55.765625 41.0625 55.515625 
z
" id="DejaVuSans-114"/>
       <path d="M 30.609375 48.390625 
Q 23.390625 48.390625 19.1875 42.75 
Q 14.984375 37.109375 14.984375 27.296875 
Q 14.984375 17.484375 19.15625 11.84375 
Q 23.34375 6.203125 30.609375 6.203125 
Q 37.796875 6.203125 41.984375 11.859375 
Q 46.1875 17.53125 46.1875 27.296875 
Q 46.1875 37.015625 41.984375 42.703125 
Q 37.796875 48.390625 30.609375 48.390625 
z
M 30.609375 56 
Q 42.328125 56 49.015625 48.375 
Q 55.71875 40.765625 55.71875 27.296875 
Q 55.71875 13.875 49.015625 6.21875 
Q 42.328125 -1.421875 30.609375 -1.421875 
Q 18.84375 -1.421875 12.171875 6.21875 
Q 5.515625 13.875 5.515625 27.296875 
Q 5.515625 40.765625 12.171875 48.375 
Q 18.84375 56 30.609375 56 
z
" id="DejaVuSans-111"/>
       <path d="M 44.28125 53.078125 
L 44.28125 44.578125 
Q 40.484375 46.53125 36.375 47.5 
Q 32.28125 48.484375 27.875 48.484375 
Q 21.1875 48.484375 17.84375 46.4375 
Q 14.5 44.390625 14.5 40.28125 
Q 14.5 37.15625 16.890625 35.375 
Q 19.28125 33.59375 26.515625 31.984375 
L 29.59375 31.296875 
Q 39.15625 29.25 43.1875 25.515625 
Q 47.21875 21.78125 47.21875 15.09375 
Q 47.21875 7.46875 41.1875 3.015625 
Q 35.15625 -1.421875 24.609375 -1.421875 
Q 20.21875 -1.421875 15.453125 -0.5625 
Q 10.6875 0.296875 5.421875 2 
L 5.421875 11.28125 
Q 10.40625 8.6875 15.234375 7.390625 
Q 20.0625 6.109375 24.8125 6.109375 
Q 31.15625 6.109375 34.5625 8.28125 
Q 37.984375 10.453125 37.984375 14.40625 
Q 37.984375 18.0625 35.515625 20.015625 
Q 33.0625 21.96875 24.703125 23.78125 
L 21.578125 24.515625 
Q 13.234375 26.265625 9.515625 29.90625 
Q 5.8125 33.546875 5.8125 39.890625 
Q 5.8125 47.609375 11.28125 51.796875 
Q 16.75 56 26.8125 56 
Q 31.78125 56 36.171875 55.265625 
Q 40.578125 54.546875 44.28125 53.078125 
z
" id="DejaVuSans-115"/>
       <path id="DejaVuSans-32"/>
       <path d="M 18.3125 70.21875 
L 18.3125 54.6875 
L 36.8125 54.6875 
L 36.8125 47.703125 
L 18.3125 47.703125 
L 18.3125 18.015625 
Q 18.3125 11.328125 20.140625 9.421875 
Q 21.96875 7.515625 27.59375 7.515625 
L 36.8125 7.515625 
L 36.8125 0 
L 27.59375 0 
Q 17.1875 0 13.234375 3.875 
Q 9.28125 7.765625 9.28125 18.015625 
L 9.28125 47.703125 
L 2.6875 47.703125 
L 2.6875 54.6875 
L 9.28125 54.6875 
L 9.28125 70.21875 
z
" id="DejaVuSans-116"/>
       <path d="M 54.890625 33.015625 
L 54.890625 0 
L 45.90625 0 
L 45.90625 32.71875 
Q 45.90625 40.484375 42.875 44.328125 
Q 39.84375 48.1875 33.796875 48.1875 
Q 26.515625 48.1875 22.3125 43.546875 
Q 18.109375 38.921875 18.109375 30.90625 
L 18.109375 0 
L 9.078125 0 
L 9.078125 75.984375 
L 18.109375 75.984375 
L 18.109375 46.1875 
Q 21.34375 51.125 25.703125 53.5625 
Q 30.078125 56 35.796875 56 
Q 45.21875 56 50.046875 50.171875 
Q 54.890625 44.34375 54.890625 33.015625 
z
" id="DejaVuSans-104"/>
       <path d="M 56.203125 29.59375 
L 56.203125 25.203125 
L 14.890625 25.203125 
Q 15.484375 15.921875 20.484375 11.0625 
Q 25.484375 6.203125 34.421875 6.203125 
Q 39.59375 6.203125 44.453125 7.46875 
Q 49.3125 8.734375 54.109375 11.28125 
L 54.109375 2.78125 
Q 49.265625 0.734375 44.1875 -0.34375 
Q 39.109375 -1.421875 33.890625 -1.421875 
Q 20.796875 -1.421875 13.15625 6.1875 
Q 5.515625 13.8125 5.515625 26.8125 
Q 5.515625 40.234375 12.765625 48.109375 
Q 20.015625 56 32.328125 56 
Q 43.359375 56 49.78125 48.890625 
Q 56.203125 41.796875 56.203125 29.59375 
z
M 47.21875 32.234375 
Q 47.125 39.59375 43.09375 43.984375 
Q 39.0625 48.390625 32.421875 48.390625 
Q 24.90625 48.390625 20.390625 44.140625 
Q 15.875 39.890625 15.1875 32.171875 
z
" id="DejaVuSans-101"/>
       <path d="M 4.203125 54.6875 
L 13.1875 54.6875 
L 24.421875 12.015625 
L 35.59375 54.6875 
L 46.1875 54.6875 
L 57.421875 12.015625 
L 68.609375 54.6875 
L 77.59375 54.6875 
L 63.28125 0 
L 52.6875 0 
L 40.921875 44.828125 
L 29.109375 0 
L 18.5 0 
z
" id="DejaVuSans-119"/>
      </defs>
      <use xlink:href="#DejaVuSans-65"/>
      <use x="66.658203" xlink:href="#DejaVuSans-99"/>
      <use x="121.638672" xlink:href="#DejaVuSans-114"/>
      <use x="160.501953" xlink:href="#DejaVuSans-111"/>
      <use x="221.683594" xlink:href="#DejaVuSans-115"/>
      <use x="273.783203" xlink:href="#DejaVuSans-115"/>
      <use x="325.882812" xlink:href="#DejaVuSans-32"/>
      <use x="357.669922" xlink:href="#DejaVuSans-116"/>
      <use x="396.878906" xlink:href="#DejaVuSans-104"/>
      <use x="460.257812" xlink:href="#DejaVuSans-101"/>
      <use x="521.78125" xlink:href="#DejaVuSans-32"/>
      <use x="553.568359" xlink:href="#DejaVuSans-114"/>
      <use x="592.431641" xlink:href="#DejaVuSans-111"/>
      <use x="653.613281" xlink:href="#DejaVuSans-119"/>
      <use x="735.400391" xlink:href="#DejaVuSans-115"/>
     </g>
    </g>
   </g>
   <g id="matplotlib.axis_2">
    <g id="ytick_1">
     <g id="line2d_11">
      <defs>
       <path d="M 0 0 
L -3.5 0 
" id="m43633af573" style="stroke:#000000;stroke-width:0.8;"/>
      </defs>
      <g>
       <use style="stroke:#000000;stroke-width:0.8;" x="198" xlink:href="#m43633af573" y="352.44"/>
      </g>
     </g>
     <g id="text_12">
      <!-- −60 -->
      <g transform="translate(153.011562 359.278594)scale(0.18 -0.18)">
       <defs>
        <path d="M 10.59375 35.5 
L 73.1875 35.5 
L 73.1875 27.203125 
L 10.59375 27.203125 
z
" id="DejaVuSans-8722"/>
       </defs>
       <use xlink:href="#DejaVuSans-8722"/>
       <use x="83.789062" xlink:href="#DejaVuSans-54"/>
       <use x="147.412109" xlink:href="#DejaVuSans-48"/>
      </g>
     </g>
    </g>
    <g id="ytick_2">
     <g id="line2d_12">
      <g>
       <use style="stroke:#000000;stroke-width:0.8;" x="198" xlink:href="#m43633af573" y="314.325"/>
      </g>
     </g>
     <g id="text_13">
      <!-- −55 -->
      <g transform="translate(153.011562 321.163594)scale(0.18 -0.18)">
       <use xlink:href="#DejaVuSans-8722"/>
       <use x="83.789062" xlink:href="#DejaVuSans-53"/>
       <use x="147.412109" xlink:href="#DejaVuSans-53"/>
      </g>
     </g>
    </g>
    <g id="ytick_3">
     <g id="line2d_13">
      <g>
       <use style="stroke:#000000;stroke-width:0.8;" x="198" xlink:href="#m43633af573" y="276.21"/>
      </g>
     </g>
     <g id="text_14">
      <!-- −50 -->
      <g transform="translate(153.011562 283.048594)scale(0.18 -0.18)">
       <use xlink:href="#DejaVuSans-8722"/>
       <use x="83.789062" xlink:href="#DejaVuSans-53"/>
       <use x="147.412109" xlink:href="#DejaVuSans-48"/>
      </g>
     </g>
    </g>
    <g id="ytick_4">
     <g id="line2d_14">
      <g>
       <use style="stroke:#000000;stroke-width:0.8;" x="198" xlink:href="#m43633af573" y="238.095"/>
      </g>
     </g>
     <g id="text_15">
      <!-- −45 -->
      <g transform="translate(153.011562 244.933594)scale(0.18 -0.18)">
       <use xlink:href="#DejaVuSans-8722"/>
       <use x="83.789062" xlink:href="#DejaVuSans-52"/>
       <use x="147.412109" xlink:href="#DejaVuSans-53"/>
      </g>
     </g>
    </g>
    <g id="ytick_5">
     <g id="line2d_15">
      <g>
       <use style="stroke:#000000;stroke-width:0.8;" x="198" xlink:href="#m43633af573" y="199.98"/>
      </g>
     </g>
     <g id="text_16">
      <!-- −40 -->
      <g transform="translate(153.011562 206.818594)scale(0.18 -0.18)">
       <use xlink:href="#DejaVuSans-8722"/>
       <use x="83.789062" xlink:href="#DejaVuSans-52"/>
       <use x="147.412109" xlink:href="#DejaVuSans-48"/>
      </g>
     </g>
    </g>
    <g id="ytick_6">
     <g id="line2d_16">
      <g>
       <use style="stroke:#000000;stroke-width:0.8;" x="198" xlink:href="#m43633af573" y="161.865"/>
      </g>
     </g>
     <g id="text_17">
      <!-- −35 -->
      <g transform="translate(153.011562 168.703594)scale(0.18 -0.18)">
       <use xlink:href="#DejaVuSans-8722"/>
       <use x="83.789062" xlink:href="#DejaVuSans-51"/>
       <use x="147.412109" xlink:href="#DejaVuSans-53"/>
      </g>
     </g>
    </g>
    <g id="ytick_7">
     <g id="line2d_17">
      <g>
       <use style="stroke:#000000;stroke-width:0.8;" x="198" xlink:href="#m43633af573" y="123.75"/>
      </g>
     </g>
     <g id="text_18">
      <!-- −30 -->
      <g transform="translate(153.011562 130.588594)scale(0.18 -0.18)">
       <use xlink:href="#DejaVuSans-8722"/>
       <use x="83.789062" xlink:href="#DejaVuSans-51"/>
       <use x="147.412109" xlink:href="#DejaVuSans-48"/>
      </g>
     </g>
    </g>
    <g id="ytick_8">
     <g id="line2d_18">
      <g>
       <use style="stroke:#000000;stroke-width:0.8;" x="198" xlink:href="#m43633af573" y="85.635"/>
      </g>
     </g>
     <g id="text_19">
      <!-- −25 -->
      <g transform="translate(153.011562 92.473594)scale(0.18 -0.18)">
       <use xlink:href="#DejaVuSans-8722"/>
       <use x="83.789062" xlink:href="#DejaVuSans-50"/>
       <use x="147.412109" xlink:href="#DejaVuSans-53"/>
      </g>
     </g>
    </g>
    <g id="ytick_9">
     <g id="line2d_19">
      <g>
       <use style="stroke:#000000;stroke-width:0.8;" x="198" xlink:href="#m43633af573" y="47.52"/>
      </g>
     </g>
     <g id="text_20">
      <!-- −20 -->
      <g transform="translate(153.011562 54.358594)scale(0.18 -0.18)">
       <use xlink:href="#DejaVuSans-8722"/>
       <use x="83.789062" xlink:href="#DejaVuSans-50"/>
       <use x="147.412109" xlink:href="#DejaVuSans-48"/>
      </g>
     </g>
    </g>
    <g id="text_21">
     <!-- Depth -->
     <g transform="translate(139.268125 227.393438)rotate(-90)scale(0.18 -0.18)">
      <defs>
       <path d="M 19.671875 64.796875 
L 19.671875 8.109375 
L 31.59375 8.109375 
Q 46.6875 8.109375 53.6875 14.9375 
Q 60.6875 21.78125 60.6875 36.53125 
Q 60.6875 51.171875 53.6875 57.984375 
Q 46.6875 64.796875 31.59375 64.796875 
z
M 9.8125 72.90625 
L 30.078125 72.90625 
Q 51.265625 72.90625 61.171875 64.09375 
Q 71.09375 55.28125 71.09375 36.53125 
Q 71.09375 17.671875 61.125 8.828125 
Q 51.171875 0 30.078125 0 
L 9.8125 0 
z
" id="DejaVuSans-68"/>
       <path d="M 18.109375 8.203125 
L 18.109375 -20.796875 
L 9.078125 -20.796875 
L 9.078125 54.6875 
L 18.109375 54.6875 
L 18.109375 46.390625 
Q 20.953125 51.265625 25.265625 53.625 
Q 29.59375 56 35.59375 56 
Q 45.5625 56 51.78125 48.09375 
Q 58.015625 40.1875 58.015625 27.296875 
Q 58.015625 14.40625 51.78125 6.484375 
Q 45.5625 -1.421875 35.59375 -1.421875 
Q 29.59375 -1.421875 25.265625 0.953125 
Q 20.953125 3.328125 18.109375 8.203125 
z
M 48.6875 27.296875 
Q 48.6875 37.203125 44.609375 42.84375 
Q 40.53125 48.484375 33.40625 48.484375 
Q 26.265625 48.484375 22.1875 42.84375 
Q 18.109375 37.203125 18.109375 27.296875 
Q 18.109375 17.390625 22.1875 11.75 
Q 26.265625 6.109375 33.40625 6.109375 
Q 40.53125 6.109375 44.609375 11.75 
Q 48.6875 17.390625 48.6875 27.296875 
z
" id="DejaVuSans-112"/>
      </defs>
      <use xlink:href="#DejaVuSans-68"/>
      <use x="77.001953" xlink:href="#DejaVuSans-101"/>
      <use x="138.525391" xlink:href="#DejaVuSans-112"/>
      <use x="202.001953" xlink:href="#DejaVuSans-116"/>
      <use x="241.210938" xlink:href="#DejaVuSans-104"/>
     </g>
    </g>
   </g>
   <g id="patch_3">
    <path d="M 198 352.44 
L 198 47.52 
" style="fill:none;stroke:#000000;stroke-linecap:square;stroke-linejoin:miter;stroke-width:0.8;"/>
   </g>
   <g id="patch_4">
    <path d="M 644.4 352.44 
L 644.4 47.52 
" style="fill:none;stroke:#000000;stroke-linecap:square;stroke-linejoin:miter;stroke-width:0.8;"/>
   </g>
   <g id="patch_5">
    <path d="M 198 352.44 
L 644.4 352.44 
" style="fill:none;stroke:#000000;stroke-linecap:square;stroke-linejoin:miter;stroke-width:0.8;"/>
   </g>
   <g id="patch_6">
    <path d="M 198 47.52 
L 644.4 47.52 
" style="fill:none;stroke:#000000;stroke-linecap:square;stroke-linejoin:miter;stroke-width:0.8;"/>
   </g>
   <g id="text_22">
    <!-- FU -->
    <g transform="translate(409.436719 22.52)scale(0.18 -0.18)">
     <defs>
      <path d="M 9.8125 72.90625 
L 51.703125 72.90625 
L 51.703125 64.59375 
L 19.671875 64.59375 
L 19.671875 43.109375 
L 48.578125 43.109375 
L 48.578125 34.8125 
L 19.671875 34.8125 
L 19.671875 0 
L 9.8125 0 
z
" id="DejaVuSans-70"/>
      <path d="M 8.6875 72.90625 
L 18.609375 72.90625 
L 18.609375 28.609375 
Q 18.609375 16.890625 22.84375 11.734375 
Q 27.09375 6.59375 36.625 6.59375 
Q 46.09375 6.59375 50.34375 11.734375 
Q 54.59375 16.890625 54.59375 28.609375 
L 54.59375 72.90625 
L 64.5 72.90625 
L 64.5 27.390625 
Q 64.5 13.140625 57.4375 5.859375 
Q 50.390625 -1.421875 36.625 -1.421875 
Q 22.796875 -1.421875 15.734375 5.859375 
Q 8.6875 13.140625 8.6875 27.390625 
z
" id="DejaVuSans-85"/>
     </defs>
     <use xlink:href="#DejaVuSans-70"/>
     <use x="57.519531" xlink:href="#DejaVuSans-85"/>
    </g>
   </g>
  </g>
  <g id="axes_2">
   <g id="patch_7">
    <path d="M 733.68 352.44 
L 1180.08 352.44 
L 1180.08 47.52 
L 733.68 47.52 
z
" style="fill:#ffffff;"/>
   </g>
   <g id="PathCollection_9">
    <path clip-path="url(#pc18b48c6ae)" d="M 1006.48 47.52 
L 1031.28 47.52 
L 1056.08 47.52 
L 1080.88 47.52 
L 1105.68 47.52 
L 1116.93697 47.52 
L 1106.554016 85.635 
L 1105.68 88.040311 
L 1083.386208 123.75 
L 1080.88 125.832481 
L 1056.08 143.046161 
L 1031.28 146.549127 
L 1006.48 135.655684 
L 996.837891 123.75 
L 983.716696 85.635 
L 984.773337 47.52 
z
" style="fill:#600000;"/>
   </g>
   <g id="PathCollection_10">
    <path clip-path="url(#pc18b48c6ae)" d="M 981.68 47.52 
L 984.773337 47.52 
L 983.716696 85.635 
L 996.837891 123.75 
L 1006.48 135.655684 
L 1031.28 146.549127 
L 1056.08 143.046161 
L 1080.88 125.832481 
L 1083.386208 123.75 
L 1105.68 88.040311 
L 1106.554016 85.635 
L 1116.93697 47.52 
L 1130.48 47.52 
L 1138.484058 47.52 
L 1146.05766 85.635 
L 1155.28 105.673627 
L 1180.08 98.713717 
L 1180.08 123.75 
L 1180.08 161.865 
L 1180.08 199.98 
L 1180.08 238.095 
L 1180.08 247.891823 
L 1168.092301 238.095 
L 1155.28 224.589873 
L 1140.33558 199.98 
L 1130.48 173.425273 
L 1105.68 170.584972 
L 1080.88 177.519398 
L 1056.08 186.167886 
L 1031.28 191.189799 
L 1006.48 188.726194 
L 981.68 173.000567 
L 973.851677 161.865 
L 960.70307 123.75 
L 960.11648 85.635 
L 965.396534 47.52 
z
" style="fill:#800000;"/>
   </g>
   <g id="PathCollection_11">
    <path clip-path="url(#pc18b48c6ae)" d="M 956.88 47.52 
L 965.396534 47.52 
L 960.11648 85.635 
L 960.70307 123.75 
L 973.851677 161.865 
L 981.68 173.000567 
L 1006.48 188.726194 
L 1031.28 191.189799 
L 1056.08 186.167886 
L 1080.88 177.519398 
L 1105.68 170.584972 
L 1130.48 173.425273 
L 1140.33558 199.98 
L 1155.28 224.589873 
L 1168.092301 238.095 
L 1180.08 247.891823 
L 1180.08 276.21 
L 1180.08 291.399544 
L 1159.463672 276.21 
L 1155.28 273.355858 
L 1130.48 244.101677 
L 1125.43726 238.095 
L 1105.68 218.256546 
L 1080.88 212.924818 
L 1056.08 217.026308 
L 1031.28 222.079304 
L 1006.48 222.065906 
L 981.68 213.765808 
L 966.352882 199.98 
L 956.88 187.237696 
L 947.498519 161.865 
L 943.778049 123.75 
L 947.136547 85.635 
L 955.20688 47.52 
z
" style="fill:#a00000;"/>
    <path clip-path="url(#pc18b48c6ae)" d="M 1155.28 58.530563 
L 1180.08 72.458392 
L 1180.08 85.635 
L 1180.08 98.713717 
L 1155.28 105.673627 
L 1146.05766 85.635 
L 1138.484058 47.52 
L 1151.724848 47.52 
z
" style="fill:#a00000;"/>
   </g>
   <g id="PathCollection_12">
    <path clip-path="url(#pc18b48c6ae)" d="M 932.08 47.52 
L 955.20688 47.52 
L 947.136547 85.635 
L 943.778049 123.75 
L 947.498519 161.865 
L 956.88 187.237696 
L 966.352882 199.98 
L 981.68 213.765808 
L 1006.48 222.065906 
L 1031.28 222.079304 
L 1056.08 217.026308 
L 1080.88 212.924818 
L 1105.68 218.256546 
L 1125.43726 238.095 
L 1130.48 244.101677 
L 1155.28 273.355858 
L 1159.463672 276.21 
L 1180.08 291.399544 
L 1180.08 314.325 
L 1180.08 352.44 
L 1155.28 352.44 
L 1130.48 352.44 
L 1105.68 352.44 
L 1080.88 352.44 
L 1074.114054 352.44 
L 1056.08 339.023839 
L 1031.28 330.720956 
L 1006.48 327.924571 
L 981.68 326.489362 
L 956.88 322.999267 
L 932.08 314.580792 
L 931.584307 314.325 
L 907.28 297.968573 
L 892.629491 276.21 
L 886.308273 238.095 
L 889.771928 199.98 
L 897.333015 161.865 
L 907.112904 123.75 
L 907.28 123.298733 
L 917.292884 85.635 
L 930.115921 47.52 
z
" style="fill:#ff7d63;"/>
    <path clip-path="url(#pc18b48c6ae)" d="M 1155.28 47.52 
L 1180.08 47.52 
L 1180.08 72.458392 
L 1155.28 58.530563 
L 1151.724848 47.52 
z
" style="fill:#ff7d63;"/>
   </g>
   <g id="PathCollection_13">
    <path clip-path="url(#pc18b48c6ae)" d="M 907.28 66.087457 
L 913.613832 47.52 
L 930.115921 47.52 
L 917.292884 85.635 
L 907.28 123.298733 
L 907.112904 123.75 
L 897.333015 161.865 
L 889.771928 199.98 
L 886.308273 238.095 
L 892.629491 276.21 
L 907.28 297.968573 
L 931.584307 314.325 
L 932.08 314.580792 
L 956.88 322.999267 
L 981.68 326.489362 
L 1006.48 327.924571 
L 1031.28 330.720956 
L 1056.08 339.023839 
L 1074.114054 352.44 
L 1056.08 352.44 
L 1031.28 352.44 
L 1006.48 352.44 
L 981.68 352.44 
L 956.88 352.44 
L 932.08 352.44 
L 907.28 352.44 
L 882.48 352.44 
L 857.68 352.44 
L 832.88 352.44 
L 808.08 352.44 
L 783.28 352.44 
L 758.48 352.44 
L 750.213333 352.44 
L 758.48 343.273101 
L 765.972447 314.325 
L 783.28 303.033477 
L 801.092827 276.21 
L 808.08 269.910343 
L 827.393235 238.095 
L 832.88 231.304586 
L 849.266998 199.98 
L 857.68 185.52798 
L 867.181234 161.865 
L 882.48 127.637233 
L 883.710054 123.75 
L 898.407613 85.635 
z
" style="fill:#ffa997;"/>
   </g>
   <g id="PathCollection_14">
    <path clip-path="url(#pc18b48c6ae)" d="M 882.48 71.333933 
L 893.044212 47.52 
L 907.28 47.52 
L 913.613832 47.52 
L 907.28 66.087457 
L 898.407613 85.635 
L 883.710054 123.75 
L 882.48 127.637233 
L 867.181234 161.865 
L 857.68 185.52798 
L 849.266998 199.98 
L 832.88 231.304586 
L 827.393235 238.095 
L 808.08 269.910343 
L 801.092827 276.21 
L 783.28 303.033477 
L 765.972447 314.325 
L 758.48 343.273101 
L 750.213333 352.44 
L 733.68 352.44 
L 733.68 314.325 
L 733.68 276.21 
L 733.68 238.095 
L 733.68 218.639814 
L 758.48 214.842126 
L 783.28 202.677466 
L 786.495354 199.98 
L 808.08 183.573424 
L 826.39535 161.865 
L 832.88 154.658341 
L 852.895421 123.75 
L 857.68 117.030156 
L 874.376428 85.635 
z
" style="fill:#ffc5ba;"/>
   </g>
   <g id="PathCollection_15">
    <path clip-path="url(#pc18b48c6ae)" d="M 857.68 61.866085 
L 865.755823 47.52 
L 882.48 47.52 
L 893.044212 47.52 
L 882.48 71.333933 
L 874.376428 85.635 
L 857.68 117.030156 
L 852.895421 123.75 
L 832.88 154.658341 
L 826.39535 161.865 
L 808.08 183.573424 
L 786.495354 199.98 
L 783.28 202.677466 
L 758.48 214.842126 
L 733.68 218.639814 
L 733.68 199.98 
L 733.68 161.865 
L 733.68 156.83075 
L 758.48 152.705175 
L 783.28 141.830972 
L 806.929477 123.75 
L 808.08 122.894749 
L 832.88 96.813566 
L 840.827116 85.635 
z
" style="fill:#ffe2dc;"/>
   </g>
   <g id="PathCollection_16">
    <path clip-path="url(#pc18b48c6ae)" d="M 783.28 83.83998 
L 808.08 64.560948 
L 824.421218 47.52 
L 832.88 47.52 
L 857.68 47.52 
L 865.755823 47.52 
L 857.68 61.866085 
L 840.827116 85.635 
L 832.88 96.813566 
L 808.08 122.894749 
L 806.929477 123.75 
L 783.28 141.830972 
L 758.48 152.705175 
L 733.68 156.83075 
L 733.68 123.75 
L 733.68 99.219041 
L 758.48 94.789237 
L 779.568675 85.635 
z
" style="fill:#4fc3f7;"/>
   </g>
   <g id="PathCollection_17">
    <path clip-path="url(#pc18b48c6ae)" d="M 758.48 69.66478 
L 783.28 57.616168 
L 796.644126 47.52 
L 808.08 47.52 
L 824.421218 47.52 
L 808.08 64.560948 
L 783.28 83.83998 
L 779.568675 85.635 
L 758.48 94.789237 
L 733.68 99.219041 
L 733.68 85.635 
L 733.68 74.948814 
z
" style="fill:#0288d1;"/>
   </g>
   <g id="PathCollection_18">
    <path clip-path="url(#pc18b48c6ae)" d="M 758.48 47.52 
L 783.28 47.52 
L 796.644126 47.52 
L 783.28 57.616168 
L 758.48 69.66478 
L 733.68 74.948814 
L 733.68 47.52 
z
" style="fill:#01579b;"/>
   </g>
   <g id="matplotlib.axis_3">
    <g id="xtick_11">
     <g id="line2d_20">
      <g>
       <use style="stroke:#000000;stroke-width:0.8;" x="733.68" xlink:href="#mdb362e6b2d" y="352.44"/>
      </g>
     </g>
     <g id="text_23">
      <!-- 0 -->
      <g transform="translate(727.95375 373.117188)scale(0.18 -0.18)">
       <use xlink:href="#DejaVuSans-48"/>
      </g>
     </g>
    </g>
    <g id="xtick_12">
     <g id="line2d_21">
      <g>
       <use style="stroke:#000000;stroke-width:0.8;" x="783.28" xlink:href="#mdb362e6b2d" y="352.44"/>
      </g>
     </g>
     <g id="text_24">
      <!-- 10 -->
      <g transform="translate(771.8275 373.117188)scale(0.18 -0.18)">
       <use xlink:href="#DejaVuSans-49"/>
       <use x="63.623047" xlink:href="#DejaVuSans-48"/>
      </g>
     </g>
    </g>
    <g id="xtick_13">
     <g id="line2d_22">
      <g>
       <use style="stroke:#000000;stroke-width:0.8;" x="832.88" xlink:href="#mdb362e6b2d" y="352.44"/>
      </g>
     </g>
     <g id="text_25">
      <!-- 20 -->
      <g transform="translate(821.4275 373.117188)scale(0.18 -0.18)">
       <use xlink:href="#DejaVuSans-50"/>
       <use x="63.623047" xlink:href="#DejaVuSans-48"/>
      </g>
     </g>
    </g>
    <g id="xtick_14">
     <g id="line2d_23">
      <g>
       <use style="stroke:#000000;stroke-width:0.8;" x="882.48" xlink:href="#mdb362e6b2d" y="352.44"/>
      </g>
     </g>
     <g id="text_26">
      <!-- 30 -->
      <g transform="translate(871.0275 373.117188)scale(0.18 -0.18)">
       <use xlink:href="#DejaVuSans-51"/>
       <use x="63.623047" xlink:href="#DejaVuSans-48"/>
      </g>
     </g>
    </g>
    <g id="xtick_15">
     <g id="line2d_24">
      <g>
       <use style="stroke:#000000;stroke-width:0.8;" x="932.08" xlink:href="#mdb362e6b2d" y="352.44"/>
      </g>
     </g>
     <g id="text_27">
      <!-- 40 -->
      <g transform="translate(920.6275 373.117188)scale(0.18 -0.18)">
       <use xlink:href="#DejaVuSans-52"/>
       <use x="63.623047" xlink:href="#DejaVuSans-48"/>
      </g>
     </g>
    </g>
    <g id="xtick_16">
     <g id="line2d_25">
      <g>
       <use style="stroke:#000000;stroke-width:0.8;" x="981.68" xlink:href="#mdb362e6b2d" y="352.44"/>
      </g>
     </g>
     <g id="text_28">
      <!-- 50 -->
      <g transform="translate(970.2275 373.117188)scale(0.18 -0.18)">
       <use xlink:href="#DejaVuSans-53"/>
       <use x="63.623047" xlink:href="#DejaVuSans-48"/>
      </g>
     </g>
    </g>
    <g id="xtick_17">
     <g id="line2d_26">
      <g>
       <use style="stroke:#000000;stroke-width:0.8;" x="1031.28" xlink:href="#mdb362e6b2d" y="352.44"/>
      </g>
     </g>
     <g id="text_29">
      <!-- 60 -->
      <g transform="translate(1019.8275 373.117188)scale(0.18 -0.18)">
       <use xlink:href="#DejaVuSans-54"/>
       <use x="63.623047" xlink:href="#DejaVuSans-48"/>
      </g>
     </g>
    </g>
    <g id="xtick_18">
     <g id="line2d_27">
      <g>
       <use style="stroke:#000000;stroke-width:0.8;" x="1080.88" xlink:href="#mdb362e6b2d" y="352.44"/>
      </g>
     </g>
     <g id="text_30">
      <!-- 70 -->
      <g transform="translate(1069.4275 373.117188)scale(0.18 -0.18)">
       <use xlink:href="#DejaVuSans-55"/>
       <use x="63.623047" xlink:href="#DejaVuSans-48"/>
      </g>
     </g>
    </g>
    <g id="xtick_19">
     <g id="line2d_28">
      <g>
       <use style="stroke:#000000;stroke-width:0.8;" x="1130.48" xlink:href="#mdb362e6b2d" y="352.44"/>
      </g>
     </g>
     <g id="text_31">
      <!-- 80 -->
      <g transform="translate(1119.0275 373.117188)scale(0.18 -0.18)">
       <use xlink:href="#DejaVuSans-56"/>
       <use x="63.623047" xlink:href="#DejaVuSans-48"/>
      </g>
     </g>
    </g>
    <g id="xtick_20">
     <g id="line2d_29">
      <g>
       <use style="stroke:#000000;stroke-width:0.8;" x="1180.08" xlink:href="#mdb362e6b2d" y="352.44"/>
      </g>
     </g>
     <g id="text_32">
      <!-- 90 -->
      <g transform="translate(1168.6275 373.117188)scale(0.18 -0.18)">
       <use xlink:href="#DejaVuSans-57"/>
       <use x="63.623047" xlink:href="#DejaVuSans-48"/>
      </g>
     </g>
    </g>
    <g id="text_33">
     <!-- Across the rows -->
     <g transform="translate(886.007812 395.537812)scale(0.18 -0.18)">
      <use xlink:href="#DejaVuSans-65"/>
      <use x="66.658203" xlink:href="#DejaVuSans-99"/>
      <use x="121.638672" xlink:href="#DejaVuSans-114"/>
      <use x="160.501953" xlink:href="#DejaVuSans-111"/>
      <use x="221.683594" xlink:href="#DejaVuSans-115"/>
      <use x="273.783203" xlink:href="#DejaVuSans-115"/>
      <use x="325.882812" xlink:href="#DejaVuSans-32"/>
      <use x="357.669922" xlink:href="#DejaVuSans-116"/>
      <use x="396.878906" xlink:href="#DejaVuSans-104"/>
      <use x="460.257812" xlink:href="#DejaVuSans-101"/>
      <use x="521.78125" xlink:href="#DejaVuSans-32"/>
      <use x="553.568359" xlink:href="#DejaVuSans-114"/>
      <use x="592.431641" xlink:href="#DejaVuSans-111"/>
      <use x="653.613281" xlink:href="#DejaVuSans-119"/>
      <use x="735.400391" xlink:href="#DejaVuSans-115"/>
     </g>
    </g>
   </g>
   <g id="matplotlib.axis_4">
    <g id="ytick_10">
     <g id="line2d_30">
      <g>
       <use style="stroke:#000000;stroke-width:0.8;" x="733.68" xlink:href="#m43633af573" y="352.44"/>
      </g>
     </g>
     <g id="text_34">
      <!-- −60 -->
      <g transform="translate(688.691562 359.278594)scale(0.18 -0.18)">
       <use xlink:href="#DejaVuSans-8722"/>
       <use x="83.789062" xlink:href="#DejaVuSans-54"/>
       <use x="147.412109" xlink:href="#DejaVuSans-48"/>
      </g>
     </g>
    </g>
    <g id="ytick_11">
     <g id="line2d_31">
      <g>
       <use style="stroke:#000000;stroke-width:0.8;" x="733.68" xlink:href="#m43633af573" y="314.325"/>
      </g>
     </g>
     <g id="text_35">
      <!-- −55 -->
      <g transform="translate(688.691562 321.163594)scale(0.18 -0.18)">
       <use xlink:href="#DejaVuSans-8722"/>
       <use x="83.789062" xlink:href="#DejaVuSans-53"/>
       <use x="147.412109" xlink:href="#DejaVuSans-53"/>
      </g>
     </g>
    </g>
    <g id="ytick_12">
     <g id="line2d_32">
      <g>
       <use style="stroke:#000000;stroke-width:0.8;" x="733.68" xlink:href="#m43633af573" y="276.21"/>
      </g>
     </g>
     <g id="text_36">
      <!-- −50 -->
      <g transform="translate(688.691562 283.048594)scale(0.18 -0.18)">
       <use xlink:href="#DejaVuSans-8722"/>
       <use x="83.789062" xlink:href="#DejaVuSans-53"/>
       <use x="147.412109" xlink:href="#DejaVuSans-48"/>
      </g>
     </g>
    </g>
    <g id="ytick_13">
     <g id="line2d_33">
      <g>
       <use style="stroke:#000000;stroke-width:0.8;" x="733.68" xlink:href="#m43633af573" y="238.095"/>
      </g>
     </g>
     <g id="text_37">
      <!-- −45 -->
      <g transform="translate(688.691562 244.933594)scale(0.18 -0.18)">
       <use xlink:href="#DejaVuSans-8722"/>
       <use x="83.789062" xlink:href="#DejaVuSans-52"/>
       <use x="147.412109" xlink:href="#DejaVuSans-53"/>
      </g>
     </g>
    </g>
    <g id="ytick_14">
     <g id="line2d_34">
      <g>
       <use style="stroke:#000000;stroke-width:0.8;" x="733.68" xlink:href="#m43633af573" y="199.98"/>
      </g>
     </g>
     <g id="text_38">
      <!-- −40 -->
      <g transform="translate(688.691562 206.818594)scale(0.18 -0.18)">
       <use xlink:href="#DejaVuSans-8722"/>
       <use x="83.789062" xlink:href="#DejaVuSans-52"/>
       <use x="147.412109" xlink:href="#DejaVuSans-48"/>
      </g>
     </g>
    </g>
    <g id="ytick_15">
     <g id="line2d_35">
      <g>
       <use style="stroke:#000000;stroke-width:0.8;" x="733.68" xlink:href="#m43633af573" y="161.865"/>
      </g>
     </g>
     <g id="text_39">
      <!-- −35 -->
      <g transform="translate(688.691562 168.703594)scale(0.18 -0.18)">
       <use xlink:href="#DejaVuSans-8722"/>
       <use x="83.789062" xlink:href="#DejaVuSans-51"/>
       <use x="147.412109" xlink:href="#DejaVuSans-53"/>
      </g>
     </g>
    </g>
    <g id="ytick_16">
     <g id="line2d_36">
      <g>
       <use style="stroke:#000000;stroke-width:0.8;" x="733.68" xlink:href="#m43633af573" y="123.75"/>
      </g>
     </g>
     <g id="text_40">
      <!-- −30 -->
      <g transform="translate(688.691562 130.588594)scale(0.18 -0.18)">
       <use xlink:href="#DejaVuSans-8722"/>
       <use x="83.789062" xlink:href="#DejaVuSans-51"/>
       <use x="147.412109" xlink:href="#DejaVuSans-48"/>
      </g>
     </g>
    </g>
    <g id="ytick_17">
     <g id="line2d_37">
      <g>
       <use style="stroke:#000000;stroke-width:0.8;" x="733.68" xlink:href="#m43633af573" y="85.635"/>
      </g>
     </g>
     <g id="text_41">
      <!-- −25 -->
      <g transform="translate(688.691562 92.473594)scale(0.18 -0.18)">
       <use xlink:href="#DejaVuSans-8722"/>
       <use x="83.789062" xlink:href="#DejaVuSans-50"/>
       <use x="147.412109" xlink:href="#DejaVuSans-53"/>
      </g>
     </g>
    </g>
    <g id="ytick_18">
     <g id="line2d_38">
      <g>
       <use style="stroke:#000000;stroke-width:0.8;" x="733.68" xlink:href="#m43633af573" y="47.52"/>
      </g>
     </g>
     <g id="text_42">
      <!-- −20 -->
      <g transform="translate(688.691562 54.358594)scale(0.18 -0.18)">
       <use xlink:href="#DejaVuSans-8722"/>
       <use x="83.789062" xlink:href="#DejaVuSans-50"/>
       <use x="147.412109" xlink:href="#DejaVuSans-48"/>
      </g>
     </g>
    </g>
    <g id="text_43">
     <!-- Depth -->
     <g transform="translate(674.948125 227.393438)rotate(-90)scale(0.18 -0.18)">
      <use xlink:href="#DejaVuSans-68"/>
      <use x="77.001953" xlink:href="#DejaVuSans-101"/>
      <use x="138.525391" xlink:href="#DejaVuSans-112"/>
      <use x="202.001953" xlink:href="#DejaVuSans-116"/>
      <use x="241.210938" xlink:href="#DejaVuSans-104"/>
     </g>
    </g>
   </g>
   <g id="patch_8">
    <path d="M 733.68 352.44 
L 733.68 47.52 
" style="fill:none;stroke:#000000;stroke-linecap:square;stroke-linejoin:miter;stroke-width:0.8;"/>
   </g>
   <g id="patch_9">
    <path d="M 1180.08 352.44 
L 1180.08 47.52 
" style="fill:none;stroke:#000000;stroke-linecap:square;stroke-linejoin:miter;stroke-width:0.8;"/>
   </g>
   <g id="patch_10">
    <path d="M 733.68 352.44 
L 1180.08 352.44 
" style="fill:none;stroke:#000000;stroke-linecap:square;stroke-linejoin:miter;stroke-width:0.8;"/>
   </g>
   <g id="patch_11">
    <path d="M 733.68 47.52 
L 1180.08 47.52 
" style="fill:none;stroke:#000000;stroke-linecap:square;stroke-linejoin:miter;stroke-width:0.8;"/>
   </g>
   <g id="text_44">
    <!-- FA -->
    <g transform="translate(946.368281 22.52)scale(0.18 -0.18)">
     <use xlink:href="#DejaVuSans-70"/>
     <use x="48.394531" xlink:href="#DejaVuSans-65"/>
    </g>
   </g>
  </g>
  <g id="axes_3">
   <g id="patch_12">
    <path clip-path="url(#pde5054f3d4)" d="M 1241.46 352.44 
L 1241.46 321.948 
L 1241.46 78.012 
L 1241.46 47.52 
L 1256.706 47.52 
L 1256.706 78.012 
L 1256.706 321.948 
L 1256.706 352.44 
z
" style="fill:#ffffff;stroke:#ffffff;stroke-linejoin:miter;stroke-width:0.01;"/>
   </g>
   <g id="QuadMesh_1">
    <path clip-path="url(#pde5054f3d4)" d="M 1241.46 352.44 
L 1256.706 352.44 
L 1256.706 321.948 
L 1241.46 321.948 
L 1241.46 352.44 
" style="fill:#600000;"/>
    <path clip-path="url(#pde5054f3d4)" d="M 1241.46 321.948 
L 1256.706 321.948 
L 1256.706 291.456 
L 1241.46 291.456 
L 1241.46 321.948 
" style="fill:#800000;"/>
    <path clip-path="url(#pde5054f3d4)" d="M 1241.46 291.456 
L 1256.706 291.456 
L 1256.706 260.964 
L 1241.46 260.964 
L 1241.46 291.456 
" style="fill:#a00000;"/>
    <path clip-path="url(#pde5054f3d4)" d="M 1241.46 260.964 
L 1256.706 260.964 
L 1256.706 230.472 
L 1241.46 230.472 
L 1241.46 260.964 
" style="fill:#ff7d63;"/>
    <path clip-path="url(#pde5054f3d4)" d="M 1241.46 230.472 
L 1256.706 230.472 
L 1256.706 199.98 
L 1241.46 199.98 
L 1241.46 230.472 
" style="fill:#ffa997;"/>
    <path clip-path="url(#pde5054f3d4)" d="M 1241.46 199.98 
L 1256.706 199.98 
L 1256.706 169.488 
L 1241.46 169.488 
L 1241.46 199.98 
" style="fill:#ffc5ba;"/>
    <path clip-path="url(#pde5054f3d4)" d="M 1241.46 169.488 
L 1256.706 169.488 
L 1256.706 138.996 
L 1241.46 138.996 
L 1241.46 169.488 
" style="fill:#ffe2dc;"/>
    <path clip-path="url(#pde5054f3d4)" d="M 1241.46 138.996 
L 1256.706 138.996 
L 1256.706 108.504 
L 1241.46 108.504 
L 1241.46 138.996 
" style="fill:#4fc3f7;"/>
    <path clip-path="url(#pde5054f3d4)" d="M 1241.46 108.504 
L 1256.706 108.504 
L 1256.706 78.012 
L 1241.46 78.012 
L 1241.46 108.504 
" style="fill:#0288d1;"/>
    <path clip-path="url(#pde5054f3d4)" d="M 1241.46 78.012 
L 1256.706 78.012 
L 1256.706 47.52 
L 1241.46 47.52 
L 1241.46 78.012 
" style="fill:#01579b;"/>
   </g>
   <g id="matplotlib.axis_5"/>
   <g id="matplotlib.axis_6">
    <g id="ytick_19">
     <g id="line2d_39">
      <defs>
       <path d="M 0 0 
L 3.5 0 
" id="m3ac2f2ec28" style="stroke:#000000;stroke-width:0.8;"/>
      </defs>
      <g>
       <use style="stroke:#000000;stroke-width:0.8;" x="1256.706" xlink:href="#m3ac2f2ec28" y="352.44"/>
      </g>
     </g>
     <g id="text_45">
      <!-- −800 -->
      <g transform="translate(1263.706 359.278594)scale(0.18 -0.18)">
       <use xlink:href="#DejaVuSans-8722"/>
       <use x="83.789062" xlink:href="#DejaVuSans-56"/>
       <use x="147.412109" xlink:href="#DejaVuSans-48"/>
       <use x="211.035156" xlink:href="#DejaVuSans-48"/>
      </g>
     </g>
    </g>
    <g id="ytick_20">
     <g id="line2d_40">
      <g>
       <use style="stroke:#000000;stroke-width:0.8;" x="1256.706" xlink:href="#m3ac2f2ec28" y="291.456"/>
      </g>
     </g>
     <g id="text_46">
      <!-- −400 -->
      <g transform="translate(1263.706 298.294594)scale(0.18 -0.18)">
       <use xlink:href="#DejaVuSans-8722"/>
       <use x="83.789062" xlink:href="#DejaVuSans-52"/>
       <use x="147.412109" xlink:href="#DejaVuSans-48"/>
       <use x="211.035156" xlink:href="#DejaVuSans-48"/>
      </g>
     </g>
    </g>
    <g id="ytick_21">
     <g id="line2d_41">
      <g>
       <use style="stroke:#000000;stroke-width:0.8;" x="1256.706" xlink:href="#m3ac2f2ec28" y="230.472"/>
      </g>
     </g>
     <g id="text_47">
      <!-- −250 -->
      <g transform="translate(1263.706 237.310594)scale(0.18 -0.18)">
       <use xlink:href="#DejaVuSans-8722"/>
       <use x="83.789062" xlink:href="#DejaVuSans-50"/>
       <use x="147.412109" xlink:href="#DejaVuSans-53"/>
       <use x="211.035156" xlink:href="#DejaVuSans-48"/>
      </g>
     </g>
    </g>
    <g id="ytick_22">
     <g id="line2d_42">
      <g>
       <use style="stroke:#000000;stroke-width:0.8;" x="1256.706" xlink:href="#m3ac2f2ec28" y="169.488"/>
      </g>
     </g>
     <g id="text_48">
      <!-- −150 -->
      <g transform="translate(1263.706 176.326594)scale(0.18 -0.18)">
       <use xlink:href="#DejaVuSans-8722"/>
       <use x="83.789062" xlink:href="#DejaVuSans-49"/>
       <use x="147.412109" xlink:href="#DejaVuSans-53"/>
       <use x="211.035156" xlink:href="#DejaVuSans-48"/>
      </g>
     </g>
    </g>
    <g id="ytick_23">
     <g id="line2d_43">
      <g>
       <use style="stroke:#000000;stroke-width:0.8;" x="1256.706" xlink:href="#m3ac2f2ec28" y="108.504"/>
      </g>
     </g>
     <g id="text_49">
      <!-- −50 -->
      <g transform="translate(1263.706 115.342594)scale(0.18 -0.18)">
       <use xlink:href="#DejaVuSans-8722"/>
       <use x="83.789062" xlink:href="#DejaVuSans-53"/>
       <use x="147.412109" xlink:href="#DejaVuSans-48"/>
      </g>
     </g>
    </g>
    <g id="ytick_24">
     <g id="line2d_44">
      <g>
       <use style="stroke:#000000;stroke-width:0.8;" x="1256.706" xlink:href="#m3ac2f2ec28" y="47.52"/>
      </g>
     </g>
     <g id="text_50">
      <!-- 0 -->
      <g transform="translate(1263.706 54.358594)scale(0.18 -0.18)">
       <use xlink:href="#DejaVuSans-48"/>
      </g>
     </g>
    </g>
   </g>
   <g id="patch_13">
    <path d="M 1241.46 352.44 
L 1241.46 321.948 
L 1241.46 78.012 
L 1241.46 47.52 
L 1256.706 47.52 
L 1256.706 78.012 
L 1256.706 321.948 
L 1256.706 352.44 
z
" style="fill:none;stroke:#000000;stroke-linejoin:miter;stroke-width:0.8;"/>
   </g>
  </g>
 </g>
 <defs>
  <clipPath id="pd5a37fbeae">
   <rect height="304.92" width="446.4" x="198" y="47.52"/>
  </clipPath>
  <clipPath id="pc18b48c6ae">
   <rect height="304.92" width="446.4" x="733.68" y="47.52"/>
  </clipPath>
  <clipPath id="pde5054f3d4">
   <rect height="304.92" width="15.246" x="1241.46" y="47.52"/>
  </clipPath>
 </defs>
</svg>
