<svg width="2105" height="1272" xmlns="http://www.w3.org/2000/svg" xmlns:xlink="http://www.w3.org/1999/xlink" overflow="hidden"><defs><clipPath id="clip0"><rect x="563" y="434" width="2105" height="1272"/></clipPath><radialGradient cx="828502" cy="-0.0625" r="1.23391e+06" fx="828502" fy="0" gradientUnits="userSpaceOnUse" spreadMethod="pad" id="fill1" gradientTransform="scale(0.000360892 0.000360892)"><stop offset="0" stop-color="#2C5981" stop-opacity="0.909804"/><stop offset="0.39" stop-color="#DEEBF7"/><stop offset="1" stop-color="#C00000"/></radialGradient><radialGradient cx="828502" cy="-0.0625" r="1.23391e+06" fx="828502" fy="0" gradientUnits="userSpaceOnUse" spreadMethod="pad" id="fill2" gradientTransform="scale(0.000360892 0.000360892)"><stop offset="0" stop-color="#234868" stop-opacity="0.909804"/><stop offset="0.39" stop-color="#B2BDC7"/><stop offset="1" stop-color="#9A0000"/></radialGradient><radialGradient cx="828502" cy="-0.0625" r="1.23391e+06" fx="828502" fy="0" gradientUnits="userSpaceOnUse" spreadMethod="pad" id="fill3" gradientTransform="scale(0.000360892 0.000360892)"><stop offset="0" stop-color="#557A9A" stop-opacity="0.909804"/><stop offset="0.39" stop-color="#E4EFF9"/><stop offset="1" stop-color="#CC3232"/></radialGradient></defs><g clip-path="url(#clip0)" transform="translate(-563 -434)"><path d="M0 10.1541 288.846 10.1541 288.846 330 0 330Z" fill="url(#fill1)" fill-rule="evenodd" transform="matrix(-1 0 0 1 1661 1073)"/><path d="M288.846 10.1541 299 0 299 319.846 288.846 330Z" fill="url(#fill2)" fill-rule="evenodd" transform="matrix(-1 0 0 1 1661 1073)"/><path d="M0 10.1541 10.1541 0 299 0 288.846 10.1541Z" fill="url(#fill3)" fill-rule="evenodd" transform="matrix(-1 0 0 1 1661 1073)"/><path d="M1391.5 1142.5C1391.5 1135.32 1397.32 1129.5 1404.5 1129.5 1411.68 1129.5 1417.5 1135.32 1417.5 1142.5 1417.5 1149.68 1411.68 1155.5 1404.5 1155.5 1397.32 1155.5 1391.5 1149.68 1391.5 1142.5Z" stroke="#000000" stroke-width="4.58333" stroke-miterlimit="8" fill-rule="evenodd"/><path d="M1390.5 1330C1390.5 1322.54 1396.32 1316.5 1403.5 1316.5 1410.68 1316.5 1416.5 1322.54 1416.5 1330 1416.5 1337.46 1410.68 1343.5 1403.5 1343.5 1396.32 1343.5 1390.5 1337.46 1390.5 1330Z" stroke="#000000" stroke-width="4.58333" stroke-miterlimit="8" fill-rule="evenodd"/><path d="M1493.5 1145C1493.5 1137.54 1499.54 1131.5 1507 1131.5 1514.46 1131.5 1520.5 1137.54 1520.5 1145 1520.5 1152.46 1514.46 1158.5 1507 1158.5 1499.54 1158.5 1493.5 1152.46 1493.5 1145Z" stroke="#000000" stroke-width="4.58333" stroke-miterlimit="8" fill-rule="evenodd"/><path d="M1492.5 1332.5C1492.5 1325.32 1498.54 1319.5 1506 1319.5 1513.46 1319.5 1519.5 1325.32 1519.5 1332.5 1519.5 1339.68 1513.46 1345.5 1506 1345.5 1498.54 1345.5 1492.5 1339.68 1492.5 1332.5Z" stroke="#000000" stroke-width="4.58333" stroke-miterlimit="8" fill-rule="evenodd"/><path d="M1596.5 1147C1596.5 1139.54 1602.32 1133.5 1609.5 1133.5 1616.68 1133.5 1622.5 1139.54 1622.5 1147 1622.5 1154.46 1616.68 1160.5 1609.5 1160.5 1602.32 1160.5 1596.5 1154.46 1596.5 1147Z" stroke="#000000" stroke-width="4.58333" stroke-miterlimit="8" fill-rule="evenodd"/><path d="M1595.5 1334.5C1595.5 1327.32 1601.32 1321.5 1608.5 1321.5 1615.68 1321.5 1621.5 1327.32 1621.5 1334.5 1621.5 1341.68 1615.68 1347.5 1608.5 1347.5 1601.32 1347.5 1595.5 1341.68 1595.5 1334.5Z" stroke="#000000" stroke-width="4.58333" stroke-miterlimit="8" fill-rule="evenodd"/><path d="M1390.5 1236.5C1390.5 1229.32 1396.32 1223.5 1403.5 1223.5 1410.68 1223.5 1416.5 1229.32 1416.5 1236.5 1416.5 1243.68 1410.68 1249.5 1403.5 1249.5 1396.32 1249.5 1390.5 1243.68 1390.5 1236.5Z" stroke="#000000" stroke-width="4.58333" stroke-miterlimit="8" fill-rule="evenodd"/><path d="M1492.5 1238.5C1492.5 1231.32 1498.54 1225.5 1506 1225.5 1513.46 1225.5 1519.5 1231.32 1519.5 1238.5 1519.5 1245.68 1513.46 1251.5 1506 1251.5 1498.54 1251.5 1492.5 1245.68 1492.5 1238.5Z" stroke="#000000" stroke-width="4.58333" stroke-miterlimit="8" fill-rule="evenodd"/><path d="M1595.5 1241C1595.5 1233.54 1601.32 1227.5 1608.5 1227.5 1615.68 1227.5 1621.5 1233.54 1621.5 1241 1621.5 1248.46 1615.68 1254.5 1608.5 1254.5 1601.32 1254.5 1595.5 1248.46 1595.5 1241Z" stroke="#000000" stroke-width="4.58333" stroke-miterlimit="8" fill-rule="evenodd"/><text font-family="Times New Roman,Times New Roman_MSFontService,sans-serif" font-weight="400" font-size="55" transform="matrix(1 0 0 1 1398.61 1476)">Real<tspan font-size="55" x="101.406" y="0">-</tspan><tspan font-size="55" x="119.74" y="0">time </tspan><tspan font-size="55" x="-14.0249" y="66">sensor</tspan><tspan font-size="55" x="140.09" y="66">data</tspan><tspan font-size="55" x="967.038" y="-249">Soil</tspan><tspan font-size="55" x="1069.59" y="-249">profile</tspan></text><rect x="2339.5" y="881.5" width="59.9998" height="60.0002" stroke="#181717" stroke-width="4.58333" stroke-miterlimit="8" fill="#567B9B"/><rect x="2457.5" y="881.5" width="60.0002" height="60.0002" stroke="#181717" stroke-width="4.58333" stroke-miterlimit="8" fill="#DCDAE5"/><rect x="2576.5" y="881.5" width="60.0002" height="60.0002" stroke="#181717" stroke-width="4.58333" stroke-miterlimit="8" fill="#CF747A"/><rect x="2339.5" y="1118.5" width="59.9998" height="59.9998" stroke="#181717" stroke-width="4.58333" stroke-miterlimit="8" fill="#CF747A"/><rect x="2457.5" y="1118.5" width="60.0002" height="59.9998" stroke="#181717" stroke-width="4.58333" stroke-miterlimit="8" fill="#CC5C61"/><rect x="2576.5" y="1118.5" width="60.0002" height="59.9998" stroke="#181717" stroke-width="4.58333" stroke-miterlimit="8" fill="#C5282A"/><rect x="2339.5" y="999.5" width="59.9998" height="60.9999" stroke="#181717" stroke-width="4.58333" stroke-miterlimit="8" fill="#DCDAE5"/><rect x="2457.5" y="999.5" width="60.0002" height="60.9999" stroke="#181717" stroke-width="4.58333" stroke-miterlimit="8" fill="#CF747A"/><rect x="2576.5" y="999.5" width="60.0002" height="60.9999" stroke="#181717" stroke-width="4.58333" stroke-miterlimit="8" fill="#CC5C61"/><rect x="2398.5" y="881.5" width="60.0002" height="60.0002" stroke="#181717" stroke-width="4.58333" stroke-miterlimit="8" fill="#90ABC3"/><rect x="2516.5" y="881.5" width="59.9998" height="60.0002" stroke="#181717" stroke-width="4.58333" stroke-miterlimit="8" fill="#D49DA5"/><rect x="2398.5" y="1118.5" width="60.0002" height="59.9998" stroke="#181717" stroke-width="4.58333" stroke-miterlimit="8" fill="#CF7278"/><rect x="2516.5" y="1118.5" width="59.9998" height="59.9998" stroke="#181717" stroke-width="4.58333" stroke-miterlimit="8" fill="#CB5357"/><rect x="2398.5" y="999.5" width="60.0002" height="60.9999" stroke="#181717" stroke-width="4.58333" stroke-miterlimit="8" fill="#D49DA5"/><rect x="2516.5" y="999.5" width="59.9998" height="60.9999" stroke="#181717" stroke-width="4.58333" stroke-miterlimit="8" fill="#CF7278"/><rect x="2339.5" y="942.5" width="59.9998" height="59.9998" stroke="#181717" stroke-width="4.58333" stroke-miterlimit="8" fill="#90ABC3"/><rect x="2457.5" y="942.5" width="60.0002" height="59.9998" stroke="#181717" stroke-width="4.58333" stroke-miterlimit="8" fill="#D49DA5"/><rect x="2576.5" y="942.5" width="60.0002" height="59.9998" stroke="#181717" stroke-width="4.58333" stroke-miterlimit="8" fill="#CF7278"/><rect x="2398.5" y="942.5" width="60.0002" height="59.9998" stroke="#181717" stroke-width="4.58333" stroke-miterlimit="8" fill="#DCDAE5"/><rect x="2516.5" y="942.5" width="59.9998" height="59.9998" stroke="#181717" stroke-width="4.58333" stroke-miterlimit="8" fill="#CF747A"/><rect x="2339.5" y="1059.5" width="59.9998" height="60.0001" stroke="#181717" stroke-width="4.58333" stroke-miterlimit="8" fill="#D49DA5"/><rect x="2457.5" y="1059.5" width="60.0002" height="60.0001" stroke="#181717" stroke-width="4.58333" stroke-miterlimit="8" fill="#CF7278"/><rect x="2576.5" y="1059.5" width="60.0002" height="60.0001" stroke="#181717" stroke-width="4.58333" stroke-miterlimit="8" fill="#C9474B"/><rect x="2398.5" y="1059.5" width="60.0002" height="60.0001" stroke="#181717" stroke-width="4.58333" stroke-miterlimit="8" fill="#CF747A"/><rect x="2516.5" y="1059.5" width="59.9998" height="60.0001" stroke="#181717" stroke-width="4.58333" stroke-miterlimit="8" fill="#CC5C61"/><path d="M0.762064-0.855683 223.692 197.684 222.168 199.395-0.762064 0.855683ZM228.652 185.223 240.044 213.781 210.363 205.76Z" transform="matrix(1 0 0 -1 1661 1242.78)"/><path d="M2231 1027.85 2315.44 1028.03 2315.44 1030.32 2231 1030.15ZM2310.89 1015.42 2338.36 1029.22 2310.83 1042.92Z"/><path d="M644.5 648.5 762.5 439.5 880.5 648.5Z" stroke="#787878" stroke-width="4.58333" stroke-miterlimit="8" fill="#A5A5A5" fill-rule="evenodd"/><path d="M821 542.854 928.859 542.855 928.859 545.146 821 545.146ZM924.276 530.25 951.776 544.001 924.276 557.75Z"/><path d="M1.14583-1.46968e-06 1.14585 9.16667-1.14582 9.16667-1.14583 1.46968e-06ZM1.14585 16.0417 1.14587 25.2083-1.1458 25.2083-1.14581 16.0417ZM1.14587 32.0833 1.14589 41.25-1.14578 41.25-1.14579 32.0833ZM1.1459 48.125 1.14591 57.2917-1.14576 57.2917-1.14577 48.125ZM1.14592 64.1667 1.14593 73.3333-1.14574 73.3333-1.14575 64.1667ZM1.14594 80.2083 1.14595 89.375-1.14572 89.375-1.14573 80.2083ZM1.14596 96.25 1.14597 105.417-1.1457 105.417-1.14571 96.25ZM1.14598 112.292 1.14599 121.458-1.14568 121.458-1.14569 112.292ZM1.146 128.333 1.14601 137.5-1.14566 137.5-1.14567 128.333ZM1.14602 144.375 1.14603 153.542-1.14564 153.542-1.14565 144.375ZM1.14604 160.417 1.14605 169.583-1.14562 169.583-1.14563 160.417ZM1.14606 176.458 1.14607 185.625-1.1456 185.625-1.14561 176.458ZM1.14608 192.5 1.14609 201.667-1.14557 201.667-1.14559 192.5ZM1.1461 208.542 1.14611 217.708-1.14555 217.708-1.14557 208.542ZM1.14612 224.583 1.14613 233.75-1.14553 233.75-1.14555 224.583ZM1.14614 240.625 1.14615 249.792-1.14551 249.792-1.14552 240.625ZM1.14616 256.667 1.14616 258.452-1.1455 258.452-1.1455 256.667ZM13.7503 253.868 0.000360892 281.368-13.7497 253.868Z" transform="matrix(-1 0 0 1 2067 646)"/><path d="M597 740 2643.94 740" stroke="#5B9BD5" stroke-width="2.29167" stroke-miterlimit="8" fill="none" fill-rule="evenodd"/><text font-family="Times New Roman,Times New Roman_MSFontService,sans-serif" font-weight="400" font-size="55" transform="matrix(1 0 0 1 596.123 712)">Offline<tspan font-size="55" x="0" y="104">Online</tspan></text><path d="M1287 542.854 1348.69 542.855 1348.69 545.146 1287 545.146ZM1344.11 530.25 1371.61 544.001 1344.11 557.75Z"/><text font-family="Times New Roman,Times New Roman_MSFontService,sans-serif" font-weight="400" font-size="55" transform="matrix(1 0 0 1 720.454 515)">Soil<tspan font-size="55" x="-32.3583" y="66">texture</tspan><tspan font-size="55" x="1648.54" y="1144">Soil</tspan><tspan font-size="55" x="1751.09" y="1144">profile</tspan></text><rect x="2342.5" y="1313.5" width="59.9998" height="61.0002" stroke="#181717" stroke-width="4.58333" stroke-miterlimit="8" fill="#567B9B"/><rect x="2460.5" y="1313.5" width="59.9998" height="61.0002" stroke="#181717" stroke-width="4.58333" stroke-miterlimit="8" fill="#DCDAE5"/><rect x="2579.5" y="1313.5" width="60.0002" height="61.0002" stroke="#181717" stroke-width="4.58333" stroke-miterlimit="8" fill="#CF747A"/><rect x="2342.5" y="1550.5" width="59.9998" height="59.9998" stroke="#181717" stroke-width="4.58333" stroke-miterlimit="8" fill="#CF747A"/><rect x="2460.5" y="1550.5" width="59.9998" height="59.9998" stroke="#181717" stroke-width="4.58333" stroke-miterlimit="8" fill="#CC5C61"/><rect x="2579.5" y="1550.5" width="60.0002" height="59.9998" stroke="#181717" stroke-width="4.58333" stroke-miterlimit="8" fill="#C5282A"/><rect x="2342.5" y="1432.5" width="59.9998" height="60.0001" stroke="#181717" stroke-width="4.58333" stroke-miterlimit="8" fill="#DCDAE5"/><rect x="2460.5" y="1432.5" width="59.9998" height="60.0001" stroke="#181717" stroke-width="4.58333" stroke-miterlimit="8" fill="#CF747A"/><rect x="2579.5" y="1432.5" width="60.0002" height="60.0001" stroke="#181717" stroke-width="4.58333" stroke-miterlimit="8" fill="#CC5C61"/><rect x="2401.5" y="1313.5" width="60.0002" height="61.0002" stroke="#181717" stroke-width="4.58333" stroke-miterlimit="8" fill="#90ABC3"/><rect x="2520.5" y="1313.5" width="60.0002" height="61.0002" stroke="#181717" stroke-width="4.58333" stroke-miterlimit="8" fill="#D9C1CB"/><rect x="2401.5" y="1550.5" width="60.0002" height="59.9998" stroke="#181717" stroke-width="4.58333" stroke-miterlimit="8" fill="#CF7278"/><rect x="2520.5" y="1550.5" width="60.0002" height="59.9998" stroke="#181717" stroke-width="4.58333" stroke-miterlimit="8" fill="#CB5357"/><rect x="2401.5" y="1432.5" width="60.0002" height="60.0001" stroke="#181717" stroke-width="4.58333" stroke-miterlimit="8" fill="#D9C1CB"/><rect x="2520.5" y="1432.5" width="60.0002" height="60.0001" stroke="#181717" stroke-width="4.58333" stroke-miterlimit="8" fill="#CF7278"/><rect x="2342.5" y="1374.5" width="59.9998" height="59.9998" stroke="#181717" stroke-width="4.58333" stroke-miterlimit="8" fill="#90ABC3"/><rect x="2460.5" y="1374.5" width="59.9998" height="59.9998" stroke="#181717" stroke-width="4.58333" stroke-miterlimit="8" fill="#D9C1CB"/><rect x="2579.5" y="1374.5" width="60.0002" height="59.9998" stroke="#181717" stroke-width="4.58333" stroke-miterlimit="8" fill="#CF7278"/><rect x="2401.5" y="1374.5" width="60.0002" height="59.9998" stroke="#181717" stroke-width="4.58333" stroke-miterlimit="8" fill="#DCDAE5"/><rect x="2520.5" y="1374.5" width="60.0002" height="59.9998" stroke="#181717" stroke-width="4.58333" stroke-miterlimit="8" fill="#CF747A"/><rect x="2342.5" y="1491.5" width="59.9998" height="59.9998" stroke="#181717" stroke-width="4.58333" stroke-miterlimit="8" fill="#D9C1CB"/><rect x="2460.5" y="1491.5" width="59.9998" height="59.9998" stroke="#181717" stroke-width="4.58333" stroke-miterlimit="8" fill="#CF7278"/><rect x="2579.5" y="1491.5" width="60.0002" height="59.9998" stroke="#181717" stroke-width="4.58333" stroke-miterlimit="8" fill="#C9474B"/><rect x="2401.5" y="1491.5" width="60.0002" height="59.9998" stroke="#181717" stroke-width="4.58333" stroke-miterlimit="8" fill="#CF747A"/><rect x="2520.5" y="1491.5" width="60.0002" height="59.9998" stroke="#181717" stroke-width="4.58333" stroke-miterlimit="8" fill="#CC5C61"/><path d="M0.00229164-1.14583 87.7003-0.970437 87.6957 1.32123-0.00229164 1.14583ZM83.1422-13.5837 110.615 0.221227 83.0872 13.9162Z" transform="matrix(1 0 0 -1 2231 1462.22)"/><path d="M1661.77 1242.15 1884.88 1445.58 1883.34 1447.27 1660.23 1243.85ZM1889.99 1433.18 1901.04 1461.87 1871.46 1453.5Z"/><path d="M1376.5 470.333C1376.5 452.752 1468.06 438.5 1581 438.5 1693.94 438.5 1785.5 452.752 1785.5 470.333L1785.5 597.667C1785.5 615.248 1693.94 629.5 1581 629.5 1468.06 629.5 1376.5 615.248 1376.5 597.667Z" fill="#5B9BD5" fill-rule="evenodd"/><path d="M1785.5 470.333C1785.5 487.914 1693.94 502.167 1581 502.167 1468.06 502.167 1376.5 487.914 1376.5 470.333" stroke="#41719C" stroke-width="4.58333" stroke-miterlimit="8" fill="none" fill-rule="evenodd"/><path d="M1376.5 470.333C1376.5 452.752 1468.06 438.5 1581 438.5 1693.94 438.5 1785.5 452.752 1785.5 470.333L1785.5 597.667C1785.5 615.248 1693.94 629.5 1581 629.5 1468.06 629.5 1376.5 615.248 1376.5 597.667Z" stroke="#41719C" stroke-width="4.58333" stroke-miterlimit="8" fill="none" fill-rule="evenodd"/><text fill="#FFFFFF" font-family="Calibri,Calibri_MSFontService,sans-serif" font-weight="400" font-size="64" transform="matrix(1 0 0 1 1449.97 532)">Simulated<tspan font-size="64" x="72.5084" y="77">data</tspan></text><path d="M1893.5 475.667C1893.5 456.797 1908.8 441.5 1927.67 441.5L2207.33 441.5C2226.2 441.5 2241.5 456.797 2241.5 475.667L2241.5 612.333C2241.5 631.203 2226.2 646.5 2207.33 646.5L1927.67 646.5C1908.8 646.5 1893.5 631.203 1893.5 612.333Z" stroke="#41719C" stroke-width="4.58333" stroke-miterlimit="8" fill="#ED7D31" fill-rule="evenodd"/><text fill="#FFFFFF" font-family="Calibri,Calibri_MSFontService,sans-serif" font-weight="400" font-size="64" transform="matrix(1 0 0 1 1963.21 527)">Training <tspan font-size="64" x="-23.0542" y="77">algorithm</tspan></text><path d="M945.5 479.667C945.5 460.797 960.797 445.5 979.667 445.5L1258.33 445.5C1277.2 445.5 1292.5 460.797 1292.5 479.667L1292.5 616.333C1292.5 635.203 1277.2 650.5 1258.33 650.5L979.667 650.5C960.797 650.5 945.5 635.203 945.5 616.333Z" stroke="#41719C" stroke-width="4.58333" stroke-miterlimit="8" fill="#ED7D31" fill-rule="evenodd"/><text fill="#FFFFFF" font-family="Calibri,Calibri_MSFontService,sans-serif" font-weight="400" font-size="64" transform="matrix(1 0 0 1 1056.88 530)">Crop<tspan font-size="64" x="-64.075" y="77">Simulator</tspan></text><path d="M0.00282544-1.14583 82.902-0.941413 82.8964 1.35025-0.00282544 1.14583ZM78.3498-13.5568 105.816 0.260925 78.282 13.9431Z" transform="matrix(1 0 0 -1 1787 544.261)"/><path d="M1904.5 961.667C1904.5 942.797 1919.8 927.5 1938.67 927.5L2196.33 927.5C2215.2 927.5 2230.5 942.797 2230.5 961.667L2230.5 1098.33C2230.5 1117.2 2215.2 1132.5 2196.33 1132.5L1938.67 1132.5C1919.8 1132.5 1904.5 1117.2 1904.5 1098.33Z" stroke="#41719C" stroke-width="4.58333" stroke-miterlimit="8" fill="#ED7D31" fill-rule="evenodd"/><text fill="#FFFFFF" font-family="Calibri,Calibri_MSFontService,sans-serif" font-weight="400" font-size="64" transform="matrix(1 0 0 1 2035.41 1051)">FA</text><path d="M1904.5 1399.67C1904.5 1380.8 1919.8 1365.5 1938.67 1365.5L2196.33 1365.5C2215.2 1365.5 2230.5 1380.8 2230.5 1399.67L2230.5 1536.33C2230.5 1555.2 2215.2 1570.5 2196.33 1570.5L1938.67 1570.5C1919.8 1570.5 1904.5 1555.2 1904.5 1536.33Z" stroke="#41719C" stroke-width="4.58333" stroke-miterlimit="8" fill="#ED7D31" fill-rule="evenodd"/><text fill="#FFFFFF" font-family="Calibri,Calibri_MSFontService,sans-serif" font-weight="400" font-size="64" transform="matrix(1 0 0 1 2031.61 1489)">FU</text><path d="M1952.5 761.5C1952.5 753.768 1958.54 747.5 1966 747.5 1973.46 747.5 1979.5 753.768 1979.5 761.5 1979.5 769.232 1973.46 775.5 1966 775.5 1958.54 775.5 1952.5 769.232 1952.5 761.5Z" stroke="#AFABAB" stroke-width="4.58333" stroke-miterlimit="8" fill="#AFABAB" fill-rule="evenodd"/><path d="M1952.5 803C1952.5 795.544 1958.54 789.5 1966 789.5 1973.46 789.5 1979.5 795.544 1979.5 803 1979.5 810.456 1973.46 816.5 1966 816.5 1958.54 816.5 1952.5 810.456 1952.5 803Z" stroke="#AFABAB" stroke-width="4.58333" stroke-miterlimit="8" fill="#AFABAB" fill-rule="evenodd"/><path d="M1952.5 851.5C1952.5 843.768 1958.54 837.5 1966 837.5 1973.46 837.5 1979.5 843.768 1979.5 851.5 1979.5 859.232 1973.46 865.5 1966 865.5 1958.54 865.5 1952.5 859.232 1952.5 851.5Z" stroke="#AFABAB" stroke-width="4.58333" stroke-miterlimit="8" fill="#AFABAB" fill-rule="evenodd"/><path d="M2021.5 851.5C2021.5 843.768 2027.77 837.5 2035.5 837.5 2043.23 837.5 2049.5 843.768 2049.5 851.5 2049.5 859.232 2043.23 865.5 2035.5 865.5 2027.77 865.5 2021.5 859.232 2021.5 851.5Z" stroke="#AFABAB" stroke-width="4.58333" stroke-miterlimit="8" fill="#AFABAB" fill-rule="evenodd"/><path d="M2021.5 803C2021.5 795.544 2027.77 789.5 2035.5 789.5 2043.23 789.5 2049.5 795.544 2049.5 803 2049.5 810.456 2043.23 816.5 2035.5 816.5 2027.77 816.5 2021.5 810.456 2021.5 803Z" stroke="#AFABAB" stroke-width="4.58333" stroke-miterlimit="8" fill="#AFABAB" fill-rule="evenodd"/><path d="M2021.5 761.5C2021.5 753.768 2027.77 747.5 2035.5 747.5 2043.23 747.5 2049.5 753.768 2049.5 761.5 2049.5 769.232 2043.23 775.5 2035.5 775.5 2027.77 775.5 2021.5 769.232 2021.5 761.5Z" stroke="#AFABAB" stroke-width="4.58333" stroke-miterlimit="8" fill="#AFABAB" fill-rule="evenodd"/><path d="M1952.5 900.5C1952.5 892.768 1958.54 886.5 1966 886.5 1973.46 886.5 1979.5 892.768 1979.5 900.5 1979.5 908.232 1973.46 914.5 1966 914.5 1958.54 914.5 1952.5 908.232 1952.5 900.5Z" stroke="#AFABAB" stroke-width="4.58333" stroke-miterlimit="8" fill="#AFABAB" fill-rule="evenodd"/><path d="M2021.5 900.5C2021.5 892.768 2027.77 886.5 2035.5 886.5 2043.23 886.5 2049.5 892.768 2049.5 900.5 2049.5 908.232 2043.23 914.5 2035.5 914.5 2027.77 914.5 2021.5 908.232 2021.5 900.5Z" stroke="#AFABAB" stroke-width="4.58333" stroke-miterlimit="8" fill="#AFABAB" fill-rule="evenodd"/><path d="M1894.5 803C1894.5 795.544 1900.77 789.5 1908.5 789.5 1916.23 789.5 1922.5 795.544 1922.5 803 1922.5 810.456 1916.23 816.5 1908.5 816.5 1900.77 816.5 1894.5 810.456 1894.5 803Z" stroke="#AFABAB" stroke-width="4.58333" stroke-miterlimit="8" fill="#AFABAB" fill-rule="evenodd"/><path d="M1894.5 851.5C1894.5 843.768 1900.77 837.5 1908.5 837.5 1916.23 837.5 1922.5 843.768 1922.5 851.5 1922.5 859.232 1916.23 865.5 1908.5 865.5 1900.77 865.5 1894.5 859.232 1894.5 851.5Z" stroke="#AFABAB" stroke-width="4.58333" stroke-miterlimit="8" fill="#AFABAB" fill-rule="evenodd"/><path d="M0 0 61.9645 51.5095" stroke="#AFABAB" stroke-width="2.29167" stroke-miterlimit="8" fill="none" fill-rule="evenodd" transform="matrix(1 0 0 -1 1906 807.509)"/><path d="M0 0 61.9645 51.5095" stroke="#AFABAB" stroke-width="2.29167" stroke-miterlimit="8" fill="none" fill-rule="evenodd" transform="matrix(1 0 0 -1 1906 851.509)"/><path d="M0 0 61.9645 51.5095" stroke="#AFABAB" stroke-width="2.29167" stroke-miterlimit="8" fill="none" fill-rule="evenodd" transform="matrix(1 0 0 -1 1968 904.509)"/><path d="M0 0 61.9645 51.5095" stroke="#AFABAB" stroke-width="2.29167" stroke-miterlimit="8" fill="none" fill-rule="evenodd" transform="matrix(1 0 0 -1 1968 853.509)"/><path d="M0 0 61.9645 51.5095" stroke="#AFABAB" stroke-width="2.29167" stroke-miterlimit="8" fill="none" fill-rule="evenodd" transform="matrix(1 0 0 -1 1968 807.509)"/><path d="M1965.95 853.439 1899 794" stroke="#AFABAB" stroke-width="2.29167" stroke-miterlimit="8" fill="none" fill-rule="evenodd"/><path d="M1970.95 904.439 1904 845" stroke="#AFABAB" stroke-width="2.29167" stroke-miterlimit="8" fill="none" fill-rule="evenodd"/><path d="M2032.95 904.439 1966 845" stroke="#AFABAB" stroke-width="2.29167" stroke-miterlimit="8" fill="none" fill-rule="evenodd"/><path d="M2032.95 853.439 1966 794" stroke="#AFABAB" stroke-width="2.29167" stroke-miterlimit="8" fill="none" fill-rule="evenodd"/><path d="M2044.53 811.807 1966 757" stroke="#AFABAB" stroke-width="2.29167" stroke-miterlimit="8" fill="none" fill-rule="evenodd"/><path d="M2044.97 860.561 1973 766" stroke="#AFABAB" stroke-width="2.29167" stroke-miterlimit="8" fill="none" fill-rule="evenodd"/><path d="M1975.33 909.509 1908 808" stroke="#AFABAB" stroke-width="2.29167" stroke-miterlimit="8" fill="none" fill-rule="evenodd"/><path d="M2035.16 913.648 1968 766" stroke="#AFABAB" stroke-width="2.29167" stroke-miterlimit="8" fill="none" fill-rule="evenodd"/><path d="M2044.53 807.069 1894 803" stroke="#AFABAB" stroke-width="2.29167" stroke-miterlimit="8" fill="none" fill-rule="evenodd"/><path d="M2046.53 855.069 1896 851" stroke="#AFABAB" stroke-width="2.29167" stroke-miterlimit="8" fill="none" fill-rule="evenodd"/><path d="M0 0 86.0703 0.176476" stroke="#AFABAB" stroke-width="2.29167" stroke-miterlimit="8" fill="none" fill-rule="evenodd" transform="matrix(-1 0 0 1 2049.07 900)"/><path d="M0 0 86.0703 0.176476" stroke="#AFABAB" stroke-width="2.29167" stroke-miterlimit="8" fill="none" fill-rule="evenodd" transform="matrix(-1 0 0 1 2044.07 758)"/><path d="M0 0 67.1585 147.649" stroke="#AFABAB" stroke-width="2.29167" stroke-miterlimit="8" fill="none" fill-rule="evenodd" transform="matrix(-1 0 0 1 2034.16 749)"/><path d="M0 0 67.3342 101.509" stroke="#AFABAB" stroke-width="2.29167" stroke-miterlimit="8" fill="none" fill-rule="evenodd" transform="matrix(-1 0 0 1 1968.33 761)"/><path d="M0 0 67.3342 101.509" stroke="#AFABAB" stroke-width="2.29167" stroke-miterlimit="8" fill="none" fill-rule="evenodd" transform="matrix(-1 0 0 1 2037.33 800)"/><path d="M0 0 67.3342 101.509" stroke="#AFABAB" stroke-width="2.29167" stroke-miterlimit="8" fill="none" fill-rule="evenodd" transform="matrix(-1 0 0 1 2034.33 754)"/></g></svg>