<svg width="2045" height="740" xmlns="http://www.w3.org/2000/svg" xmlns:xlink="http://www.w3.org/1999/xlink" overflow="hidden"><defs><clipPath id="clip0"><rect x="1128" y="316" width="2045" height="740"/></clipPath><radialGradient cx="1.05018e+06" cy="0" r="1.71211e+06" gradientUnits="userSpaceOnUse" spreadMethod="pad" id="fill1" gradientTransform="scale(0.000360892 0.000360892)"><stop offset="0" stop-color="#2C5981" stop-opacity="0.909804"/><stop offset="0.39" stop-color="#DEEBF7"/><stop offset="1" stop-color="#C00000"/></radialGradient><radialGradient cx="1.05018e+06" cy="0" r="1.71211e+06" gradientUnits="userSpaceOnUse" spreadMethod="pad" id="fill2" gradientTransform="scale(0.000360892 0.000360892)"><stop offset="0" stop-color="#234868" stop-opacity="0.909804"/><stop offset="0.39" stop-color="#B2BDC7"/><stop offset="1" stop-color="#9A0000"/></radialGradient><radialGradient cx="1.05018e+06" cy="0" r="1.71211e+06" gradientUnits="userSpaceOnUse" spreadMethod="pad" id="fill3" gradientTransform="scale(0.000360892 0.000360892)"><stop offset="0" stop-color="#557A9A" stop-opacity="0.909804"/><stop offset="0.39" stop-color="#E4EFF9"/><stop offset="1" stop-color="#CC3232"/></radialGradient><radialGradient cx="67887" cy="26323.5" r="72811.9" fy="-42117.6" gradientUnits="userSpaceOnUse" spreadMethod="pad" id="fill4" gradientTransform="matrix(0.000360892 0 0 0.000360892 1495.5 328.5)"><stop offset="0" stop-color="#FFFFFF"/><stop offset="0.48" stop-color="#FFFFFF"/><stop offset="1" stop-color="#4472C4"/></radialGradient><radialGradient cx="67887" cy="26323.5" r="72811.9" fy="-42117.6" gradientUnits="userSpaceOnUse" spreadMethod="pad" id="fill5" gradientTransform="matrix(0.000360892 0 0 0.000360892 1550.5 383.5)"><stop offset="0" stop-color="#FFFFFF"/><stop offset="0.48" stop-color="#FFFFFF"/><stop offset="1" stop-color="#4472C4"/></radialGradient><radialGradient cx="67887" cy="26323.5" r="72811.9" fy="-42117.6" gradientUnits="userSpaceOnUse" spreadMethod="pad" id="fill6" gradientTransform="matrix(0.000360892 0 0 0.000360892 1605.5 438.5)"><stop offset="0" stop-color="#FFFFFF"/><stop offset="0.48" stop-color="#FFFFFF"/><stop offset="1" stop-color="#4472C4"/></radialGradient><radialGradient cx="67887.5" cy="26323.5" r="72812.4" fy="-42117.6" gradientUnits="userSpaceOnUse" spreadMethod="pad" id="fill7" gradientTransform="matrix(0.000360892 0 0 0.000360892 1642.5 492.5)"><stop offset="0" stop-color="#FFFFFF"/><stop offset="0.48" stop-color="#FFFFFF"/><stop offset="1" stop-color="#4472C4"/></radialGradient><radialGradient cx="67887.5" cy="26323.5" r="72812.4" fy="-42117.6" gradientUnits="userSpaceOnUse" spreadMethod="pad" id="fill8" gradientTransform="matrix(0.000360892 0 0 0.000360892 1697.5 547.5)"><stop offset="0" stop-color="#FFFFFF"/><stop offset="0.48" stop-color="#FFFFFF"/><stop offset="1" stop-color="#4472C4"/></radialGradient><radialGradient cx="1.3051e+06" cy="0" r="2.05956e+06" gradientUnits="userSpaceOnUse" spreadMethod="pad" id="fill9" gradientTransform="scale(0.000360892 0.000360892)"><stop offset="0" stop-color="#2C5981" stop-opacity="0.909804"/><stop offset="0.39" stop-color="#DEEBF7"/><stop offset="1" stop-color="#C00000"/></radialGradient><radialGradient cx="1.3051e+06" cy="0" r="2.05956e+06" gradientUnits="userSpaceOnUse" spreadMethod="pad" id="fill10" gradientTransform="scale(0.000360892 0.000360892)"><stop offset="0" stop-color="#234868" stop-opacity="0.909804"/><stop offset="0.39" stop-color="#B2BDC7"/><stop offset="1" stop-color="#9A0000"/></radialGradient><radialGradient cx="1.3051e+06" cy="0" r="2.05956e+06" gradientUnits="userSpaceOnUse" spreadMethod="pad" id="fill11" gradientTransform="scale(0.000360892 0.000360892)"><stop offset="0" stop-color="#557A9A" stop-opacity="0.909804"/><stop offset="0.39" stop-color="#E4EFF9"/><stop offset="1" stop-color="#CC3232"/></radialGradient><radialGradient cx="67887" cy="26323.5" r="72811.9" fy="-42117.6" gradientUnits="userSpaceOnUse" spreadMethod="pad" id="fill12" gradientTransform="matrix(0.000360892 0 0 0.000360892 2595.5 392.5)"><stop offset="0" stop-color="#FFFFFF"/><stop offset="0.48" stop-color="#FFFFFF"/><stop offset="1" stop-color="#4472C4"/></radialGradient></defs><g clip-path="url(#clip0)" transform="translate(-1128 -316)"><rect x="0" y="12.8708" width="366.129" height="475.129" fill="url(#fill1)" transform="matrix(-1 0 0 1 2007 447)"/><path d="M366.129 12.8708 379 0 379 475.129 366.129 488Z" fill="url(#fill2)" fill-rule="evenodd" transform="matrix(-1 0 0 1 2007 447)"/><path d="M0 12.8708 12.8708 0 379 0 366.129 12.8708Z" fill="url(#fill3)" fill-rule="evenodd" transform="matrix(-1 0 0 1 2007 447)"/><path d="M1650.5 513.5C1650.5 506.32 1656.32 500.5 1663.5 500.5 1670.68 500.5 1676.5 506.32 1676.5 513.5 1676.5 520.68 1670.68 526.5 1663.5 526.5 1656.32 526.5 1650.5 520.68 1650.5 513.5Z" stroke="#000000" stroke-width="4.58333" stroke-miterlimit="8" fill-rule="evenodd"/><path d="M1649.5 710.5C1649.5 703.32 1655.32 697.5 1662.5 697.5 1669.68 697.5 1675.5 703.32 1675.5 710.5 1675.5 717.68 1669.68 723.5 1662.5 723.5 1655.32 723.5 1649.5 717.68 1649.5 710.5Z" stroke="#000000" stroke-width="4.58333" stroke-miterlimit="8" fill-rule="evenodd"/><path d="M1651.5 884.5C1651.5 877.32 1657.32 871.5 1664.5 871.5 1671.68 871.5 1677.5 877.32 1677.5 884.5 1677.5 891.68 1671.68 897.5 1664.5 897.5 1657.32 897.5 1651.5 891.68 1651.5 884.5Z" stroke="#000000" stroke-width="4.58333" stroke-miterlimit="8" fill-rule="evenodd"/><path d="M1753.5 516C1753.5 508.544 1759.32 502.5 1766.5 502.5 1773.68 502.5 1779.5 508.544 1779.5 516 1779.5 523.456 1773.68 529.5 1766.5 529.5 1759.32 529.5 1753.5 523.456 1753.5 516Z" stroke="#000000" stroke-width="4.58333" stroke-miterlimit="8" fill-rule="evenodd"/><path d="M1751.5 713C1751.5 705.544 1757.54 699.5 1765 699.5 1772.46 699.5 1778.5 705.544 1778.5 713 1778.5 720.456 1772.46 726.5 1765 726.5 1757.54 726.5 1751.5 720.456 1751.5 713Z" stroke="#000000" stroke-width="4.58333" stroke-miterlimit="8" fill-rule="evenodd"/><path d="M1754.5 886.5C1754.5 879.32 1760.32 873.5 1767.5 873.5 1774.68 873.5 1780.5 879.32 1780.5 886.5 1780.5 893.68 1774.68 899.5 1767.5 899.5 1760.32 899.5 1754.5 893.68 1754.5 886.5Z" stroke="#000000" stroke-width="4.58333" stroke-miterlimit="8" fill-rule="evenodd"/><path d="M1855.5 518C1855.5 510.544 1861.54 504.5 1869 504.5 1876.46 504.5 1882.5 510.544 1882.5 518 1882.5 525.456 1876.46 531.5 1869 531.5 1861.54 531.5 1855.5 525.456 1855.5 518Z" stroke="#000000" stroke-width="4.58333" stroke-miterlimit="8" fill-rule="evenodd"/><path d="M1854.5 715C1854.5 707.544 1860.54 701.5 1868 701.5 1875.46 701.5 1881.5 707.544 1881.5 715 1881.5 722.456 1875.46 728.5 1868 728.5 1860.54 728.5 1854.5 722.456 1854.5 715Z" stroke="#000000" stroke-width="4.58333" stroke-miterlimit="8" fill-rule="evenodd"/><path d="M1856.5 889C1856.5 881.544 1862.54 875.5 1870 875.5 1877.46 875.5 1883.5 881.544 1883.5 889 1883.5 896.456 1877.46 902.5 1870 902.5 1862.54 902.5 1856.5 896.456 1856.5 889Z" stroke="#000000" stroke-width="4.58333" stroke-miterlimit="8" fill-rule="evenodd"/><path d="M1958.5 518C1958.5 510.544 1964.32 504.5 1971.5 504.5 1978.68 504.5 1984.5 510.544 1984.5 518 1984.5 525.456 1978.68 531.5 1971.5 531.5 1964.32 531.5 1958.5 525.456 1958.5 518Z" stroke="#000000" stroke-width="4.58333" stroke-miterlimit="8" fill-rule="evenodd"/><path d="M1957.5 715C1957.5 707.544 1963.32 701.5 1970.5 701.5 1977.68 701.5 1983.5 707.544 1983.5 715 1983.5 722.456 1977.68 728.5 1970.5 728.5 1963.32 728.5 1957.5 722.456 1957.5 715Z" stroke="#000000" stroke-width="4.58333" stroke-miterlimit="8" fill-rule="evenodd"/><path d="M1959.5 889C1959.5 881.544 1965.32 875.5 1972.5 875.5 1979.68 875.5 1985.5 881.544 1985.5 889 1985.5 896.456 1979.68 902.5 1972.5 902.5 1965.32 902.5 1959.5 896.456 1959.5 889Z" stroke="#000000" stroke-width="4.58333" stroke-miterlimit="8" fill-rule="evenodd"/><path d="M1495.5 338C1495.5 332.753 1506.47 328.5 1520 328.5 1533.53 328.5 1544.5 332.753 1544.5 338 1544.5 343.247 1533.53 347.5 1520 347.5 1506.47 347.5 1495.5 343.247 1495.5 338Z" stroke="#41719C" stroke-width="4.58333" stroke-miterlimit="8" fill="url(#fill4)" fill-rule="evenodd"/><path d="M1550.5 393C1550.5 387.753 1561.47 383.5 1575 383.5 1588.53 383.5 1599.5 387.753 1599.5 393 1599.5 398.247 1588.53 402.5 1575 402.5 1561.47 402.5 1550.5 398.247 1550.5 393Z" stroke="#41719C" stroke-width="4.58333" stroke-miterlimit="8" fill="url(#fill5)" fill-rule="evenodd"/><path d="M1605.5 448C1605.5 442.753 1616.47 438.5 1630 438.5 1643.53 438.5 1654.5 442.753 1654.5 448 1654.5 453.247 1643.53 457.5 1630 457.5 1616.47 457.5 1605.5 453.247 1605.5 448Z" stroke="#41719C" stroke-width="4.58333" stroke-miterlimit="8" fill="url(#fill6)" fill-rule="evenodd"/><path d="M1642.5 502C1642.5 496.753 1653.47 492.5 1667 492.5 1680.53 492.5 1691.5 496.753 1691.5 502 1691.5 507.247 1680.53 511.5 1667 511.5 1653.47 511.5 1642.5 507.247 1642.5 502Z" stroke="#41719C" stroke-width="4.58333" stroke-miterlimit="8" fill="url(#fill7)" fill-rule="evenodd"/><path d="M1697.5 557C1697.5 551.753 1708.47 547.5 1722 547.5 1735.53 547.5 1746.5 551.753 1746.5 557 1746.5 562.247 1735.53 566.5 1722 566.5 1708.47 566.5 1697.5 562.247 1697.5 557Z" stroke="#41719C" stroke-width="4.58333" stroke-miterlimit="8" fill="url(#fill8)" fill-rule="evenodd"/><rect x="0" y="261.653" width="739.348" height="473.347" fill="#FFFFFF" fill-opacity="0.411765" transform="matrix(-1 0 0 1 2131.5 318.5)"/><path d="M739.348 261.653 1001 0 1001 473.347 739.348 735Z" fill="#CDCDCD" fill-rule="evenodd" fill-opacity="0.411765" transform="matrix(-1 0 0 1 2131.5 318.5)"/><path d="M0 261.653 261.652 0 1001 0 739.348 261.653Z" fill="#FFFFFF" fill-rule="evenodd" fill-opacity="0.411765" transform="matrix(-1 0 0 1 2131.5 318.5)"/><path d="M0 261.653 261.652 0 1001 0 1001 473.347 739.348 735 0 735ZM0 261.653 739.348 261.653 1001 0M739.348 261.653 739.348 735" stroke="#41719C" stroke-width="4.58333" stroke-miterlimit="8" fill="none" fill-rule="evenodd" transform="matrix(-1 0 0 1 2131.5 318.5)"/><rect x="0" y="103.836" width="367.163" height="471.164" fill="url(#fill9)" transform="matrix(-1 0 0 1 3094 398)"/><path d="M367.163 103.836 471 0 471 471.164 367.163 575Z" fill="url(#fill10)" fill-rule="evenodd" transform="matrix(-1 0 0 1 3094 398)"/><path d="M0 103.836 103.837 0 471 0 367.163 103.836Z" fill="url(#fill11)" fill-rule="evenodd" transform="matrix(-1 0 0 1 3094 398)"/><path d="M3028.5 545C3028.5 537.544 3034.54 531.5 3042 531.5 3049.46 531.5 3055.5 537.544 3055.5 545 3055.5 552.456 3049.46 558.5 3042 558.5 3034.54 558.5 3028.5 552.456 3028.5 545Z" stroke="#000000" stroke-width="4.58333" stroke-miterlimit="8" fill-rule="evenodd"/><path d="M3027.5 742C3027.5 734.544 3033.54 728.5 3041 728.5 3048.46 728.5 3054.5 734.544 3054.5 742 3054.5 749.456 3048.46 755.5 3041 755.5 3033.54 755.5 3027.5 749.456 3027.5 742Z" stroke="#000000" stroke-width="4.58333" stroke-miterlimit="8" fill-rule="evenodd"/><path d="M3029.5 915.5C3029.5 908.32 3035.54 902.5 3043 902.5 3050.46 902.5 3056.5 908.32 3056.5 915.5 3056.5 922.68 3050.46 928.5 3043 928.5 3035.54 928.5 3029.5 922.68 3029.5 915.5Z" stroke="#000000" stroke-width="4.58333" stroke-miterlimit="8" fill-rule="evenodd"/><path d="M2766.5 538C2766.5 530.544 2772.32 524.5 2779.5 524.5 2786.68 524.5 2792.5 530.544 2792.5 538 2792.5 545.456 2786.68 551.5 2779.5 551.5 2772.32 551.5 2766.5 545.456 2766.5 538Z" stroke="#000000" stroke-width="4.58333" stroke-miterlimit="8" fill-rule="evenodd"/><path d="M2764.5 735C2764.5 727.544 2770.54 721.5 2778 721.5 2785.46 721.5 2791.5 727.544 2791.5 735 2791.5 742.456 2785.46 748.5 2778 748.5 2770.54 748.5 2764.5 742.456 2764.5 735Z" stroke="#000000" stroke-width="4.58333" stroke-miterlimit="8" fill-rule="evenodd"/><path d="M2767.5 909C2767.5 901.544 2773.32 895.5 2780.5 895.5 2787.68 895.5 2793.5 901.544 2793.5 909 2793.5 916.456 2787.68 922.5 2780.5 922.5 2773.32 922.5 2767.5 916.456 2767.5 909Z" stroke="#000000" stroke-width="4.58333" stroke-miterlimit="8" fill-rule="evenodd"/><path d="M2949.5 425C2949.5 417.544 2955.32 411.5 2962.5 411.5 2969.68 411.5 2975.5 417.544 2975.5 425 2975.5 432.456 2969.68 438.5 2962.5 438.5 2955.32 438.5 2949.5 432.456 2949.5 425Z" stroke="#000000" stroke-width="4.58333" stroke-miterlimit="8" fill-rule="evenodd"/><path d="M2948.5 622C2948.5 614.544 2954.32 608.5 2961.5 608.5 2968.68 608.5 2974.5 614.544 2974.5 622 2974.5 629.456 2968.68 635.5 2961.5 635.5 2954.32 635.5 2948.5 629.456 2948.5 622Z" stroke="#000000" stroke-width="4.58333" stroke-miterlimit="8" fill-rule="evenodd"/><path d="M2950.5 795.5C2950.5 788.32 2956.32 782.5 2963.5 782.5 2970.68 782.5 2976.5 788.32 2976.5 795.5 2976.5 802.68 2970.68 808.5 2963.5 808.5 2956.32 808.5 2950.5 802.68 2950.5 795.5Z" stroke="#000000" stroke-width="4.58333" stroke-miterlimit="8" fill-rule="evenodd"/><path d="M2683.5 428.5C2683.5 421.32 2689.54 415.5 2697 415.5 2704.46 415.5 2710.5 421.32 2710.5 428.5 2710.5 435.68 2704.46 441.5 2697 441.5 2689.54 441.5 2683.5 435.68 2683.5 428.5Z" stroke="#000000" stroke-width="4.58333" stroke-miterlimit="8" fill-rule="evenodd"/><path d="M2682.5 625.5C2682.5 618.32 2688.32 612.5 2695.5 612.5 2702.68 612.5 2708.5 618.32 2708.5 625.5 2708.5 632.68 2702.68 638.5 2695.5 638.5 2688.32 638.5 2682.5 632.68 2682.5 625.5Z" stroke="#000000" stroke-width="4.58333" stroke-miterlimit="8" fill-rule="evenodd"/><path d="M2684.5 799C2684.5 791.544 2690.54 785.5 2698 785.5 2705.46 785.5 2711.5 791.544 2711.5 799 2711.5 806.456 2705.46 812.5 2698 812.5 2690.54 812.5 2684.5 806.456 2684.5 799Z" stroke="#000000" stroke-width="4.58333" stroke-miterlimit="8" fill-rule="evenodd"/><path d="M2851.5 468C2851.5 460.544 2857.32 454.5 2864.5 454.5 2871.68 454.5 2877.5 460.544 2877.5 468 2877.5 475.456 2871.68 481.5 2864.5 481.5 2857.32 481.5 2851.5 475.456 2851.5 468Z" stroke="#000000" stroke-width="4.58333" stroke-miterlimit="8" fill-rule="evenodd"/><path d="M2849.5 665C2849.5 657.544 2855.54 651.5 2863 651.5 2870.46 651.5 2876.5 657.544 2876.5 665 2876.5 672.456 2870.46 678.5 2863 678.5 2855.54 678.5 2849.5 672.456 2849.5 665Z" stroke="#000000" stroke-width="4.58333" stroke-miterlimit="8" fill-rule="evenodd"/><path d="M2852.5 838.5C2852.5 831.32 2858.32 825.5 2865.5 825.5 2872.68 825.5 2878.5 831.32 2878.5 838.5 2878.5 845.68 2872.68 851.5 2865.5 851.5 2858.32 851.5 2852.5 845.68 2852.5 838.5Z" stroke="#000000" stroke-width="4.58333" stroke-miterlimit="8" fill-rule="evenodd"/><path d="M2595.5 402C2595.5 396.753 2606.47 392.5 2620 392.5 2633.53 392.5 2644.5 396.753 2644.5 402 2644.5 407.247 2633.53 411.5 2620 411.5 2606.47 411.5 2595.5 407.247 2595.5 402Z" stroke="#41719C" stroke-width="4.58333" stroke-miterlimit="8" fill="url(#fill12)" fill-rule="evenodd"/><rect x="0" y="261.653" width="739.348" height="473.347" fill="#FFFFFF" fill-opacity="0.411765" transform="matrix(-1 0 0 1 3170.5 318.5)"/><path d="M739.348 261.653 1001 0 1001 473.347 739.348 735Z" fill="#CDCDCD" fill-rule="evenodd" fill-opacity="0.411765" transform="matrix(-1 0 0 1 3170.5 318.5)"/><path d="M0 261.653 261.652 0 1001 0 739.348 261.653Z" fill="#FFFFFF" fill-rule="evenodd" fill-opacity="0.411765" transform="matrix(-1 0 0 1 3170.5 318.5)"/><path d="M0 261.653 261.652 0 1001 0 1001 473.347 739.348 735 0 735ZM0 261.653 739.348 261.653 1001 0M739.348 261.653 739.348 735" stroke="#41719C" stroke-width="4.58333" stroke-miterlimit="8" fill="none" fill-rule="evenodd" transform="matrix(-1 0 0 1 3170.5 318.5)"/></g></svg>