<svg width="763" height="773" xmlns="http://www.w3.org/2000/svg" xmlns:xlink="http://www.w3.org/1999/xlink" overflow="hidden"><defs><clipPath id="clip0"><rect x="887" y="1018" width="763" height="773"/></clipPath><radialGradient cx="0" cy="0" r="2.68959e+06" gradientUnits="userSpaceOnUse" spreadMethod="pad" id="fill1" gradientTransform="matrix(0.000360892 0 0 0.000360892 887 1191)"><stop offset="0" stop-color="#2C5981" stop-opacity="0.909804"/><stop offset="0.39" stop-color="#DEEBF7"/><stop offset="1" stop-color="#C00000"/></radialGradient><clipPath id="clip2"><rect x="886" y="1017" width="136" height="135"/></clipPath><clipPath id="clip3"><rect x="886" y="1017" width="136" height="135"/></clipPath><clipPath id="clip4"><rect x="886" y="1017" width="136" height="135"/></clipPath></defs><g clip-path="url(#clip0)" transform="translate(-887 -1018)"><rect x="887" y="1191" width="763" height="600" fill="url(#fill1)"/><g clip-path="url(#clip2)"><g clip-path="url(#clip3)"><g clip-path="url(#clip4)"><path d="M82.2548 22.3387C75.8571 13.1478 70.3314 5.20932 68.9904 1.40856 68.6941 0.57196 67.9118 0.010669 67.0248-0.000260219 66.2051 0.0247208 65.3396 0.531627 65.0263 1.3599 63.6617 4.95404 58.4154 12.4881 52.3401 21.2182 38.4267 41.1994 19.3725 68.566 19.3725 86.371 19.3725 112.634 40.7372 134 67 134 93.2629 134 114.628 112.634 114.628 86.371 114.628 68.8538 95.9163 41.9694 82.2548 22.3387Z" stroke="#181717" stroke-width="0.260106" fill="#1F4E79" transform="matrix(1.00746 0 0 1 887 1018)"/></g></g></g></g></svg>