<svg width="762" height="788" xmlns="http://www.w3.org/2000/svg" xmlns:xlink="http://www.w3.org/1999/xlink" overflow="hidden"><defs><clipPath id="clip0"><rect x="2023" y="1018" width="762" height="788"/></clipPath><clipPath id="clip1"><rect x="2029" y="1017" width="135" height="135"/></clipPath><clipPath id="clip2"><rect x="2029" y="1017" width="135" height="135"/></clipPath><clipPath id="clip3"><rect x="2029" y="1017" width="135" height="135"/></clipPath></defs><g clip-path="url(#clip0)" transform="translate(-2023 -1018)"><path d="M2074.5 1267C2074.5 1253.47 2085.69 1242.5 2099.5 1242.5 2113.31 1242.5 2124.5 1253.47 2124.5 1267 2124.5 1280.53 2113.31 1291.5 2099.5 1291.5 2085.69 1291.5 2074.5 1280.53 2074.5 1267Z" stroke="#181717" stroke-width="4.58333" stroke-miterlimit="8" fill="#4C7396" fill-rule="evenodd"/><path d="M2376.5 1267C2376.5 1253.47 2387.47 1242.5 2401 1242.5 2414.53 1242.5 2425.5 1253.47 2425.5 1267 2425.5 1280.53 2414.53 1291.5 2401 1291.5 2387.47 1291.5 2376.5 1280.53 2376.5 1267Z" stroke="#000000" stroke-width="4.58333" stroke-miterlimit="8" fill="#DEEAF6" fill-rule="evenodd"/><path d="M2681.5 1267C2681.5 1253.47 2692.47 1242.5 2706 1242.5 2719.53 1242.5 2730.5 1253.47 2730.5 1267 2730.5 1280.53 2719.53 1291.5 2706 1291.5 2692.47 1291.5 2681.5 1280.53 2681.5 1267Z" stroke="#181717" stroke-width="4.58333" stroke-miterlimit="8" fill="#CC6065" fill-rule="evenodd"/><path d="M2074.5 1504C2074.5 1490.47 2085.69 1479.5 2099.5 1479.5 2113.31 1479.5 2124.5 1490.47 2124.5 1504 2124.5 1517.53 2113.31 1528.5 2099.5 1528.5 2085.69 1528.5 2074.5 1517.53 2074.5 1504Z" stroke="#000000" stroke-width="4.58333" stroke-miterlimit="8" fill="#DEEAF6" fill-rule="evenodd"/><path d="M2376.5 1504C2376.5 1490.47 2387.47 1479.5 2401 1479.5 2414.53 1479.5 2425.5 1490.47 2425.5 1504 2425.5 1517.53 2414.53 1528.5 2401 1528.5 2387.47 1528.5 2376.5 1517.53 2376.5 1504Z" stroke="#000000" stroke-width="4.58333" stroke-miterlimit="8" fill="#D7B2BB" fill-rule="evenodd"/><path d="M2681.5 1504C2681.5 1490.47 2692.47 1479.5 2706 1479.5 2719.53 1479.5 2730.5 1490.47 2730.5 1504 2730.5 1517.53 2719.53 1528.5 2706 1528.5 2692.47 1528.5 2681.5 1517.53 2681.5 1504Z" stroke="#181717" stroke-width="4.58333" stroke-miterlimit="8" fill="#CA5054" fill-rule="evenodd"/><path d="M2376.5 1743C2376.5 1729.47 2387.47 1718.5 2401 1718.5 2414.53 1718.5 2425.5 1729.47 2425.5 1743 2425.5 1756.53 2414.53 1767.5 2401 1767.5 2387.47 1767.5 2376.5 1756.53 2376.5 1743Z" stroke="#181717" stroke-width="4.58333" stroke-miterlimit="8" fill="#CF757B" fill-rule="evenodd"/><path d="M2681.5 1743C2681.5 1729.47 2692.47 1718.5 2706 1718.5 2719.53 1718.5 2730.5 1729.47 2730.5 1743 2730.5 1756.53 2719.53 1767.5 2706 1767.5 2692.47 1767.5 2681.5 1756.53 2681.5 1743Z" stroke="#181717" stroke-width="4.58333" stroke-miterlimit="8" fill="#C41C1E" fill-rule="evenodd"/><g clip-path="url(#clip1)"><g clip-path="url(#clip2)"><g clip-path="url(#clip3)"><path d="M2112.25 1040.34C2105.86 1031.15 2100.33 1023.21 2098.99 1019.41 2098.69 1018.57 2097.91 1018.01 2097.02 1018 2096.2 1018.02 2095.34 1018.53 2095.03 1019.36 2093.66 1022.95 2088.42 1030.49 2082.34 1039.22 2068.43 1059.2 2049.37 1086.57 2049.37 1104.37 2049.37 1130.63 2070.74 1152 2097 1152 2123.26 1152 2144.63 1130.63 2144.63 1104.37 2144.63 1086.85 2125.92 1059.97 2112.25 1040.34Z" stroke="#181717" stroke-width="0.260106" fill="#1F4E79"/></g></g></g><rect x="2025.5" y="1201.5" width="151" height="120" stroke="#181717" stroke-width="4.58333" stroke-miterlimit="8" stroke-dasharray="4.58333 4.58333" fill="none"/><rect x="2329.5" y="1201.5" width="151" height="120" stroke="#181717" stroke-width="4.58333" stroke-miterlimit="8" stroke-dasharray="4.58333 4.58333" fill="none"/><rect x="2630.5" y="1201.5" width="152" height="120" stroke="#181717" stroke-width="4.58333" stroke-miterlimit="8" stroke-dasharray="4.58333 4.58333" fill="none"/><rect x="2025.5" y="1682.5" width="151" height="121" stroke="#181717" stroke-width="4.58333" stroke-miterlimit="8" stroke-dasharray="4.58333 4.58333" fill="none"/><rect x="2329.5" y="1682.5" width="151" height="121" stroke="#181717" stroke-width="4.58333" stroke-miterlimit="8" stroke-dasharray="4.58333 4.58333" fill="none"/><rect x="2630.5" y="1682.5" width="152" height="121" stroke="#181717" stroke-width="4.58333" stroke-miterlimit="8" stroke-dasharray="4.58333 4.58333" fill="none"/><rect x="2025.5" y="1439.5" width="151" height="121" stroke="#181717" stroke-width="4.58333" stroke-miterlimit="8" stroke-dasharray="4.58333 4.58333" fill="none"/><rect x="2329.5" y="1439.5" width="151" height="121" stroke="#181717" stroke-width="4.58333" stroke-miterlimit="8" stroke-dasharray="4.58333 4.58333" fill="none"/><rect x="2630.5" y="1439.5" width="152" height="121" stroke="#181717" stroke-width="4.58333" stroke-miterlimit="8" stroke-dasharray="4.58333 4.58333" fill="none"/><rect x="2178.5" y="1201.5" width="152" height="120" stroke="#181717" stroke-width="4.58333" stroke-miterlimit="8" stroke-dasharray="4.58333 4.58333" fill="none"/><rect x="2480.5" y="1201.5" width="152" height="120" stroke="#181717" stroke-width="4.58333" stroke-miterlimit="8" stroke-dasharray="4.58333 4.58333" fill="none"/><rect x="2178.5" y="1682.5" width="152" height="121" stroke="#181717" stroke-width="4.58333" stroke-miterlimit="8" stroke-dasharray="4.58333 4.58333" fill="none"/><rect x="2480.5" y="1682.5" width="152" height="121" stroke="#181717" stroke-width="4.58333" stroke-miterlimit="8" stroke-dasharray="4.58333 4.58333" fill="none"/><rect x="2178.5" y="1439.5" width="152" height="121" stroke="#181717" stroke-width="4.58333" stroke-miterlimit="8" stroke-dasharray="4.58333 4.58333" fill="none"/><rect x="2480.5" y="1439.5" width="152" height="121" stroke="#181717" stroke-width="4.58333" stroke-miterlimit="8" stroke-dasharray="4.58333 4.58333" fill="none"/><rect x="2025.5" y="1321.5" width="151" height="121" stroke="#181717" stroke-width="4.58333" stroke-miterlimit="8" stroke-dasharray="4.58333 4.58333" fill="none"/><rect x="2329.5" y="1321.5" width="151" height="121" stroke="#181717" stroke-width="4.58333" stroke-miterlimit="8" stroke-dasharray="4.58333 4.58333" fill="none"/><rect x="2630.5" y="1321.5" width="152" height="121" stroke="#181717" stroke-width="4.58333" stroke-miterlimit="8" stroke-dasharray="4.58333 4.58333" fill="none"/><rect x="2178.5" y="1321.5" width="152" height="121" stroke="#181717" stroke-width="4.58333" stroke-miterlimit="8" stroke-dasharray="4.58333 4.58333" fill="none"/><rect x="2480.5" y="1321.5" width="152" height="121" stroke="#181717" stroke-width="4.58333" stroke-miterlimit="8" stroke-dasharray="4.58333 4.58333" fill="none"/><rect x="2025.5" y="1562.5" width="151" height="121" stroke="#181717" stroke-width="4.58333" stroke-miterlimit="8" stroke-dasharray="4.58333 4.58333" fill="none"/><rect x="2329.5" y="1562.5" width="151" height="121" stroke="#181717" stroke-width="4.58333" stroke-miterlimit="8" stroke-dasharray="4.58333 4.58333" fill="none"/><rect x="2630.5" y="1562.5" width="152" height="121" stroke="#181717" stroke-width="4.58333" stroke-miterlimit="8" stroke-dasharray="4.58333 4.58333" fill="none"/><rect x="2178.5" y="1562.5" width="152" height="121" stroke="#181717" stroke-width="4.58333" stroke-miterlimit="8" stroke-dasharray="4.58333 4.58333" fill="none"/><rect x="2480.5" y="1562.5" width="152" height="121" stroke="#181717" stroke-width="4.58333" stroke-miterlimit="8" stroke-dasharray="4.58333 4.58333" fill="none"/><path d="M2078.5 1741.5C2078.5 1727.69 2089.47 1716.5 2103 1716.5 2116.53 1716.5 2127.5 1727.69 2127.5 1741.5 2127.5 1755.31 2116.53 1766.5 2103 1766.5 2089.47 1766.5 2078.5 1755.31 2078.5 1741.5Z" stroke="#181717" stroke-width="4.58333" stroke-miterlimit="8" fill="#D5A4AC" fill-rule="evenodd"/><path d="M2755.7 1127.24C2758.19 1127.24 2760.49 1127.41 2762.61 1127.75 2764.73 1128.09 2767.08 1128.66 2769.64 1129.47L2767.37 1139.89 2763.48 1139.89C2763.37 1137.59 2763.02 1135.79 2762.43 1134.48 2761.83 1133.17 2760.98 1132.23 2759.88 1131.66 2758.77 1131.09 2757.3 1130.81 2755.46 1130.81 2753.22 1130.81 2751.24 1131.27 2749.54 1132.19 2747.84 1133.1 2746.54 1134.35 2745.65 1135.93 2744.76 1137.52 2744.31 1139.28 2744.31 1141.22 2744.31 1143.25 2744.85 1145.03 2745.91 1146.55 2746.98 1148.08 2749.03 1149.88 2752.05 1151.96 2754.7 1153.8 2756.72 1155.44 2758.11 1156.89 2759.5 1158.33 2760.53 1159.87 2761.19 1161.49 2761.85 1163.11 2762.19 1164.99 2762.19 1167.12 2762.19 1170.42 2761.4 1173.34 2759.81 1175.89 2758.23 1178.45 2756.01 1180.42 2753.13 1181.81 2750.25 1183.2 2746.97 1183.9 2743.3 1183.9 2740.81 1183.9 2738.13 1183.7 2735.26 1183.29 2732.38 1182.89 2729.8 1182.37 2727.53 1181.75L2729.97 1170.61 2733.86 1170.61C2733.86 1173.9 2734.62 1176.35 2736.15 1177.96 2737.67 1179.57 2740.03 1180.37 2743.22 1180.37 2746.89 1180.37 2749.78 1179.37 2751.89 1177.37 2754 1175.37 2755.05 1172.59 2755.05 1169.03 2755.05 1167.38 2754.76 1165.93 2754.18 1164.67 2753.6 1163.41 2752.72 1162.21 2751.55 1161.06 2750.37 1159.91 2748.68 1158.6 2746.46 1157.11 2744.46 1155.76 2742.8 1154.43 2741.48 1153.12 2740.15 1151.81 2739.1 1150.34 2738.31 1148.72 2737.53 1147.1 2737.14 1145.29 2737.14 1143.29 2737.14 1140.1 2737.91 1137.29 2739.45 1134.86 2740.99 1132.43 2743.16 1130.55 2745.97 1129.23 2748.78 1127.9 2752.03 1127.24 2755.7 1127.24Z" fill-rule="evenodd"/><text fill="#000000" fill-opacity="0" font-family="Arial,Arial_MSFontService,sans-serif" font-size="56.6572" x="2727.53" y="1176.82">𝑆</text></g></svg>