<svg width="755" height="785" xmlns="http://www.w3.org/2000/svg" xmlns:xlink="http://www.w3.org/1999/xlink" overflow="hidden"><defs><clipPath id="clip0"><rect x="3108" y="1018" width="755" height="785"/></clipPath><clipPath id="clip1"><rect x="3113" y="1017" width="135" height="135"/></clipPath><clipPath id="clip2"><rect x="3113" y="1017" width="135" height="135"/></clipPath><clipPath id="clip3"><rect x="3113" y="1017" width="135" height="135"/></clipPath></defs><g clip-path="url(#clip0)" transform="translate(-3108 -1018)"><rect x="3110.5" y="1205.5" width="151" height="121" stroke="#181717" stroke-width="4.58333" stroke-miterlimit="8" fill="#567B9B"/><rect x="3409.5" y="1205.5" width="151" height="121" stroke="#181717" stroke-width="4.58333" stroke-miterlimit="8" fill="#DCDAE5"/><rect x="3709.5" y="1205.5" width="151" height="121" stroke="#181717" stroke-width="4.58333" stroke-miterlimit="8" fill="#CF747A"/><rect x="3110.5" y="1680.5" width="151" height="120" stroke="#181717" stroke-width="4.58333" stroke-miterlimit="8" fill="#CF747A"/><rect x="3409.5" y="1680.5" width="151" height="120" stroke="#181717" stroke-width="4.58333" stroke-miterlimit="8" fill="#CC5C61"/><rect x="3709.5" y="1680.5" width="151" height="120" stroke="#181717" stroke-width="4.58333" stroke-miterlimit="8" fill="#C5282A"/><rect x="3110.5" y="1442.5" width="151" height="120" stroke="#181717" stroke-width="4.58333" stroke-miterlimit="8" fill="#DCDAE5"/><rect x="3409.5" y="1442.5" width="151" height="120" stroke="#181717" stroke-width="4.58333" stroke-miterlimit="8" fill="#CF747A"/><rect x="3709.5" y="1442.5" width="151" height="120" stroke="#181717" stroke-width="4.58333" stroke-miterlimit="8" fill="#CC5C61"/><g clip-path="url(#clip1)"><g clip-path="url(#clip2)"><g clip-path="url(#clip3)"><path d="M3195.25 1040.34C3188.86 1031.15 3183.33 1023.21 3181.99 1019.41 3181.69 1018.57 3180.91 1018.01 3180.02 1018 3179.21 1018.02 3178.34 1018.53 3178.03 1019.36 3176.66 1022.95 3171.42 1030.49 3165.34 1039.22 3151.43 1059.2 3132.37 1086.57 3132.37 1104.37 3132.37 1130.63 3153.74 1152 3180 1152 3206.26 1152 3227.63 1130.63 3227.63 1104.37 3227.63 1086.85 3208.92 1059.97 3195.25 1040.34Z" stroke="#181717" stroke-width="0.260106" fill="#1F4E79"/></g></g></g><rect x="3258.5" y="1205.5" width="152" height="121" stroke="#181717" stroke-width="4.58333" stroke-miterlimit="8" fill="#90ABC3"/><rect x="3558.5" y="1205.5" width="152" height="121" stroke="#181717" stroke-width="4.58333" stroke-miterlimit="8" fill="#D49DA5"/><rect x="3258.5" y="1680.5" width="152" height="120" stroke="#181717" stroke-width="4.58333" stroke-miterlimit="8" fill="#CF7278"/><rect x="3558.5" y="1680.5" width="152" height="120" stroke="#181717" stroke-width="4.58333" stroke-miterlimit="8" fill="#CB5357"/><rect x="3258.5" y="1442.5" width="152" height="120" stroke="#181717" stroke-width="4.58333" stroke-miterlimit="8" fill="#D49DA5"/><rect x="3558.5" y="1442.5" width="152" height="120" stroke="#181717" stroke-width="4.58333" stroke-miterlimit="8" fill="#CF7278"/><rect x="3110.5" y="1326.5" width="151" height="120" stroke="#181717" stroke-width="4.58333" stroke-miterlimit="8" fill="#90ABC3"/><rect x="3409.5" y="1326.5" width="151" height="120" stroke="#181717" stroke-width="4.58333" stroke-miterlimit="8" fill="#D49DA5"/><rect x="3709.5" y="1326.5" width="151" height="120" stroke="#181717" stroke-width="4.58333" stroke-miterlimit="8" fill="#CF7278"/><rect x="3258.5" y="1326.5" width="152" height="120" stroke="#181717" stroke-width="4.58333" stroke-miterlimit="8" fill="#DCDAE5"/><rect x="3558.5" y="1326.5" width="152" height="120" stroke="#181717" stroke-width="4.58333" stroke-miterlimit="8" fill="#CF747A"/><rect x="3110.5" y="1560.5" width="151" height="121" stroke="#181717" stroke-width="4.58333" stroke-miterlimit="8" fill="#D49DA5"/><rect x="3409.5" y="1560.5" width="151" height="121" stroke="#181717" stroke-width="4.58333" stroke-miterlimit="8" fill="#CF7278"/><rect x="3709.5" y="1560.5" width="151" height="121" stroke="#181717" stroke-width="4.58333" stroke-miterlimit="8" fill="#C9474B"/><rect x="3258.5" y="1560.5" width="152" height="121" stroke="#181717" stroke-width="4.58333" stroke-miterlimit="8" fill="#CF747A"/><rect x="3558.5" y="1560.5" width="152" height="121" stroke="#181717" stroke-width="4.58333" stroke-miterlimit="8" fill="#CC5C61"/></g></svg>